M48
; DRILL file {KiCad (5.1.5-0)} date Thursday, April 02, 2020 at 07:03:08 PM
; FORMAT={-:-/ absolute / inch / decimal}
; #@! TF.CreationDate,2020-04-02T19:03:08-07:00
; #@! TF.GenerationSoftware,Kicad,Pcbnew,(5.1.5-0)
FMAT,2
INCH
T1C0.0181
T2C0.0197
T3C0.0315
T4C0.0394
%
G90
G05
T1
X5.5776Y-2.2477
X5.9224Y-2.2477
X3.3776Y-2.2477
X3.7224Y-2.2477
T2
X3.25Y-2.55
X3.35Y-2.35
X3.4Y-2.55
X3.7Y-2.55
X3.8Y-2.95
X3.85Y-2.55
X4.35Y-2.55
X4.4Y-2.95
X4.5Y-2.55
X4.8Y-2.55
X4.9Y-2.95
X4.95Y-2.55
X5.45Y-2.55
X5.5Y-2.95
X5.6Y-2.55
X5.9Y-2.55
X5.95Y-2.35
X6.05Y-2.55
T3
X3.95Y-3.1
X3.95Y-3.4
X4.5Y-2.95
X4.8Y-2.95
X3.4Y-2.95
X3.7Y-2.95
X4.25Y-3.1
X4.25Y-3.4
X5.6Y-3.1
X5.6Y-3.4
X5.05Y-2.95
X5.35Y-2.95
X3.95Y-2.95
X4.25Y-2.95
X4.8Y-3.1
X4.8Y-3.4
X3.7Y-3.1
X3.7Y-3.4
X4.5Y-3.1
X4.5Y-3.4
X5.6Y-2.95
X5.9Y-2.95
X3.4Y-3.1
X3.4Y-3.4
X5.35Y-3.1
X5.35Y-3.4
X5.9Y-3.1
X5.9Y-3.4
X5.05Y-3.1
X5.05Y-3.4
T4
X3.65Y-2.45
X3.75Y-2.45
X3.85Y-2.45
X4.35Y-2.45
X4.45Y-2.45
X4.55Y-2.45
X5.3Y-2.7
X5.4Y-2.7
X5.5Y-2.7
X4.2Y-2.7
X4.3Y-2.7
X4.4Y-2.7
X4.9Y-2.7
X5.0Y-2.7
X5.1Y-2.7
X5.45Y-2.45
X5.55Y-2.45
X5.65Y-2.45
X3.25Y-2.45
X3.35Y-2.45
X3.45Y-2.45
X4.75Y-2.45
X4.85Y-2.45
X4.95Y-2.45
X3.8Y-2.7
X3.9Y-2.7
X4.0Y-2.7
X5.85Y-2.45
X5.95Y-2.45
X6.05Y-2.45
T0
M30
