G04 #@! TF.GenerationSoftware,KiCad,Pcbnew,(5.1.5-0)*
G04 #@! TF.CreationDate,2020-04-02T18:54:50-07:00*
G04 #@! TF.ProjectId,Attenuator,41747465-6e75-4617-946f-722e6b696361,rev?*
G04 #@! TF.SameCoordinates,Original*
G04 #@! TF.FileFunction,Soldermask,Bot*
G04 #@! TF.FilePolarity,Negative*
%FSLAX46Y46*%
G04 Gerber Fmt 4.6, Leading zero omitted, Abs format (unit mm)*
G04 Created by KiCad (PCBNEW (5.1.5-0)) date 2020-04-02 18:54:50*
%MOMM*%
%LPD*%
G04 APERTURE LIST*
%ADD10C,0.100000*%
G04 APERTURE END LIST*
D10*
G36*
X150108228Y-85541703D02*
G01*
X150263100Y-85605853D01*
X150402481Y-85698985D01*
X150521015Y-85817519D01*
X150614147Y-85956900D01*
X150678297Y-86111772D01*
X150711000Y-86276184D01*
X150711000Y-86443816D01*
X150678297Y-86608228D01*
X150614147Y-86763100D01*
X150521015Y-86902481D01*
X150402481Y-87021015D01*
X150263100Y-87114147D01*
X150108228Y-87178297D01*
X149943816Y-87211000D01*
X149776184Y-87211000D01*
X149611772Y-87178297D01*
X149456900Y-87114147D01*
X149317519Y-87021015D01*
X149198985Y-86902481D01*
X149105853Y-86763100D01*
X149041703Y-86608228D01*
X149009000Y-86443816D01*
X149009000Y-86276184D01*
X149041703Y-86111772D01*
X149105853Y-85956900D01*
X149198985Y-85817519D01*
X149317519Y-85698985D01*
X149456900Y-85605853D01*
X149611772Y-85541703D01*
X149776184Y-85509000D01*
X149943816Y-85509000D01*
X150108228Y-85541703D01*
G37*
G36*
X142488228Y-85541703D02*
G01*
X142643100Y-85605853D01*
X142782481Y-85698985D01*
X142901015Y-85817519D01*
X142994147Y-85956900D01*
X143058297Y-86111772D01*
X143091000Y-86276184D01*
X143091000Y-86443816D01*
X143058297Y-86608228D01*
X142994147Y-86763100D01*
X142901015Y-86902481D01*
X142782481Y-87021015D01*
X142643100Y-87114147D01*
X142488228Y-87178297D01*
X142323816Y-87211000D01*
X142156184Y-87211000D01*
X141991772Y-87178297D01*
X141836900Y-87114147D01*
X141697519Y-87021015D01*
X141578985Y-86902481D01*
X141485853Y-86763100D01*
X141421703Y-86608228D01*
X141389000Y-86443816D01*
X141389000Y-86276184D01*
X141421703Y-86111772D01*
X141485853Y-85956900D01*
X141578985Y-85817519D01*
X141697519Y-85698985D01*
X141836900Y-85605853D01*
X141991772Y-85541703D01*
X142156184Y-85509000D01*
X142323816Y-85509000D01*
X142488228Y-85541703D01*
G37*
G36*
X136138228Y-85541703D02*
G01*
X136293100Y-85605853D01*
X136432481Y-85698985D01*
X136551015Y-85817519D01*
X136644147Y-85956900D01*
X136708297Y-86111772D01*
X136741000Y-86276184D01*
X136741000Y-86443816D01*
X136708297Y-86608228D01*
X136644147Y-86763100D01*
X136551015Y-86902481D01*
X136432481Y-87021015D01*
X136293100Y-87114147D01*
X136138228Y-87178297D01*
X135973816Y-87211000D01*
X135806184Y-87211000D01*
X135641772Y-87178297D01*
X135486900Y-87114147D01*
X135347519Y-87021015D01*
X135228985Y-86902481D01*
X135135853Y-86763100D01*
X135071703Y-86608228D01*
X135039000Y-86443816D01*
X135039000Y-86276184D01*
X135071703Y-86111772D01*
X135135853Y-85956900D01*
X135228985Y-85817519D01*
X135347519Y-85698985D01*
X135486900Y-85605853D01*
X135641772Y-85541703D01*
X135806184Y-85509000D01*
X135973816Y-85509000D01*
X136138228Y-85541703D01*
G37*
G36*
X128518228Y-85541703D02*
G01*
X128673100Y-85605853D01*
X128812481Y-85698985D01*
X128931015Y-85817519D01*
X129024147Y-85956900D01*
X129088297Y-86111772D01*
X129121000Y-86276184D01*
X129121000Y-86443816D01*
X129088297Y-86608228D01*
X129024147Y-86763100D01*
X128931015Y-86902481D01*
X128812481Y-87021015D01*
X128673100Y-87114147D01*
X128518228Y-87178297D01*
X128353816Y-87211000D01*
X128186184Y-87211000D01*
X128021772Y-87178297D01*
X127866900Y-87114147D01*
X127727519Y-87021015D01*
X127608985Y-86902481D01*
X127515853Y-86763100D01*
X127451703Y-86608228D01*
X127419000Y-86443816D01*
X127419000Y-86276184D01*
X127451703Y-86111772D01*
X127515853Y-85956900D01*
X127608985Y-85817519D01*
X127727519Y-85698985D01*
X127866900Y-85605853D01*
X128021772Y-85541703D01*
X128186184Y-85509000D01*
X128353816Y-85509000D01*
X128518228Y-85541703D01*
G37*
G36*
X122168228Y-85541703D02*
G01*
X122323100Y-85605853D01*
X122462481Y-85698985D01*
X122581015Y-85817519D01*
X122674147Y-85956900D01*
X122738297Y-86111772D01*
X122771000Y-86276184D01*
X122771000Y-86443816D01*
X122738297Y-86608228D01*
X122674147Y-86763100D01*
X122581015Y-86902481D01*
X122462481Y-87021015D01*
X122323100Y-87114147D01*
X122168228Y-87178297D01*
X122003816Y-87211000D01*
X121836184Y-87211000D01*
X121671772Y-87178297D01*
X121516900Y-87114147D01*
X121377519Y-87021015D01*
X121258985Y-86902481D01*
X121165853Y-86763100D01*
X121101703Y-86608228D01*
X121069000Y-86443816D01*
X121069000Y-86276184D01*
X121101703Y-86111772D01*
X121165853Y-85956900D01*
X121258985Y-85817519D01*
X121377519Y-85698985D01*
X121516900Y-85605853D01*
X121671772Y-85541703D01*
X121836184Y-85509000D01*
X122003816Y-85509000D01*
X122168228Y-85541703D01*
G37*
G36*
X114548228Y-85541703D02*
G01*
X114703100Y-85605853D01*
X114842481Y-85698985D01*
X114961015Y-85817519D01*
X115054147Y-85956900D01*
X115118297Y-86111772D01*
X115151000Y-86276184D01*
X115151000Y-86443816D01*
X115118297Y-86608228D01*
X115054147Y-86763100D01*
X114961015Y-86902481D01*
X114842481Y-87021015D01*
X114703100Y-87114147D01*
X114548228Y-87178297D01*
X114383816Y-87211000D01*
X114216184Y-87211000D01*
X114051772Y-87178297D01*
X113896900Y-87114147D01*
X113757519Y-87021015D01*
X113638985Y-86902481D01*
X113545853Y-86763100D01*
X113481703Y-86608228D01*
X113449000Y-86443816D01*
X113449000Y-86276184D01*
X113481703Y-86111772D01*
X113545853Y-85956900D01*
X113638985Y-85817519D01*
X113757519Y-85698985D01*
X113896900Y-85605853D01*
X114051772Y-85541703D01*
X114216184Y-85509000D01*
X114383816Y-85509000D01*
X114548228Y-85541703D01*
G37*
G36*
X108198228Y-85541703D02*
G01*
X108353100Y-85605853D01*
X108492481Y-85698985D01*
X108611015Y-85817519D01*
X108704147Y-85956900D01*
X108768297Y-86111772D01*
X108801000Y-86276184D01*
X108801000Y-86443816D01*
X108768297Y-86608228D01*
X108704147Y-86763100D01*
X108611015Y-86902481D01*
X108492481Y-87021015D01*
X108353100Y-87114147D01*
X108198228Y-87178297D01*
X108033816Y-87211000D01*
X107866184Y-87211000D01*
X107701772Y-87178297D01*
X107546900Y-87114147D01*
X107407519Y-87021015D01*
X107288985Y-86902481D01*
X107195853Y-86763100D01*
X107131703Y-86608228D01*
X107099000Y-86443816D01*
X107099000Y-86276184D01*
X107131703Y-86111772D01*
X107195853Y-85956900D01*
X107288985Y-85817519D01*
X107407519Y-85698985D01*
X107546900Y-85605853D01*
X107701772Y-85541703D01*
X107866184Y-85509000D01*
X108033816Y-85509000D01*
X108198228Y-85541703D01*
G37*
G36*
X100578228Y-85541703D02*
G01*
X100733100Y-85605853D01*
X100872481Y-85698985D01*
X100991015Y-85817519D01*
X101084147Y-85956900D01*
X101148297Y-86111772D01*
X101181000Y-86276184D01*
X101181000Y-86443816D01*
X101148297Y-86608228D01*
X101084147Y-86763100D01*
X100991015Y-86902481D01*
X100872481Y-87021015D01*
X100733100Y-87114147D01*
X100578228Y-87178297D01*
X100413816Y-87211000D01*
X100246184Y-87211000D01*
X100081772Y-87178297D01*
X99926900Y-87114147D01*
X99787519Y-87021015D01*
X99668985Y-86902481D01*
X99575853Y-86763100D01*
X99511703Y-86608228D01*
X99479000Y-86443816D01*
X99479000Y-86276184D01*
X99511703Y-86111772D01*
X99575853Y-85956900D01*
X99668985Y-85817519D01*
X99787519Y-85698985D01*
X99926900Y-85605853D01*
X100081772Y-85541703D01*
X100246184Y-85509000D01*
X100413816Y-85509000D01*
X100578228Y-85541703D01*
G37*
G36*
X94228228Y-85541703D02*
G01*
X94383100Y-85605853D01*
X94522481Y-85698985D01*
X94641015Y-85817519D01*
X94734147Y-85956900D01*
X94798297Y-86111772D01*
X94831000Y-86276184D01*
X94831000Y-86443816D01*
X94798297Y-86608228D01*
X94734147Y-86763100D01*
X94641015Y-86902481D01*
X94522481Y-87021015D01*
X94383100Y-87114147D01*
X94228228Y-87178297D01*
X94063816Y-87211000D01*
X93896184Y-87211000D01*
X93731772Y-87178297D01*
X93576900Y-87114147D01*
X93437519Y-87021015D01*
X93318985Y-86902481D01*
X93225853Y-86763100D01*
X93161703Y-86608228D01*
X93129000Y-86443816D01*
X93129000Y-86276184D01*
X93161703Y-86111772D01*
X93225853Y-85956900D01*
X93318985Y-85817519D01*
X93437519Y-85698985D01*
X93576900Y-85605853D01*
X93731772Y-85541703D01*
X93896184Y-85509000D01*
X94063816Y-85509000D01*
X94228228Y-85541703D01*
G37*
G36*
X86608228Y-85541703D02*
G01*
X86763100Y-85605853D01*
X86902481Y-85698985D01*
X87021015Y-85817519D01*
X87114147Y-85956900D01*
X87178297Y-86111772D01*
X87211000Y-86276184D01*
X87211000Y-86443816D01*
X87178297Y-86608228D01*
X87114147Y-86763100D01*
X87021015Y-86902481D01*
X86902481Y-87021015D01*
X86763100Y-87114147D01*
X86608228Y-87178297D01*
X86443816Y-87211000D01*
X86276184Y-87211000D01*
X86111772Y-87178297D01*
X85956900Y-87114147D01*
X85817519Y-87021015D01*
X85698985Y-86902481D01*
X85605853Y-86763100D01*
X85541703Y-86608228D01*
X85509000Y-86443816D01*
X85509000Y-86276184D01*
X85541703Y-86111772D01*
X85605853Y-85956900D01*
X85698985Y-85817519D01*
X85817519Y-85698985D01*
X85956900Y-85605853D01*
X86111772Y-85541703D01*
X86276184Y-85509000D01*
X86443816Y-85509000D01*
X86608228Y-85541703D01*
G37*
G36*
X150108228Y-77921703D02*
G01*
X150263100Y-77985853D01*
X150402481Y-78078985D01*
X150521015Y-78197519D01*
X150614147Y-78336900D01*
X150678297Y-78491772D01*
X150711000Y-78656184D01*
X150711000Y-78823816D01*
X150678297Y-78988228D01*
X150614147Y-79143100D01*
X150521015Y-79282481D01*
X150402481Y-79401015D01*
X150263100Y-79494147D01*
X150108228Y-79558297D01*
X149943816Y-79591000D01*
X149776184Y-79591000D01*
X149611772Y-79558297D01*
X149456900Y-79494147D01*
X149317519Y-79401015D01*
X149198985Y-79282481D01*
X149105853Y-79143100D01*
X149041703Y-78988228D01*
X149009000Y-78823816D01*
X149009000Y-78656184D01*
X149041703Y-78491772D01*
X149105853Y-78336900D01*
X149198985Y-78197519D01*
X149317519Y-78078985D01*
X149456900Y-77985853D01*
X149611772Y-77921703D01*
X149776184Y-77889000D01*
X149943816Y-77889000D01*
X150108228Y-77921703D01*
G37*
G36*
X100578228Y-77921703D02*
G01*
X100733100Y-77985853D01*
X100872481Y-78078985D01*
X100991015Y-78197519D01*
X101084147Y-78336900D01*
X101148297Y-78491772D01*
X101181000Y-78656184D01*
X101181000Y-78823816D01*
X101148297Y-78988228D01*
X101084147Y-79143100D01*
X100991015Y-79282481D01*
X100872481Y-79401015D01*
X100733100Y-79494147D01*
X100578228Y-79558297D01*
X100413816Y-79591000D01*
X100246184Y-79591000D01*
X100081772Y-79558297D01*
X99926900Y-79494147D01*
X99787519Y-79401015D01*
X99668985Y-79282481D01*
X99575853Y-79143100D01*
X99511703Y-78988228D01*
X99479000Y-78823816D01*
X99479000Y-78656184D01*
X99511703Y-78491772D01*
X99575853Y-78336900D01*
X99668985Y-78197519D01*
X99787519Y-78078985D01*
X99926900Y-77985853D01*
X100081772Y-77921703D01*
X100246184Y-77889000D01*
X100413816Y-77889000D01*
X100578228Y-77921703D01*
G37*
G36*
X142488228Y-77921703D02*
G01*
X142643100Y-77985853D01*
X142782481Y-78078985D01*
X142901015Y-78197519D01*
X142994147Y-78336900D01*
X143058297Y-78491772D01*
X143091000Y-78656184D01*
X143091000Y-78823816D01*
X143058297Y-78988228D01*
X142994147Y-79143100D01*
X142901015Y-79282481D01*
X142782481Y-79401015D01*
X142643100Y-79494147D01*
X142488228Y-79558297D01*
X142323816Y-79591000D01*
X142156184Y-79591000D01*
X141991772Y-79558297D01*
X141836900Y-79494147D01*
X141697519Y-79401015D01*
X141578985Y-79282481D01*
X141485853Y-79143100D01*
X141421703Y-78988228D01*
X141389000Y-78823816D01*
X141389000Y-78656184D01*
X141421703Y-78491772D01*
X141485853Y-78336900D01*
X141578985Y-78197519D01*
X141697519Y-78078985D01*
X141836900Y-77985853D01*
X141991772Y-77921703D01*
X142156184Y-77889000D01*
X142323816Y-77889000D01*
X142488228Y-77921703D01*
G37*
G36*
X136138228Y-77921703D02*
G01*
X136293100Y-77985853D01*
X136432481Y-78078985D01*
X136551015Y-78197519D01*
X136644147Y-78336900D01*
X136708297Y-78491772D01*
X136741000Y-78656184D01*
X136741000Y-78823816D01*
X136708297Y-78988228D01*
X136644147Y-79143100D01*
X136551015Y-79282481D01*
X136432481Y-79401015D01*
X136293100Y-79494147D01*
X136138228Y-79558297D01*
X135973816Y-79591000D01*
X135806184Y-79591000D01*
X135641772Y-79558297D01*
X135486900Y-79494147D01*
X135347519Y-79401015D01*
X135228985Y-79282481D01*
X135135853Y-79143100D01*
X135071703Y-78988228D01*
X135039000Y-78823816D01*
X135039000Y-78656184D01*
X135071703Y-78491772D01*
X135135853Y-78336900D01*
X135228985Y-78197519D01*
X135347519Y-78078985D01*
X135486900Y-77985853D01*
X135641772Y-77921703D01*
X135806184Y-77889000D01*
X135973816Y-77889000D01*
X136138228Y-77921703D01*
G37*
G36*
X128518228Y-77921703D02*
G01*
X128673100Y-77985853D01*
X128812481Y-78078985D01*
X128931015Y-78197519D01*
X129024147Y-78336900D01*
X129088297Y-78491772D01*
X129121000Y-78656184D01*
X129121000Y-78823816D01*
X129088297Y-78988228D01*
X129024147Y-79143100D01*
X128931015Y-79282481D01*
X128812481Y-79401015D01*
X128673100Y-79494147D01*
X128518228Y-79558297D01*
X128353816Y-79591000D01*
X128186184Y-79591000D01*
X128021772Y-79558297D01*
X127866900Y-79494147D01*
X127727519Y-79401015D01*
X127608985Y-79282481D01*
X127515853Y-79143100D01*
X127451703Y-78988228D01*
X127419000Y-78823816D01*
X127419000Y-78656184D01*
X127451703Y-78491772D01*
X127515853Y-78336900D01*
X127608985Y-78197519D01*
X127727519Y-78078985D01*
X127866900Y-77985853D01*
X128021772Y-77921703D01*
X128186184Y-77889000D01*
X128353816Y-77889000D01*
X128518228Y-77921703D01*
G37*
G36*
X122168228Y-77921703D02*
G01*
X122323100Y-77985853D01*
X122462481Y-78078985D01*
X122581015Y-78197519D01*
X122674147Y-78336900D01*
X122738297Y-78491772D01*
X122771000Y-78656184D01*
X122771000Y-78823816D01*
X122738297Y-78988228D01*
X122674147Y-79143100D01*
X122581015Y-79282481D01*
X122462481Y-79401015D01*
X122323100Y-79494147D01*
X122168228Y-79558297D01*
X122003816Y-79591000D01*
X121836184Y-79591000D01*
X121671772Y-79558297D01*
X121516900Y-79494147D01*
X121377519Y-79401015D01*
X121258985Y-79282481D01*
X121165853Y-79143100D01*
X121101703Y-78988228D01*
X121069000Y-78823816D01*
X121069000Y-78656184D01*
X121101703Y-78491772D01*
X121165853Y-78336900D01*
X121258985Y-78197519D01*
X121377519Y-78078985D01*
X121516900Y-77985853D01*
X121671772Y-77921703D01*
X121836184Y-77889000D01*
X122003816Y-77889000D01*
X122168228Y-77921703D01*
G37*
G36*
X114548228Y-77921703D02*
G01*
X114703100Y-77985853D01*
X114842481Y-78078985D01*
X114961015Y-78197519D01*
X115054147Y-78336900D01*
X115118297Y-78491772D01*
X115151000Y-78656184D01*
X115151000Y-78823816D01*
X115118297Y-78988228D01*
X115054147Y-79143100D01*
X114961015Y-79282481D01*
X114842481Y-79401015D01*
X114703100Y-79494147D01*
X114548228Y-79558297D01*
X114383816Y-79591000D01*
X114216184Y-79591000D01*
X114051772Y-79558297D01*
X113896900Y-79494147D01*
X113757519Y-79401015D01*
X113638985Y-79282481D01*
X113545853Y-79143100D01*
X113481703Y-78988228D01*
X113449000Y-78823816D01*
X113449000Y-78656184D01*
X113481703Y-78491772D01*
X113545853Y-78336900D01*
X113638985Y-78197519D01*
X113757519Y-78078985D01*
X113896900Y-77985853D01*
X114051772Y-77921703D01*
X114216184Y-77889000D01*
X114383816Y-77889000D01*
X114548228Y-77921703D01*
G37*
G36*
X108198228Y-77921703D02*
G01*
X108353100Y-77985853D01*
X108492481Y-78078985D01*
X108611015Y-78197519D01*
X108704147Y-78336900D01*
X108768297Y-78491772D01*
X108801000Y-78656184D01*
X108801000Y-78823816D01*
X108768297Y-78988228D01*
X108704147Y-79143100D01*
X108611015Y-79282481D01*
X108492481Y-79401015D01*
X108353100Y-79494147D01*
X108198228Y-79558297D01*
X108033816Y-79591000D01*
X107866184Y-79591000D01*
X107701772Y-79558297D01*
X107546900Y-79494147D01*
X107407519Y-79401015D01*
X107288985Y-79282481D01*
X107195853Y-79143100D01*
X107131703Y-78988228D01*
X107099000Y-78823816D01*
X107099000Y-78656184D01*
X107131703Y-78491772D01*
X107195853Y-78336900D01*
X107288985Y-78197519D01*
X107407519Y-78078985D01*
X107546900Y-77985853D01*
X107701772Y-77921703D01*
X107866184Y-77889000D01*
X108033816Y-77889000D01*
X108198228Y-77921703D01*
G37*
G36*
X94228228Y-77921703D02*
G01*
X94383100Y-77985853D01*
X94522481Y-78078985D01*
X94641015Y-78197519D01*
X94734147Y-78336900D01*
X94798297Y-78491772D01*
X94831000Y-78656184D01*
X94831000Y-78823816D01*
X94798297Y-78988228D01*
X94734147Y-79143100D01*
X94641015Y-79282481D01*
X94522481Y-79401015D01*
X94383100Y-79494147D01*
X94228228Y-79558297D01*
X94063816Y-79591000D01*
X93896184Y-79591000D01*
X93731772Y-79558297D01*
X93576900Y-79494147D01*
X93437519Y-79401015D01*
X93318985Y-79282481D01*
X93225853Y-79143100D01*
X93161703Y-78988228D01*
X93129000Y-78823816D01*
X93129000Y-78656184D01*
X93161703Y-78491772D01*
X93225853Y-78336900D01*
X93318985Y-78197519D01*
X93437519Y-78078985D01*
X93576900Y-77985853D01*
X93731772Y-77921703D01*
X93896184Y-77889000D01*
X94063816Y-77889000D01*
X94228228Y-77921703D01*
G37*
G36*
X86608228Y-77921703D02*
G01*
X86763100Y-77985853D01*
X86902481Y-78078985D01*
X87021015Y-78197519D01*
X87114147Y-78336900D01*
X87178297Y-78491772D01*
X87211000Y-78656184D01*
X87211000Y-78823816D01*
X87178297Y-78988228D01*
X87114147Y-79143100D01*
X87021015Y-79282481D01*
X86902481Y-79401015D01*
X86763100Y-79494147D01*
X86608228Y-79558297D01*
X86443816Y-79591000D01*
X86276184Y-79591000D01*
X86111772Y-79558297D01*
X85956900Y-79494147D01*
X85817519Y-79401015D01*
X85698985Y-79282481D01*
X85605853Y-79143100D01*
X85541703Y-78988228D01*
X85509000Y-78823816D01*
X85509000Y-78656184D01*
X85541703Y-78491772D01*
X85605853Y-78336900D01*
X85698985Y-78197519D01*
X85817519Y-78078985D01*
X85956900Y-77985853D01*
X86111772Y-77921703D01*
X86276184Y-77889000D01*
X86443816Y-77889000D01*
X86608228Y-77921703D01*
G37*
G36*
X142488228Y-74111703D02*
G01*
X142643100Y-74175853D01*
X142782481Y-74268985D01*
X142901015Y-74387519D01*
X142994147Y-74526900D01*
X143058297Y-74681772D01*
X143091000Y-74846184D01*
X143091000Y-75013816D01*
X143058297Y-75178228D01*
X142994147Y-75333100D01*
X142901015Y-75472481D01*
X142782481Y-75591015D01*
X142643100Y-75684147D01*
X142488228Y-75748297D01*
X142323816Y-75781000D01*
X142156184Y-75781000D01*
X141991772Y-75748297D01*
X141836900Y-75684147D01*
X141697519Y-75591015D01*
X141578985Y-75472481D01*
X141485853Y-75333100D01*
X141421703Y-75178228D01*
X141389000Y-75013816D01*
X141389000Y-74846184D01*
X141421703Y-74681772D01*
X141485853Y-74526900D01*
X141578985Y-74387519D01*
X141697519Y-74268985D01*
X141836900Y-74175853D01*
X141991772Y-74111703D01*
X142156184Y-74079000D01*
X142323816Y-74079000D01*
X142488228Y-74111703D01*
G37*
G36*
X122168228Y-74111703D02*
G01*
X122323100Y-74175853D01*
X122462481Y-74268985D01*
X122581015Y-74387519D01*
X122674147Y-74526900D01*
X122738297Y-74681772D01*
X122771000Y-74846184D01*
X122771000Y-75013816D01*
X122738297Y-75178228D01*
X122674147Y-75333100D01*
X122581015Y-75472481D01*
X122462481Y-75591015D01*
X122323100Y-75684147D01*
X122168228Y-75748297D01*
X122003816Y-75781000D01*
X121836184Y-75781000D01*
X121671772Y-75748297D01*
X121516900Y-75684147D01*
X121377519Y-75591015D01*
X121258985Y-75472481D01*
X121165853Y-75333100D01*
X121101703Y-75178228D01*
X121069000Y-75013816D01*
X121069000Y-74846184D01*
X121101703Y-74681772D01*
X121165853Y-74526900D01*
X121258985Y-74387519D01*
X121377519Y-74268985D01*
X121516900Y-74175853D01*
X121671772Y-74111703D01*
X121836184Y-74079000D01*
X122003816Y-74079000D01*
X122168228Y-74111703D01*
G37*
G36*
X150108228Y-74111703D02*
G01*
X150263100Y-74175853D01*
X150402481Y-74268985D01*
X150521015Y-74387519D01*
X150614147Y-74526900D01*
X150678297Y-74681772D01*
X150711000Y-74846184D01*
X150711000Y-75013816D01*
X150678297Y-75178228D01*
X150614147Y-75333100D01*
X150521015Y-75472481D01*
X150402481Y-75591015D01*
X150263100Y-75684147D01*
X150108228Y-75748297D01*
X149943816Y-75781000D01*
X149776184Y-75781000D01*
X149611772Y-75748297D01*
X149456900Y-75684147D01*
X149317519Y-75591015D01*
X149198985Y-75472481D01*
X149105853Y-75333100D01*
X149041703Y-75178228D01*
X149009000Y-75013816D01*
X149009000Y-74846184D01*
X149041703Y-74681772D01*
X149105853Y-74526900D01*
X149198985Y-74387519D01*
X149317519Y-74268985D01*
X149456900Y-74175853D01*
X149611772Y-74111703D01*
X149776184Y-74079000D01*
X149943816Y-74079000D01*
X150108228Y-74111703D01*
G37*
G36*
X136138228Y-74111703D02*
G01*
X136293100Y-74175853D01*
X136432481Y-74268985D01*
X136551015Y-74387519D01*
X136644147Y-74526900D01*
X136708297Y-74681772D01*
X136741000Y-74846184D01*
X136741000Y-75013816D01*
X136708297Y-75178228D01*
X136644147Y-75333100D01*
X136551015Y-75472481D01*
X136432481Y-75591015D01*
X136293100Y-75684147D01*
X136138228Y-75748297D01*
X135973816Y-75781000D01*
X135806184Y-75781000D01*
X135641772Y-75748297D01*
X135486900Y-75684147D01*
X135347519Y-75591015D01*
X135228985Y-75472481D01*
X135135853Y-75333100D01*
X135071703Y-75178228D01*
X135039000Y-75013816D01*
X135039000Y-74846184D01*
X135071703Y-74681772D01*
X135135853Y-74526900D01*
X135228985Y-74387519D01*
X135347519Y-74268985D01*
X135486900Y-74175853D01*
X135641772Y-74111703D01*
X135806184Y-74079000D01*
X135973816Y-74079000D01*
X136138228Y-74111703D01*
G37*
G36*
X128518228Y-74111703D02*
G01*
X128673100Y-74175853D01*
X128812481Y-74268985D01*
X128931015Y-74387519D01*
X129024147Y-74526900D01*
X129088297Y-74681772D01*
X129121000Y-74846184D01*
X129121000Y-75013816D01*
X129088297Y-75178228D01*
X129024147Y-75333100D01*
X128931015Y-75472481D01*
X128812481Y-75591015D01*
X128673100Y-75684147D01*
X128518228Y-75748297D01*
X128353816Y-75781000D01*
X128186184Y-75781000D01*
X128021772Y-75748297D01*
X127866900Y-75684147D01*
X127727519Y-75591015D01*
X127608985Y-75472481D01*
X127515853Y-75333100D01*
X127451703Y-75178228D01*
X127419000Y-75013816D01*
X127419000Y-74846184D01*
X127451703Y-74681772D01*
X127515853Y-74526900D01*
X127608985Y-74387519D01*
X127727519Y-74268985D01*
X127866900Y-74175853D01*
X128021772Y-74111703D01*
X128186184Y-74079000D01*
X128353816Y-74079000D01*
X128518228Y-74111703D01*
G37*
G36*
X114548228Y-74111703D02*
G01*
X114703100Y-74175853D01*
X114842481Y-74268985D01*
X114961015Y-74387519D01*
X115054147Y-74526900D01*
X115118297Y-74681772D01*
X115151000Y-74846184D01*
X115151000Y-75013816D01*
X115118297Y-75178228D01*
X115054147Y-75333100D01*
X114961015Y-75472481D01*
X114842481Y-75591015D01*
X114703100Y-75684147D01*
X114548228Y-75748297D01*
X114383816Y-75781000D01*
X114216184Y-75781000D01*
X114051772Y-75748297D01*
X113896900Y-75684147D01*
X113757519Y-75591015D01*
X113638985Y-75472481D01*
X113545853Y-75333100D01*
X113481703Y-75178228D01*
X113449000Y-75013816D01*
X113449000Y-74846184D01*
X113481703Y-74681772D01*
X113545853Y-74526900D01*
X113638985Y-74387519D01*
X113757519Y-74268985D01*
X113896900Y-74175853D01*
X114051772Y-74111703D01*
X114216184Y-74079000D01*
X114383816Y-74079000D01*
X114548228Y-74111703D01*
G37*
G36*
X108198228Y-74111703D02*
G01*
X108353100Y-74175853D01*
X108492481Y-74268985D01*
X108611015Y-74387519D01*
X108704147Y-74526900D01*
X108768297Y-74681772D01*
X108801000Y-74846184D01*
X108801000Y-75013816D01*
X108768297Y-75178228D01*
X108704147Y-75333100D01*
X108611015Y-75472481D01*
X108492481Y-75591015D01*
X108353100Y-75684147D01*
X108198228Y-75748297D01*
X108033816Y-75781000D01*
X107866184Y-75781000D01*
X107701772Y-75748297D01*
X107546900Y-75684147D01*
X107407519Y-75591015D01*
X107288985Y-75472481D01*
X107195853Y-75333100D01*
X107131703Y-75178228D01*
X107099000Y-75013816D01*
X107099000Y-74846184D01*
X107131703Y-74681772D01*
X107195853Y-74526900D01*
X107288985Y-74387519D01*
X107407519Y-74268985D01*
X107546900Y-74175853D01*
X107701772Y-74111703D01*
X107866184Y-74079000D01*
X108033816Y-74079000D01*
X108198228Y-74111703D01*
G37*
G36*
X100578228Y-74111703D02*
G01*
X100733100Y-74175853D01*
X100872481Y-74268985D01*
X100991015Y-74387519D01*
X101084147Y-74526900D01*
X101148297Y-74681772D01*
X101181000Y-74846184D01*
X101181000Y-75013816D01*
X101148297Y-75178228D01*
X101084147Y-75333100D01*
X100991015Y-75472481D01*
X100872481Y-75591015D01*
X100733100Y-75684147D01*
X100578228Y-75748297D01*
X100413816Y-75781000D01*
X100246184Y-75781000D01*
X100081772Y-75748297D01*
X99926900Y-75684147D01*
X99787519Y-75591015D01*
X99668985Y-75472481D01*
X99575853Y-75333100D01*
X99511703Y-75178228D01*
X99479000Y-75013816D01*
X99479000Y-74846184D01*
X99511703Y-74681772D01*
X99575853Y-74526900D01*
X99668985Y-74387519D01*
X99787519Y-74268985D01*
X99926900Y-74175853D01*
X100081772Y-74111703D01*
X100246184Y-74079000D01*
X100413816Y-74079000D01*
X100578228Y-74111703D01*
G37*
G36*
X94228228Y-74111703D02*
G01*
X94383100Y-74175853D01*
X94522481Y-74268985D01*
X94641015Y-74387519D01*
X94734147Y-74526900D01*
X94798297Y-74681772D01*
X94831000Y-74846184D01*
X94831000Y-75013816D01*
X94798297Y-75178228D01*
X94734147Y-75333100D01*
X94641015Y-75472481D01*
X94522481Y-75591015D01*
X94383100Y-75684147D01*
X94228228Y-75748297D01*
X94063816Y-75781000D01*
X93896184Y-75781000D01*
X93731772Y-75748297D01*
X93576900Y-75684147D01*
X93437519Y-75591015D01*
X93318985Y-75472481D01*
X93225853Y-75333100D01*
X93161703Y-75178228D01*
X93129000Y-75013816D01*
X93129000Y-74846184D01*
X93161703Y-74681772D01*
X93225853Y-74526900D01*
X93318985Y-74387519D01*
X93437519Y-74268985D01*
X93576900Y-74175853D01*
X93731772Y-74111703D01*
X93896184Y-74079000D01*
X94063816Y-74079000D01*
X94228228Y-74111703D01*
G37*
G36*
X86608228Y-74111703D02*
G01*
X86763100Y-74175853D01*
X86902481Y-74268985D01*
X87021015Y-74387519D01*
X87114147Y-74526900D01*
X87178297Y-74681772D01*
X87211000Y-74846184D01*
X87211000Y-75013816D01*
X87178297Y-75178228D01*
X87114147Y-75333100D01*
X87021015Y-75472481D01*
X86902481Y-75591015D01*
X86763100Y-75684147D01*
X86608228Y-75748297D01*
X86443816Y-75781000D01*
X86276184Y-75781000D01*
X86111772Y-75748297D01*
X85956900Y-75684147D01*
X85817519Y-75591015D01*
X85698985Y-75472481D01*
X85605853Y-75333100D01*
X85541703Y-75178228D01*
X85509000Y-75013816D01*
X85509000Y-74846184D01*
X85541703Y-74681772D01*
X85605853Y-74526900D01*
X85698985Y-74387519D01*
X85817519Y-74268985D01*
X85956900Y-74175853D01*
X86111772Y-74111703D01*
X86276184Y-74079000D01*
X86443816Y-74079000D01*
X86608228Y-74111703D01*
G37*
G36*
X96633512Y-67683927D02*
G01*
X96782812Y-67713624D01*
X96946784Y-67781544D01*
X97094354Y-67880147D01*
X97219853Y-68005646D01*
X97318456Y-68153216D01*
X97386376Y-68317188D01*
X97421000Y-68491259D01*
X97421000Y-68668741D01*
X97386376Y-68842812D01*
X97318456Y-69006784D01*
X97219853Y-69154354D01*
X97094354Y-69279853D01*
X96946784Y-69378456D01*
X96782812Y-69446376D01*
X96633512Y-69476073D01*
X96608742Y-69481000D01*
X96431258Y-69481000D01*
X96406488Y-69476073D01*
X96257188Y-69446376D01*
X96093216Y-69378456D01*
X95945646Y-69279853D01*
X95820147Y-69154354D01*
X95721544Y-69006784D01*
X95653624Y-68842812D01*
X95619000Y-68668741D01*
X95619000Y-68491259D01*
X95653624Y-68317188D01*
X95721544Y-68153216D01*
X95820147Y-68005646D01*
X95945646Y-67880147D01*
X96093216Y-67781544D01*
X96257188Y-67713624D01*
X96406488Y-67683927D01*
X96431258Y-67679000D01*
X96608742Y-67679000D01*
X96633512Y-67683927D01*
G37*
G36*
X134733512Y-67683927D02*
G01*
X134882812Y-67713624D01*
X135046784Y-67781544D01*
X135194354Y-67880147D01*
X135319853Y-68005646D01*
X135418456Y-68153216D01*
X135486376Y-68317188D01*
X135521000Y-68491259D01*
X135521000Y-68668741D01*
X135486376Y-68842812D01*
X135418456Y-69006784D01*
X135319853Y-69154354D01*
X135194354Y-69279853D01*
X135046784Y-69378456D01*
X134882812Y-69446376D01*
X134733512Y-69476073D01*
X134708742Y-69481000D01*
X134531258Y-69481000D01*
X134506488Y-69476073D01*
X134357188Y-69446376D01*
X134193216Y-69378456D01*
X134045646Y-69279853D01*
X133920147Y-69154354D01*
X133821544Y-69006784D01*
X133753624Y-68842812D01*
X133719000Y-68668741D01*
X133719000Y-68491259D01*
X133753624Y-68317188D01*
X133821544Y-68153216D01*
X133920147Y-68005646D01*
X134045646Y-67880147D01*
X134193216Y-67781544D01*
X134357188Y-67713624D01*
X134506488Y-67683927D01*
X134531258Y-67679000D01*
X134708742Y-67679000D01*
X134733512Y-67683927D01*
G37*
G36*
X137273512Y-67683927D02*
G01*
X137422812Y-67713624D01*
X137586784Y-67781544D01*
X137734354Y-67880147D01*
X137859853Y-68005646D01*
X137958456Y-68153216D01*
X138026376Y-68317188D01*
X138061000Y-68491259D01*
X138061000Y-68668741D01*
X138026376Y-68842812D01*
X137958456Y-69006784D01*
X137859853Y-69154354D01*
X137734354Y-69279853D01*
X137586784Y-69378456D01*
X137422812Y-69446376D01*
X137273512Y-69476073D01*
X137248742Y-69481000D01*
X137071258Y-69481000D01*
X137046488Y-69476073D01*
X136897188Y-69446376D01*
X136733216Y-69378456D01*
X136585646Y-69279853D01*
X136460147Y-69154354D01*
X136361544Y-69006784D01*
X136293624Y-68842812D01*
X136259000Y-68668741D01*
X136259000Y-68491259D01*
X136293624Y-68317188D01*
X136361544Y-68153216D01*
X136460147Y-68005646D01*
X136585646Y-67880147D01*
X136733216Y-67781544D01*
X136897188Y-67713624D01*
X137046488Y-67683927D01*
X137071258Y-67679000D01*
X137248742Y-67679000D01*
X137273512Y-67683927D01*
G37*
G36*
X140601000Y-69481000D02*
G01*
X138799000Y-69481000D01*
X138799000Y-67679000D01*
X140601000Y-67679000D01*
X140601000Y-69481000D01*
G37*
G36*
X130441000Y-69481000D02*
G01*
X128639000Y-69481000D01*
X128639000Y-67679000D01*
X130441000Y-67679000D01*
X130441000Y-69481000D01*
G37*
G36*
X102501000Y-69481000D02*
G01*
X100699000Y-69481000D01*
X100699000Y-67679000D01*
X102501000Y-67679000D01*
X102501000Y-69481000D01*
G37*
G36*
X127113512Y-67683927D02*
G01*
X127262812Y-67713624D01*
X127426784Y-67781544D01*
X127574354Y-67880147D01*
X127699853Y-68005646D01*
X127798456Y-68153216D01*
X127866376Y-68317188D01*
X127901000Y-68491259D01*
X127901000Y-68668741D01*
X127866376Y-68842812D01*
X127798456Y-69006784D01*
X127699853Y-69154354D01*
X127574354Y-69279853D01*
X127426784Y-69378456D01*
X127262812Y-69446376D01*
X127113512Y-69476073D01*
X127088742Y-69481000D01*
X126911258Y-69481000D01*
X126886488Y-69476073D01*
X126737188Y-69446376D01*
X126573216Y-69378456D01*
X126425646Y-69279853D01*
X126300147Y-69154354D01*
X126201544Y-69006784D01*
X126133624Y-68842812D01*
X126099000Y-68668741D01*
X126099000Y-68491259D01*
X126133624Y-68317188D01*
X126201544Y-68153216D01*
X126300147Y-68005646D01*
X126425646Y-67880147D01*
X126573216Y-67781544D01*
X126737188Y-67713624D01*
X126886488Y-67683927D01*
X126911258Y-67679000D01*
X127088742Y-67679000D01*
X127113512Y-67683927D01*
G37*
G36*
X124573512Y-67683927D02*
G01*
X124722812Y-67713624D01*
X124886784Y-67781544D01*
X125034354Y-67880147D01*
X125159853Y-68005646D01*
X125258456Y-68153216D01*
X125326376Y-68317188D01*
X125361000Y-68491259D01*
X125361000Y-68668741D01*
X125326376Y-68842812D01*
X125258456Y-69006784D01*
X125159853Y-69154354D01*
X125034354Y-69279853D01*
X124886784Y-69378456D01*
X124722812Y-69446376D01*
X124573512Y-69476073D01*
X124548742Y-69481000D01*
X124371258Y-69481000D01*
X124346488Y-69476073D01*
X124197188Y-69446376D01*
X124033216Y-69378456D01*
X123885646Y-69279853D01*
X123760147Y-69154354D01*
X123661544Y-69006784D01*
X123593624Y-68842812D01*
X123559000Y-68668741D01*
X123559000Y-68491259D01*
X123593624Y-68317188D01*
X123661544Y-68153216D01*
X123760147Y-68005646D01*
X123885646Y-67880147D01*
X124033216Y-67781544D01*
X124197188Y-67713624D01*
X124346488Y-67683927D01*
X124371258Y-67679000D01*
X124548742Y-67679000D01*
X124573512Y-67683927D01*
G37*
G36*
X106793512Y-67683927D02*
G01*
X106942812Y-67713624D01*
X107106784Y-67781544D01*
X107254354Y-67880147D01*
X107379853Y-68005646D01*
X107478456Y-68153216D01*
X107546376Y-68317188D01*
X107581000Y-68491259D01*
X107581000Y-68668741D01*
X107546376Y-68842812D01*
X107478456Y-69006784D01*
X107379853Y-69154354D01*
X107254354Y-69279853D01*
X107106784Y-69378456D01*
X106942812Y-69446376D01*
X106793512Y-69476073D01*
X106768742Y-69481000D01*
X106591258Y-69481000D01*
X106566488Y-69476073D01*
X106417188Y-69446376D01*
X106253216Y-69378456D01*
X106105646Y-69279853D01*
X105980147Y-69154354D01*
X105881544Y-69006784D01*
X105813624Y-68842812D01*
X105779000Y-68668741D01*
X105779000Y-68491259D01*
X105813624Y-68317188D01*
X105881544Y-68153216D01*
X105980147Y-68005646D01*
X106105646Y-67880147D01*
X106253216Y-67781544D01*
X106417188Y-67713624D01*
X106566488Y-67683927D01*
X106591258Y-67679000D01*
X106768742Y-67679000D01*
X106793512Y-67683927D01*
G37*
G36*
X109333512Y-67683927D02*
G01*
X109482812Y-67713624D01*
X109646784Y-67781544D01*
X109794354Y-67880147D01*
X109919853Y-68005646D01*
X110018456Y-68153216D01*
X110086376Y-68317188D01*
X110121000Y-68491259D01*
X110121000Y-68668741D01*
X110086376Y-68842812D01*
X110018456Y-69006784D01*
X109919853Y-69154354D01*
X109794354Y-69279853D01*
X109646784Y-69378456D01*
X109482812Y-69446376D01*
X109333512Y-69476073D01*
X109308742Y-69481000D01*
X109131258Y-69481000D01*
X109106488Y-69476073D01*
X108957188Y-69446376D01*
X108793216Y-69378456D01*
X108645646Y-69279853D01*
X108520147Y-69154354D01*
X108421544Y-69006784D01*
X108353624Y-68842812D01*
X108319000Y-68668741D01*
X108319000Y-68491259D01*
X108353624Y-68317188D01*
X108421544Y-68153216D01*
X108520147Y-68005646D01*
X108645646Y-67880147D01*
X108793216Y-67781544D01*
X108957188Y-67713624D01*
X109106488Y-67683927D01*
X109131258Y-67679000D01*
X109308742Y-67679000D01*
X109333512Y-67683927D01*
G37*
G36*
X112661000Y-69481000D02*
G01*
X110859000Y-69481000D01*
X110859000Y-67679000D01*
X112661000Y-67679000D01*
X112661000Y-69481000D01*
G37*
G36*
X99173512Y-67683927D02*
G01*
X99322812Y-67713624D01*
X99486784Y-67781544D01*
X99634354Y-67880147D01*
X99759853Y-68005646D01*
X99858456Y-68153216D01*
X99926376Y-68317188D01*
X99961000Y-68491259D01*
X99961000Y-68668741D01*
X99926376Y-68842812D01*
X99858456Y-69006784D01*
X99759853Y-69154354D01*
X99634354Y-69279853D01*
X99486784Y-69378456D01*
X99322812Y-69446376D01*
X99173512Y-69476073D01*
X99148742Y-69481000D01*
X98971258Y-69481000D01*
X98946488Y-69476073D01*
X98797188Y-69446376D01*
X98633216Y-69378456D01*
X98485646Y-69279853D01*
X98360147Y-69154354D01*
X98261544Y-69006784D01*
X98193624Y-68842812D01*
X98159000Y-68668741D01*
X98159000Y-68491259D01*
X98193624Y-68317188D01*
X98261544Y-68153216D01*
X98360147Y-68005646D01*
X98485646Y-67880147D01*
X98633216Y-67781544D01*
X98797188Y-67713624D01*
X98946488Y-67683927D01*
X98971258Y-67679000D01*
X99148742Y-67679000D01*
X99173512Y-67683927D01*
G37*
G36*
X138543512Y-61333927D02*
G01*
X138692812Y-61363624D01*
X138856784Y-61431544D01*
X139004354Y-61530147D01*
X139129853Y-61655646D01*
X139228456Y-61803216D01*
X139296376Y-61967188D01*
X139331000Y-62141259D01*
X139331000Y-62318741D01*
X139296376Y-62492812D01*
X139228456Y-62656784D01*
X139129853Y-62804354D01*
X139004354Y-62929853D01*
X138856784Y-63028456D01*
X138692812Y-63096376D01*
X138543512Y-63126073D01*
X138518742Y-63131000D01*
X138341258Y-63131000D01*
X138316488Y-63126073D01*
X138167188Y-63096376D01*
X138003216Y-63028456D01*
X137855646Y-62929853D01*
X137730147Y-62804354D01*
X137631544Y-62656784D01*
X137563624Y-62492812D01*
X137529000Y-62318741D01*
X137529000Y-62141259D01*
X137563624Y-61967188D01*
X137631544Y-61803216D01*
X137730147Y-61655646D01*
X137855646Y-61530147D01*
X138003216Y-61431544D01*
X138167188Y-61363624D01*
X138316488Y-61333927D01*
X138341258Y-61329000D01*
X138518742Y-61329000D01*
X138543512Y-61333927D01*
G37*
G36*
X98691000Y-63131000D02*
G01*
X96889000Y-63131000D01*
X96889000Y-61329000D01*
X98691000Y-61329000D01*
X98691000Y-63131000D01*
G37*
G36*
X110603512Y-61333927D02*
G01*
X110752812Y-61363624D01*
X110916784Y-61431544D01*
X111064354Y-61530147D01*
X111189853Y-61655646D01*
X111288456Y-61803216D01*
X111356376Y-61967188D01*
X111391000Y-62141259D01*
X111391000Y-62318741D01*
X111356376Y-62492812D01*
X111288456Y-62656784D01*
X111189853Y-62804354D01*
X111064354Y-62929853D01*
X110916784Y-63028456D01*
X110752812Y-63096376D01*
X110603512Y-63126073D01*
X110578742Y-63131000D01*
X110401258Y-63131000D01*
X110376488Y-63126073D01*
X110227188Y-63096376D01*
X110063216Y-63028456D01*
X109915646Y-62929853D01*
X109790147Y-62804354D01*
X109691544Y-62656784D01*
X109623624Y-62492812D01*
X109589000Y-62318741D01*
X109589000Y-62141259D01*
X109623624Y-61967188D01*
X109691544Y-61803216D01*
X109790147Y-61655646D01*
X109915646Y-61530147D01*
X110063216Y-61431544D01*
X110227188Y-61363624D01*
X110376488Y-61333927D01*
X110401258Y-61329000D01*
X110578742Y-61329000D01*
X110603512Y-61333927D01*
G37*
G36*
X113143512Y-61333927D02*
G01*
X113292812Y-61363624D01*
X113456784Y-61431544D01*
X113604354Y-61530147D01*
X113729853Y-61655646D01*
X113828456Y-61803216D01*
X113896376Y-61967188D01*
X113931000Y-62141259D01*
X113931000Y-62318741D01*
X113896376Y-62492812D01*
X113828456Y-62656784D01*
X113729853Y-62804354D01*
X113604354Y-62929853D01*
X113456784Y-63028456D01*
X113292812Y-63096376D01*
X113143512Y-63126073D01*
X113118742Y-63131000D01*
X112941258Y-63131000D01*
X112916488Y-63126073D01*
X112767188Y-63096376D01*
X112603216Y-63028456D01*
X112455646Y-62929853D01*
X112330147Y-62804354D01*
X112231544Y-62656784D01*
X112163624Y-62492812D01*
X112129000Y-62318741D01*
X112129000Y-62141259D01*
X112163624Y-61967188D01*
X112231544Y-61803216D01*
X112330147Y-61655646D01*
X112455646Y-61530147D01*
X112603216Y-61431544D01*
X112767188Y-61363624D01*
X112916488Y-61333927D01*
X112941258Y-61329000D01*
X113118742Y-61329000D01*
X113143512Y-61333927D01*
G37*
G36*
X116471000Y-63131000D02*
G01*
X114669000Y-63131000D01*
X114669000Y-61329000D01*
X116471000Y-61329000D01*
X116471000Y-63131000D01*
G37*
G36*
X120763512Y-61333927D02*
G01*
X120912812Y-61363624D01*
X121076784Y-61431544D01*
X121224354Y-61530147D01*
X121349853Y-61655646D01*
X121448456Y-61803216D01*
X121516376Y-61967188D01*
X121551000Y-62141259D01*
X121551000Y-62318741D01*
X121516376Y-62492812D01*
X121448456Y-62656784D01*
X121349853Y-62804354D01*
X121224354Y-62929853D01*
X121076784Y-63028456D01*
X120912812Y-63096376D01*
X120763512Y-63126073D01*
X120738742Y-63131000D01*
X120561258Y-63131000D01*
X120536488Y-63126073D01*
X120387188Y-63096376D01*
X120223216Y-63028456D01*
X120075646Y-62929853D01*
X119950147Y-62804354D01*
X119851544Y-62656784D01*
X119783624Y-62492812D01*
X119749000Y-62318741D01*
X119749000Y-62141259D01*
X119783624Y-61967188D01*
X119851544Y-61803216D01*
X119950147Y-61655646D01*
X120075646Y-61530147D01*
X120223216Y-61431544D01*
X120387188Y-61363624D01*
X120536488Y-61333927D01*
X120561258Y-61329000D01*
X120738742Y-61329000D01*
X120763512Y-61333927D01*
G37*
G36*
X123303512Y-61333927D02*
G01*
X123452812Y-61363624D01*
X123616784Y-61431544D01*
X123764354Y-61530147D01*
X123889853Y-61655646D01*
X123988456Y-61803216D01*
X124056376Y-61967188D01*
X124091000Y-62141259D01*
X124091000Y-62318741D01*
X124056376Y-62492812D01*
X123988456Y-62656784D01*
X123889853Y-62804354D01*
X123764354Y-62929853D01*
X123616784Y-63028456D01*
X123452812Y-63096376D01*
X123303512Y-63126073D01*
X123278742Y-63131000D01*
X123101258Y-63131000D01*
X123076488Y-63126073D01*
X122927188Y-63096376D01*
X122763216Y-63028456D01*
X122615646Y-62929853D01*
X122490147Y-62804354D01*
X122391544Y-62656784D01*
X122323624Y-62492812D01*
X122289000Y-62318741D01*
X122289000Y-62141259D01*
X122323624Y-61967188D01*
X122391544Y-61803216D01*
X122490147Y-61655646D01*
X122615646Y-61530147D01*
X122763216Y-61431544D01*
X122927188Y-61363624D01*
X123076488Y-61333927D01*
X123101258Y-61329000D01*
X123278742Y-61329000D01*
X123303512Y-61333927D01*
G37*
G36*
X126631000Y-63131000D02*
G01*
X124829000Y-63131000D01*
X124829000Y-61329000D01*
X126631000Y-61329000D01*
X126631000Y-63131000D01*
G37*
G36*
X141083512Y-61333927D02*
G01*
X141232812Y-61363624D01*
X141396784Y-61431544D01*
X141544354Y-61530147D01*
X141669853Y-61655646D01*
X141768456Y-61803216D01*
X141836376Y-61967188D01*
X141871000Y-62141259D01*
X141871000Y-62318741D01*
X141836376Y-62492812D01*
X141768456Y-62656784D01*
X141669853Y-62804354D01*
X141544354Y-62929853D01*
X141396784Y-63028456D01*
X141232812Y-63096376D01*
X141083512Y-63126073D01*
X141058742Y-63131000D01*
X140881258Y-63131000D01*
X140856488Y-63126073D01*
X140707188Y-63096376D01*
X140543216Y-63028456D01*
X140395646Y-62929853D01*
X140270147Y-62804354D01*
X140171544Y-62656784D01*
X140103624Y-62492812D01*
X140069000Y-62318741D01*
X140069000Y-62141259D01*
X140103624Y-61967188D01*
X140171544Y-61803216D01*
X140270147Y-61655646D01*
X140395646Y-61530147D01*
X140543216Y-61431544D01*
X140707188Y-61363624D01*
X140856488Y-61333927D01*
X140881258Y-61329000D01*
X141058742Y-61329000D01*
X141083512Y-61333927D01*
G37*
G36*
X148703512Y-61333927D02*
G01*
X148852812Y-61363624D01*
X149016784Y-61431544D01*
X149164354Y-61530147D01*
X149289853Y-61655646D01*
X149388456Y-61803216D01*
X149456376Y-61967188D01*
X149491000Y-62141259D01*
X149491000Y-62318741D01*
X149456376Y-62492812D01*
X149388456Y-62656784D01*
X149289853Y-62804354D01*
X149164354Y-62929853D01*
X149016784Y-63028456D01*
X148852812Y-63096376D01*
X148703512Y-63126073D01*
X148678742Y-63131000D01*
X148501258Y-63131000D01*
X148476488Y-63126073D01*
X148327188Y-63096376D01*
X148163216Y-63028456D01*
X148015646Y-62929853D01*
X147890147Y-62804354D01*
X147791544Y-62656784D01*
X147723624Y-62492812D01*
X147689000Y-62318741D01*
X147689000Y-62141259D01*
X147723624Y-61967188D01*
X147791544Y-61803216D01*
X147890147Y-61655646D01*
X148015646Y-61530147D01*
X148163216Y-61431544D01*
X148327188Y-61363624D01*
X148476488Y-61333927D01*
X148501258Y-61329000D01*
X148678742Y-61329000D01*
X148703512Y-61333927D01*
G37*
G36*
X151243512Y-61333927D02*
G01*
X151392812Y-61363624D01*
X151556784Y-61431544D01*
X151704354Y-61530147D01*
X151829853Y-61655646D01*
X151928456Y-61803216D01*
X151996376Y-61967188D01*
X152031000Y-62141259D01*
X152031000Y-62318741D01*
X151996376Y-62492812D01*
X151928456Y-62656784D01*
X151829853Y-62804354D01*
X151704354Y-62929853D01*
X151556784Y-63028456D01*
X151392812Y-63096376D01*
X151243512Y-63126073D01*
X151218742Y-63131000D01*
X151041258Y-63131000D01*
X151016488Y-63126073D01*
X150867188Y-63096376D01*
X150703216Y-63028456D01*
X150555646Y-62929853D01*
X150430147Y-62804354D01*
X150331544Y-62656784D01*
X150263624Y-62492812D01*
X150229000Y-62318741D01*
X150229000Y-62141259D01*
X150263624Y-61967188D01*
X150331544Y-61803216D01*
X150430147Y-61655646D01*
X150555646Y-61530147D01*
X150703216Y-61431544D01*
X150867188Y-61363624D01*
X151016488Y-61333927D01*
X151041258Y-61329000D01*
X151218742Y-61329000D01*
X151243512Y-61333927D01*
G37*
G36*
X154571000Y-63131000D02*
G01*
X152769000Y-63131000D01*
X152769000Y-61329000D01*
X154571000Y-61329000D01*
X154571000Y-63131000D01*
G37*
G36*
X88531000Y-63131000D02*
G01*
X86729000Y-63131000D01*
X86729000Y-61329000D01*
X88531000Y-61329000D01*
X88531000Y-63131000D01*
G37*
G36*
X85203512Y-61333927D02*
G01*
X85352812Y-61363624D01*
X85516784Y-61431544D01*
X85664354Y-61530147D01*
X85789853Y-61655646D01*
X85888456Y-61803216D01*
X85956376Y-61967188D01*
X85991000Y-62141259D01*
X85991000Y-62318741D01*
X85956376Y-62492812D01*
X85888456Y-62656784D01*
X85789853Y-62804354D01*
X85664354Y-62929853D01*
X85516784Y-63028456D01*
X85352812Y-63096376D01*
X85203512Y-63126073D01*
X85178742Y-63131000D01*
X85001258Y-63131000D01*
X84976488Y-63126073D01*
X84827188Y-63096376D01*
X84663216Y-63028456D01*
X84515646Y-62929853D01*
X84390147Y-62804354D01*
X84291544Y-62656784D01*
X84223624Y-62492812D01*
X84189000Y-62318741D01*
X84189000Y-62141259D01*
X84223624Y-61967188D01*
X84291544Y-61803216D01*
X84390147Y-61655646D01*
X84515646Y-61530147D01*
X84663216Y-61431544D01*
X84827188Y-61363624D01*
X84976488Y-61333927D01*
X85001258Y-61329000D01*
X85178742Y-61329000D01*
X85203512Y-61333927D01*
G37*
G36*
X82663512Y-61333927D02*
G01*
X82812812Y-61363624D01*
X82976784Y-61431544D01*
X83124354Y-61530147D01*
X83249853Y-61655646D01*
X83348456Y-61803216D01*
X83416376Y-61967188D01*
X83451000Y-62141259D01*
X83451000Y-62318741D01*
X83416376Y-62492812D01*
X83348456Y-62656784D01*
X83249853Y-62804354D01*
X83124354Y-62929853D01*
X82976784Y-63028456D01*
X82812812Y-63096376D01*
X82663512Y-63126073D01*
X82638742Y-63131000D01*
X82461258Y-63131000D01*
X82436488Y-63126073D01*
X82287188Y-63096376D01*
X82123216Y-63028456D01*
X81975646Y-62929853D01*
X81850147Y-62804354D01*
X81751544Y-62656784D01*
X81683624Y-62492812D01*
X81649000Y-62318741D01*
X81649000Y-62141259D01*
X81683624Y-61967188D01*
X81751544Y-61803216D01*
X81850147Y-61655646D01*
X81975646Y-61530147D01*
X82123216Y-61431544D01*
X82287188Y-61363624D01*
X82436488Y-61333927D01*
X82461258Y-61329000D01*
X82638742Y-61329000D01*
X82663512Y-61333927D01*
G37*
G36*
X95363512Y-61333927D02*
G01*
X95512812Y-61363624D01*
X95676784Y-61431544D01*
X95824354Y-61530147D01*
X95949853Y-61655646D01*
X96048456Y-61803216D01*
X96116376Y-61967188D01*
X96151000Y-62141259D01*
X96151000Y-62318741D01*
X96116376Y-62492812D01*
X96048456Y-62656784D01*
X95949853Y-62804354D01*
X95824354Y-62929853D01*
X95676784Y-63028456D01*
X95512812Y-63096376D01*
X95363512Y-63126073D01*
X95338742Y-63131000D01*
X95161258Y-63131000D01*
X95136488Y-63126073D01*
X94987188Y-63096376D01*
X94823216Y-63028456D01*
X94675646Y-62929853D01*
X94550147Y-62804354D01*
X94451544Y-62656784D01*
X94383624Y-62492812D01*
X94349000Y-62318741D01*
X94349000Y-62141259D01*
X94383624Y-61967188D01*
X94451544Y-61803216D01*
X94550147Y-61655646D01*
X94675646Y-61530147D01*
X94823216Y-61431544D01*
X94987188Y-61363624D01*
X95136488Y-61333927D01*
X95161258Y-61329000D01*
X95338742Y-61329000D01*
X95363512Y-61333927D01*
G37*
G36*
X92823512Y-61333927D02*
G01*
X92972812Y-61363624D01*
X93136784Y-61431544D01*
X93284354Y-61530147D01*
X93409853Y-61655646D01*
X93508456Y-61803216D01*
X93576376Y-61967188D01*
X93611000Y-62141259D01*
X93611000Y-62318741D01*
X93576376Y-62492812D01*
X93508456Y-62656784D01*
X93409853Y-62804354D01*
X93284354Y-62929853D01*
X93136784Y-63028456D01*
X92972812Y-63096376D01*
X92823512Y-63126073D01*
X92798742Y-63131000D01*
X92621258Y-63131000D01*
X92596488Y-63126073D01*
X92447188Y-63096376D01*
X92283216Y-63028456D01*
X92135646Y-62929853D01*
X92010147Y-62804354D01*
X91911544Y-62656784D01*
X91843624Y-62492812D01*
X91809000Y-62318741D01*
X91809000Y-62141259D01*
X91843624Y-61967188D01*
X91911544Y-61803216D01*
X92010147Y-61655646D01*
X92135646Y-61530147D01*
X92283216Y-61431544D01*
X92447188Y-61363624D01*
X92596488Y-61333927D01*
X92621258Y-61329000D01*
X92798742Y-61329000D01*
X92823512Y-61333927D01*
G37*
G36*
X144411000Y-63131000D02*
G01*
X142609000Y-63131000D01*
X142609000Y-61329000D01*
X144411000Y-61329000D01*
X144411000Y-63131000D01*
G37*
G36*
X95811000Y-56243000D02*
G01*
X93289000Y-56243000D01*
X93289000Y-51061000D01*
X95811000Y-51061000D01*
X95811000Y-56243000D01*
G37*
G36*
X87051000Y-56243000D02*
G01*
X84529000Y-56243000D01*
X84529000Y-51061000D01*
X87051000Y-51061000D01*
X87051000Y-56243000D01*
G37*
G36*
X142931000Y-56243000D02*
G01*
X140409000Y-56243000D01*
X140409000Y-51061000D01*
X142931000Y-51061000D01*
X142931000Y-56243000D01*
G37*
G36*
X151691000Y-56243000D02*
G01*
X149169000Y-56243000D01*
X149169000Y-51061000D01*
X151691000Y-51061000D01*
X151691000Y-56243000D01*
G37*
M02*
