G04 #@! TF.GenerationSoftware,KiCad,Pcbnew,(5.1.5-0)*
G04 #@! TF.CreationDate,2020-04-02T18:54:50-07:00*
G04 #@! TF.ProjectId,Attenuator,41747465-6e75-4617-946f-722e6b696361,rev?*
G04 #@! TF.SameCoordinates,Original*
G04 #@! TF.FileFunction,Legend,Top*
G04 #@! TF.FilePolarity,Positive*
%FSLAX46Y46*%
G04 Gerber Fmt 4.6, Leading zero omitted, Abs format (unit mm)*
G04 Created by KiCad (PCBNEW (5.1.5-0)) date 2020-04-02 18:54:50*
%MOMM*%
%LPD*%
G04 APERTURE LIST*
%ADD10C,0.150000*%
%ADD11C,0.120000*%
G04 APERTURE END LIST*
D10*
X106562380Y-54316380D02*
X106562380Y-55030666D01*
X106514761Y-55173523D01*
X106419523Y-55268761D01*
X106276666Y-55316380D01*
X106181428Y-55316380D01*
X107181428Y-55316380D02*
X107086190Y-55268761D01*
X107038571Y-55221142D01*
X106990952Y-55125904D01*
X106990952Y-54840190D01*
X107038571Y-54744952D01*
X107086190Y-54697333D01*
X107181428Y-54649714D01*
X107324285Y-54649714D01*
X107419523Y-54697333D01*
X107467142Y-54744952D01*
X107514761Y-54840190D01*
X107514761Y-55125904D01*
X107467142Y-55221142D01*
X107419523Y-55268761D01*
X107324285Y-55316380D01*
X107181428Y-55316380D01*
X107943333Y-55316380D02*
X107943333Y-54649714D01*
X107943333Y-54840190D02*
X107990952Y-54744952D01*
X108038571Y-54697333D01*
X108133809Y-54649714D01*
X108229047Y-54649714D01*
X108990952Y-55316380D02*
X108990952Y-54316380D01*
X108990952Y-55268761D02*
X108895714Y-55316380D01*
X108705238Y-55316380D01*
X108610000Y-55268761D01*
X108562380Y-55221142D01*
X108514761Y-55125904D01*
X108514761Y-54840190D01*
X108562380Y-54744952D01*
X108610000Y-54697333D01*
X108705238Y-54649714D01*
X108895714Y-54649714D01*
X108990952Y-54697333D01*
X109371904Y-54649714D02*
X109610000Y-55316380D01*
X109848095Y-54649714D02*
X109610000Y-55316380D01*
X109514761Y-55554476D01*
X109467142Y-55602095D01*
X109371904Y-55649714D01*
X110229047Y-54649714D02*
X110229047Y-55316380D01*
X110229047Y-54744952D02*
X110276666Y-54697333D01*
X110371904Y-54649714D01*
X110514761Y-54649714D01*
X110610000Y-54697333D01*
X110657619Y-54792571D01*
X110657619Y-55316380D01*
X111800476Y-54316380D02*
X112038571Y-55316380D01*
X112229047Y-54602095D01*
X112419523Y-55316380D01*
X112657619Y-54316380D01*
X113467142Y-55316380D02*
X113467142Y-54792571D01*
X113419523Y-54697333D01*
X113324285Y-54649714D01*
X113133809Y-54649714D01*
X113038571Y-54697333D01*
X113467142Y-55268761D02*
X113371904Y-55316380D01*
X113133809Y-55316380D01*
X113038571Y-55268761D01*
X112990952Y-55173523D01*
X112990952Y-55078285D01*
X113038571Y-54983047D01*
X113133809Y-54935428D01*
X113371904Y-54935428D01*
X113467142Y-54887809D01*
X113800476Y-54649714D02*
X114181428Y-54649714D01*
X113943333Y-54316380D02*
X113943333Y-55173523D01*
X113990952Y-55268761D01*
X114086190Y-55316380D01*
X114181428Y-55316380D01*
X114514761Y-55316380D02*
X114514761Y-54316380D01*
X114610000Y-54935428D02*
X114895714Y-55316380D01*
X114895714Y-54649714D02*
X114514761Y-55030666D01*
X115324285Y-55316380D02*
X115324285Y-54649714D01*
X115324285Y-54316380D02*
X115276666Y-54364000D01*
X115324285Y-54411619D01*
X115371904Y-54364000D01*
X115324285Y-54316380D01*
X115324285Y-54411619D01*
X115800476Y-54649714D02*
X115800476Y-55316380D01*
X115800476Y-54744952D02*
X115848095Y-54697333D01*
X115943333Y-54649714D01*
X116086190Y-54649714D01*
X116181428Y-54697333D01*
X116229047Y-54792571D01*
X116229047Y-55316380D01*
X116657619Y-55268761D02*
X116752857Y-55316380D01*
X116943333Y-55316380D01*
X117038571Y-55268761D01*
X117086190Y-55173523D01*
X117086190Y-55125904D01*
X117038571Y-55030666D01*
X116943333Y-54983047D01*
X116800476Y-54983047D01*
X116705238Y-54935428D01*
X116657619Y-54840190D01*
X116657619Y-54792571D01*
X116705238Y-54697333D01*
X116800476Y-54649714D01*
X116943333Y-54649714D01*
X117038571Y-54697333D01*
X119086190Y-55316380D02*
X119038571Y-55316380D01*
X118943333Y-55268761D01*
X118800476Y-55125904D01*
X118562380Y-54840190D01*
X118467142Y-54697333D01*
X118419523Y-54554476D01*
X118419523Y-54459238D01*
X118467142Y-54364000D01*
X118562380Y-54316380D01*
X118610000Y-54316380D01*
X118705238Y-54364000D01*
X118752857Y-54459238D01*
X118752857Y-54506857D01*
X118705238Y-54602095D01*
X118657619Y-54649714D01*
X118371904Y-54840190D01*
X118324285Y-54887809D01*
X118276666Y-54983047D01*
X118276666Y-55125904D01*
X118324285Y-55221142D01*
X118371904Y-55268761D01*
X118467142Y-55316380D01*
X118610000Y-55316380D01*
X118705238Y-55268761D01*
X118752857Y-55221142D01*
X118895714Y-55030666D01*
X118943333Y-54887809D01*
X118943333Y-54792571D01*
X120562380Y-54316380D02*
X120562380Y-55030666D01*
X120514761Y-55173523D01*
X120419523Y-55268761D01*
X120276666Y-55316380D01*
X120181428Y-55316380D01*
X121181428Y-55316380D02*
X121086190Y-55268761D01*
X121038571Y-55221142D01*
X120990952Y-55125904D01*
X120990952Y-54840190D01*
X121038571Y-54744952D01*
X121086190Y-54697333D01*
X121181428Y-54649714D01*
X121324285Y-54649714D01*
X121419523Y-54697333D01*
X121467142Y-54744952D01*
X121514761Y-54840190D01*
X121514761Y-55125904D01*
X121467142Y-55221142D01*
X121419523Y-55268761D01*
X121324285Y-55316380D01*
X121181428Y-55316380D01*
X121895714Y-55268761D02*
X121990952Y-55316380D01*
X122181428Y-55316380D01*
X122276666Y-55268761D01*
X122324285Y-55173523D01*
X122324285Y-55125904D01*
X122276666Y-55030666D01*
X122181428Y-54983047D01*
X122038571Y-54983047D01*
X121943333Y-54935428D01*
X121895714Y-54840190D01*
X121895714Y-54792571D01*
X121943333Y-54697333D01*
X122038571Y-54649714D01*
X122181428Y-54649714D01*
X122276666Y-54697333D01*
X122752857Y-55316380D02*
X122752857Y-54316380D01*
X123181428Y-55316380D02*
X123181428Y-54792571D01*
X123133809Y-54697333D01*
X123038571Y-54649714D01*
X122895714Y-54649714D01*
X122800476Y-54697333D01*
X122752857Y-54744952D01*
X124086190Y-54649714D02*
X124086190Y-55316380D01*
X123657619Y-54649714D02*
X123657619Y-55173523D01*
X123705238Y-55268761D01*
X123800476Y-55316380D01*
X123943333Y-55316380D01*
X124038571Y-55268761D01*
X124086190Y-55221142D01*
X124990952Y-55316380D02*
X124990952Y-54792571D01*
X124943333Y-54697333D01*
X124848095Y-54649714D01*
X124657619Y-54649714D01*
X124562380Y-54697333D01*
X124990952Y-55268761D02*
X124895714Y-55316380D01*
X124657619Y-55316380D01*
X124562380Y-55268761D01*
X124514761Y-55173523D01*
X124514761Y-55078285D01*
X124562380Y-54983047D01*
X124657619Y-54935428D01*
X124895714Y-54935428D01*
X124990952Y-54887809D01*
X126181428Y-55268761D02*
X126324285Y-55316380D01*
X126562380Y-55316380D01*
X126657619Y-55268761D01*
X126705238Y-55221142D01*
X126752857Y-55125904D01*
X126752857Y-55030666D01*
X126705238Y-54935428D01*
X126657619Y-54887809D01*
X126562380Y-54840190D01*
X126371904Y-54792571D01*
X126276666Y-54744952D01*
X126229047Y-54697333D01*
X126181428Y-54602095D01*
X126181428Y-54506857D01*
X126229047Y-54411619D01*
X126276666Y-54364000D01*
X126371904Y-54316380D01*
X126610000Y-54316380D01*
X126752857Y-54364000D01*
X127181428Y-55316380D02*
X127181428Y-54649714D01*
X127181428Y-54316380D02*
X127133809Y-54364000D01*
X127181428Y-54411619D01*
X127229047Y-54364000D01*
X127181428Y-54316380D01*
X127181428Y-54411619D01*
X127800476Y-55316380D02*
X127705238Y-55268761D01*
X127657619Y-55173523D01*
X127657619Y-54316380D01*
X128086190Y-54649714D02*
X128324285Y-55316380D01*
X128562380Y-54649714D01*
X129324285Y-55268761D02*
X129229047Y-55316380D01*
X129038571Y-55316380D01*
X128943333Y-55268761D01*
X128895714Y-55173523D01*
X128895714Y-54792571D01*
X128943333Y-54697333D01*
X129038571Y-54649714D01*
X129229047Y-54649714D01*
X129324285Y-54697333D01*
X129371904Y-54792571D01*
X129371904Y-54887809D01*
X128895714Y-54983047D01*
X129800476Y-55316380D02*
X129800476Y-54649714D01*
X129800476Y-54840190D02*
X129848095Y-54744952D01*
X129895714Y-54697333D01*
X129990952Y-54649714D01*
X130086190Y-54649714D01*
X143740476Y-66492380D02*
X143740476Y-65492380D01*
X143740476Y-65873333D02*
X143835714Y-65825714D01*
X144026190Y-65825714D01*
X144121428Y-65873333D01*
X144169047Y-65920952D01*
X144216666Y-66016190D01*
X144216666Y-66301904D01*
X144169047Y-66397142D01*
X144121428Y-66444761D01*
X144026190Y-66492380D01*
X143835714Y-66492380D01*
X143740476Y-66444761D01*
X144550000Y-65825714D02*
X144788095Y-66492380D01*
X145026190Y-65825714D02*
X144788095Y-66492380D01*
X144692857Y-66730476D01*
X144645238Y-66778095D01*
X144550000Y-66825714D01*
X145407142Y-65825714D02*
X145407142Y-66825714D01*
X145407142Y-65873333D02*
X145502380Y-65825714D01*
X145692857Y-65825714D01*
X145788095Y-65873333D01*
X145835714Y-65920952D01*
X145883333Y-66016190D01*
X145883333Y-66301904D01*
X145835714Y-66397142D01*
X145788095Y-66444761D01*
X145692857Y-66492380D01*
X145502380Y-66492380D01*
X145407142Y-66444761D01*
X146740476Y-66492380D02*
X146740476Y-65968571D01*
X146692857Y-65873333D01*
X146597619Y-65825714D01*
X146407142Y-65825714D01*
X146311904Y-65873333D01*
X146740476Y-66444761D02*
X146645238Y-66492380D01*
X146407142Y-66492380D01*
X146311904Y-66444761D01*
X146264285Y-66349523D01*
X146264285Y-66254285D01*
X146311904Y-66159047D01*
X146407142Y-66111428D01*
X146645238Y-66111428D01*
X146740476Y-66063809D01*
X147169047Y-66444761D02*
X147264285Y-66492380D01*
X147454761Y-66492380D01*
X147550000Y-66444761D01*
X147597619Y-66349523D01*
X147597619Y-66301904D01*
X147550000Y-66206666D01*
X147454761Y-66159047D01*
X147311904Y-66159047D01*
X147216666Y-66111428D01*
X147169047Y-66016190D01*
X147169047Y-65968571D01*
X147216666Y-65873333D01*
X147311904Y-65825714D01*
X147454761Y-65825714D01*
X147550000Y-65873333D01*
X147978571Y-66444761D02*
X148073809Y-66492380D01*
X148264285Y-66492380D01*
X148359523Y-66444761D01*
X148407142Y-66349523D01*
X148407142Y-66301904D01*
X148359523Y-66206666D01*
X148264285Y-66159047D01*
X148121428Y-66159047D01*
X148026190Y-66111428D01*
X147978571Y-66016190D01*
X147978571Y-65968571D01*
X148026190Y-65873333D01*
X148121428Y-65825714D01*
X148264285Y-65825714D01*
X148359523Y-65873333D01*
X152558904Y-60269380D02*
X152558904Y-59745571D01*
X152511285Y-59650333D01*
X152416047Y-59602714D01*
X152225571Y-59602714D01*
X152130333Y-59650333D01*
X152558904Y-60221761D02*
X152463666Y-60269380D01*
X152225571Y-60269380D01*
X152130333Y-60221761D01*
X152082714Y-60126523D01*
X152082714Y-60031285D01*
X152130333Y-59936047D01*
X152225571Y-59888428D01*
X152463666Y-59888428D01*
X152558904Y-59840809D01*
X152892238Y-59602714D02*
X153273190Y-59602714D01*
X153035095Y-59269380D02*
X153035095Y-60126523D01*
X153082714Y-60221761D01*
X153177952Y-60269380D01*
X153273190Y-60269380D01*
X153463666Y-59602714D02*
X153844619Y-59602714D01*
X153606523Y-59269380D02*
X153606523Y-60126523D01*
X153654142Y-60221761D01*
X153749380Y-60269380D01*
X153844619Y-60269380D01*
X154558904Y-60221761D02*
X154463666Y-60269380D01*
X154273190Y-60269380D01*
X154177952Y-60221761D01*
X154130333Y-60126523D01*
X154130333Y-59745571D01*
X154177952Y-59650333D01*
X154273190Y-59602714D01*
X154463666Y-59602714D01*
X154558904Y-59650333D01*
X154606523Y-59745571D01*
X154606523Y-59840809D01*
X154130333Y-59936047D01*
X155035095Y-59602714D02*
X155035095Y-60269380D01*
X155035095Y-59697952D02*
X155082714Y-59650333D01*
X155177952Y-59602714D01*
X155320809Y-59602714D01*
X155416047Y-59650333D01*
X155463666Y-59745571D01*
X155463666Y-60269380D01*
X137572904Y-60015380D02*
X137572904Y-59491571D01*
X137525285Y-59396333D01*
X137430047Y-59348714D01*
X137239571Y-59348714D01*
X137144333Y-59396333D01*
X137572904Y-59967761D02*
X137477666Y-60015380D01*
X137239571Y-60015380D01*
X137144333Y-59967761D01*
X137096714Y-59872523D01*
X137096714Y-59777285D01*
X137144333Y-59682047D01*
X137239571Y-59634428D01*
X137477666Y-59634428D01*
X137572904Y-59586809D01*
X137906238Y-59348714D02*
X138287190Y-59348714D01*
X138049095Y-59015380D02*
X138049095Y-59872523D01*
X138096714Y-59967761D01*
X138191952Y-60015380D01*
X138287190Y-60015380D01*
X138477666Y-59348714D02*
X138858619Y-59348714D01*
X138620523Y-59015380D02*
X138620523Y-59872523D01*
X138668142Y-59967761D01*
X138763380Y-60015380D01*
X138858619Y-60015380D01*
X139572904Y-59967761D02*
X139477666Y-60015380D01*
X139287190Y-60015380D01*
X139191952Y-59967761D01*
X139144333Y-59872523D01*
X139144333Y-59491571D01*
X139191952Y-59396333D01*
X139287190Y-59348714D01*
X139477666Y-59348714D01*
X139572904Y-59396333D01*
X139620523Y-59491571D01*
X139620523Y-59586809D01*
X139144333Y-59682047D01*
X140049095Y-59348714D02*
X140049095Y-60015380D01*
X140049095Y-59443952D02*
X140096714Y-59396333D01*
X140191952Y-59348714D01*
X140334809Y-59348714D01*
X140430047Y-59396333D01*
X140477666Y-59491571D01*
X140477666Y-60015380D01*
X129897476Y-66238380D02*
X129897476Y-65238380D01*
X129897476Y-65619333D02*
X129992714Y-65571714D01*
X130183190Y-65571714D01*
X130278428Y-65619333D01*
X130326047Y-65666952D01*
X130373666Y-65762190D01*
X130373666Y-66047904D01*
X130326047Y-66143142D01*
X130278428Y-66190761D01*
X130183190Y-66238380D01*
X129992714Y-66238380D01*
X129897476Y-66190761D01*
X130707000Y-65571714D02*
X130945095Y-66238380D01*
X131183190Y-65571714D02*
X130945095Y-66238380D01*
X130849857Y-66476476D01*
X130802238Y-66524095D01*
X130707000Y-66571714D01*
X131564142Y-65571714D02*
X131564142Y-66571714D01*
X131564142Y-65619333D02*
X131659380Y-65571714D01*
X131849857Y-65571714D01*
X131945095Y-65619333D01*
X131992714Y-65666952D01*
X132040333Y-65762190D01*
X132040333Y-66047904D01*
X131992714Y-66143142D01*
X131945095Y-66190761D01*
X131849857Y-66238380D01*
X131659380Y-66238380D01*
X131564142Y-66190761D01*
X132897476Y-66238380D02*
X132897476Y-65714571D01*
X132849857Y-65619333D01*
X132754619Y-65571714D01*
X132564142Y-65571714D01*
X132468904Y-65619333D01*
X132897476Y-66190761D02*
X132802238Y-66238380D01*
X132564142Y-66238380D01*
X132468904Y-66190761D01*
X132421285Y-66095523D01*
X132421285Y-66000285D01*
X132468904Y-65905047D01*
X132564142Y-65857428D01*
X132802238Y-65857428D01*
X132897476Y-65809809D01*
X133326047Y-66190761D02*
X133421285Y-66238380D01*
X133611761Y-66238380D01*
X133707000Y-66190761D01*
X133754619Y-66095523D01*
X133754619Y-66047904D01*
X133707000Y-65952666D01*
X133611761Y-65905047D01*
X133468904Y-65905047D01*
X133373666Y-65857428D01*
X133326047Y-65762190D01*
X133326047Y-65714571D01*
X133373666Y-65619333D01*
X133468904Y-65571714D01*
X133611761Y-65571714D01*
X133707000Y-65619333D01*
X134135571Y-66190761D02*
X134230809Y-66238380D01*
X134421285Y-66238380D01*
X134516523Y-66190761D01*
X134564142Y-66095523D01*
X134564142Y-66047904D01*
X134516523Y-65952666D01*
X134421285Y-65905047D01*
X134278428Y-65905047D01*
X134183190Y-65857428D01*
X134135571Y-65762190D01*
X134135571Y-65714571D01*
X134183190Y-65619333D01*
X134278428Y-65571714D01*
X134421285Y-65571714D01*
X134516523Y-65619333D01*
X115673476Y-59761380D02*
X115673476Y-58761380D01*
X115673476Y-59142333D02*
X115768714Y-59094714D01*
X115959190Y-59094714D01*
X116054428Y-59142333D01*
X116102047Y-59189952D01*
X116149666Y-59285190D01*
X116149666Y-59570904D01*
X116102047Y-59666142D01*
X116054428Y-59713761D01*
X115959190Y-59761380D01*
X115768714Y-59761380D01*
X115673476Y-59713761D01*
X116483000Y-59094714D02*
X116721095Y-59761380D01*
X116959190Y-59094714D02*
X116721095Y-59761380D01*
X116625857Y-59999476D01*
X116578238Y-60047095D01*
X116483000Y-60094714D01*
X117340142Y-59094714D02*
X117340142Y-60094714D01*
X117340142Y-59142333D02*
X117435380Y-59094714D01*
X117625857Y-59094714D01*
X117721095Y-59142333D01*
X117768714Y-59189952D01*
X117816333Y-59285190D01*
X117816333Y-59570904D01*
X117768714Y-59666142D01*
X117721095Y-59713761D01*
X117625857Y-59761380D01*
X117435380Y-59761380D01*
X117340142Y-59713761D01*
X118673476Y-59761380D02*
X118673476Y-59237571D01*
X118625857Y-59142333D01*
X118530619Y-59094714D01*
X118340142Y-59094714D01*
X118244904Y-59142333D01*
X118673476Y-59713761D02*
X118578238Y-59761380D01*
X118340142Y-59761380D01*
X118244904Y-59713761D01*
X118197285Y-59618523D01*
X118197285Y-59523285D01*
X118244904Y-59428047D01*
X118340142Y-59380428D01*
X118578238Y-59380428D01*
X118673476Y-59332809D01*
X119102047Y-59713761D02*
X119197285Y-59761380D01*
X119387761Y-59761380D01*
X119483000Y-59713761D01*
X119530619Y-59618523D01*
X119530619Y-59570904D01*
X119483000Y-59475666D01*
X119387761Y-59428047D01*
X119244904Y-59428047D01*
X119149666Y-59380428D01*
X119102047Y-59285190D01*
X119102047Y-59237571D01*
X119149666Y-59142333D01*
X119244904Y-59094714D01*
X119387761Y-59094714D01*
X119483000Y-59142333D01*
X119911571Y-59713761D02*
X120006809Y-59761380D01*
X120197285Y-59761380D01*
X120292523Y-59713761D01*
X120340142Y-59618523D01*
X120340142Y-59570904D01*
X120292523Y-59475666D01*
X120197285Y-59428047D01*
X120054428Y-59428047D01*
X119959190Y-59380428D01*
X119911571Y-59285190D01*
X119911571Y-59237571D01*
X119959190Y-59142333D01*
X120054428Y-59094714D01*
X120197285Y-59094714D01*
X120292523Y-59142333D01*
X123602904Y-59888380D02*
X123602904Y-59364571D01*
X123555285Y-59269333D01*
X123460047Y-59221714D01*
X123269571Y-59221714D01*
X123174333Y-59269333D01*
X123602904Y-59840761D02*
X123507666Y-59888380D01*
X123269571Y-59888380D01*
X123174333Y-59840761D01*
X123126714Y-59745523D01*
X123126714Y-59650285D01*
X123174333Y-59555047D01*
X123269571Y-59507428D01*
X123507666Y-59507428D01*
X123602904Y-59459809D01*
X123936238Y-59221714D02*
X124317190Y-59221714D01*
X124079095Y-58888380D02*
X124079095Y-59745523D01*
X124126714Y-59840761D01*
X124221952Y-59888380D01*
X124317190Y-59888380D01*
X124507666Y-59221714D02*
X124888619Y-59221714D01*
X124650523Y-58888380D02*
X124650523Y-59745523D01*
X124698142Y-59840761D01*
X124793380Y-59888380D01*
X124888619Y-59888380D01*
X125602904Y-59840761D02*
X125507666Y-59888380D01*
X125317190Y-59888380D01*
X125221952Y-59840761D01*
X125174333Y-59745523D01*
X125174333Y-59364571D01*
X125221952Y-59269333D01*
X125317190Y-59221714D01*
X125507666Y-59221714D01*
X125602904Y-59269333D01*
X125650523Y-59364571D01*
X125650523Y-59459809D01*
X125174333Y-59555047D01*
X126079095Y-59221714D02*
X126079095Y-59888380D01*
X126079095Y-59316952D02*
X126126714Y-59269333D01*
X126221952Y-59221714D01*
X126364809Y-59221714D01*
X126460047Y-59269333D01*
X126507666Y-59364571D01*
X126507666Y-59888380D01*
X110267904Y-59888380D02*
X110267904Y-59364571D01*
X110220285Y-59269333D01*
X110125047Y-59221714D01*
X109934571Y-59221714D01*
X109839333Y-59269333D01*
X110267904Y-59840761D02*
X110172666Y-59888380D01*
X109934571Y-59888380D01*
X109839333Y-59840761D01*
X109791714Y-59745523D01*
X109791714Y-59650285D01*
X109839333Y-59555047D01*
X109934571Y-59507428D01*
X110172666Y-59507428D01*
X110267904Y-59459809D01*
X110601238Y-59221714D02*
X110982190Y-59221714D01*
X110744095Y-58888380D02*
X110744095Y-59745523D01*
X110791714Y-59840761D01*
X110886952Y-59888380D01*
X110982190Y-59888380D01*
X111172666Y-59221714D02*
X111553619Y-59221714D01*
X111315523Y-58888380D02*
X111315523Y-59745523D01*
X111363142Y-59840761D01*
X111458380Y-59888380D01*
X111553619Y-59888380D01*
X112267904Y-59840761D02*
X112172666Y-59888380D01*
X111982190Y-59888380D01*
X111886952Y-59840761D01*
X111839333Y-59745523D01*
X111839333Y-59364571D01*
X111886952Y-59269333D01*
X111982190Y-59221714D01*
X112172666Y-59221714D01*
X112267904Y-59269333D01*
X112315523Y-59364571D01*
X112315523Y-59459809D01*
X111839333Y-59555047D01*
X112744095Y-59221714D02*
X112744095Y-59888380D01*
X112744095Y-59316952D02*
X112791714Y-59269333D01*
X112886952Y-59221714D01*
X113029809Y-59221714D01*
X113125047Y-59269333D01*
X113172666Y-59364571D01*
X113172666Y-59888380D01*
X101957476Y-71318380D02*
X101957476Y-70318380D01*
X101957476Y-70699333D02*
X102052714Y-70651714D01*
X102243190Y-70651714D01*
X102338428Y-70699333D01*
X102386047Y-70746952D01*
X102433666Y-70842190D01*
X102433666Y-71127904D01*
X102386047Y-71223142D01*
X102338428Y-71270761D01*
X102243190Y-71318380D01*
X102052714Y-71318380D01*
X101957476Y-71270761D01*
X102767000Y-70651714D02*
X103005095Y-71318380D01*
X103243190Y-70651714D02*
X103005095Y-71318380D01*
X102909857Y-71556476D01*
X102862238Y-71604095D01*
X102767000Y-71651714D01*
X103624142Y-70651714D02*
X103624142Y-71651714D01*
X103624142Y-70699333D02*
X103719380Y-70651714D01*
X103909857Y-70651714D01*
X104005095Y-70699333D01*
X104052714Y-70746952D01*
X104100333Y-70842190D01*
X104100333Y-71127904D01*
X104052714Y-71223142D01*
X104005095Y-71270761D01*
X103909857Y-71318380D01*
X103719380Y-71318380D01*
X103624142Y-71270761D01*
X104957476Y-71318380D02*
X104957476Y-70794571D01*
X104909857Y-70699333D01*
X104814619Y-70651714D01*
X104624142Y-70651714D01*
X104528904Y-70699333D01*
X104957476Y-71270761D02*
X104862238Y-71318380D01*
X104624142Y-71318380D01*
X104528904Y-71270761D01*
X104481285Y-71175523D01*
X104481285Y-71080285D01*
X104528904Y-70985047D01*
X104624142Y-70937428D01*
X104862238Y-70937428D01*
X104957476Y-70889809D01*
X105386047Y-71270761D02*
X105481285Y-71318380D01*
X105671761Y-71318380D01*
X105767000Y-71270761D01*
X105814619Y-71175523D01*
X105814619Y-71127904D01*
X105767000Y-71032666D01*
X105671761Y-70985047D01*
X105528904Y-70985047D01*
X105433666Y-70937428D01*
X105386047Y-70842190D01*
X105386047Y-70794571D01*
X105433666Y-70699333D01*
X105528904Y-70651714D01*
X105671761Y-70651714D01*
X105767000Y-70699333D01*
X106195571Y-71270761D02*
X106290809Y-71318380D01*
X106481285Y-71318380D01*
X106576523Y-71270761D01*
X106624142Y-71175523D01*
X106624142Y-71127904D01*
X106576523Y-71032666D01*
X106481285Y-70985047D01*
X106338428Y-70985047D01*
X106243190Y-70937428D01*
X106195571Y-70842190D01*
X106195571Y-70794571D01*
X106243190Y-70699333D01*
X106338428Y-70651714D01*
X106481285Y-70651714D01*
X106576523Y-70699333D01*
X87733476Y-66619380D02*
X87733476Y-65619380D01*
X87733476Y-66000333D02*
X87828714Y-65952714D01*
X88019190Y-65952714D01*
X88114428Y-66000333D01*
X88162047Y-66047952D01*
X88209666Y-66143190D01*
X88209666Y-66428904D01*
X88162047Y-66524142D01*
X88114428Y-66571761D01*
X88019190Y-66619380D01*
X87828714Y-66619380D01*
X87733476Y-66571761D01*
X88543000Y-65952714D02*
X88781095Y-66619380D01*
X89019190Y-65952714D02*
X88781095Y-66619380D01*
X88685857Y-66857476D01*
X88638238Y-66905095D01*
X88543000Y-66952714D01*
X89400142Y-65952714D02*
X89400142Y-66952714D01*
X89400142Y-66000333D02*
X89495380Y-65952714D01*
X89685857Y-65952714D01*
X89781095Y-66000333D01*
X89828714Y-66047952D01*
X89876333Y-66143190D01*
X89876333Y-66428904D01*
X89828714Y-66524142D01*
X89781095Y-66571761D01*
X89685857Y-66619380D01*
X89495380Y-66619380D01*
X89400142Y-66571761D01*
X90733476Y-66619380D02*
X90733476Y-66095571D01*
X90685857Y-66000333D01*
X90590619Y-65952714D01*
X90400142Y-65952714D01*
X90304904Y-66000333D01*
X90733476Y-66571761D02*
X90638238Y-66619380D01*
X90400142Y-66619380D01*
X90304904Y-66571761D01*
X90257285Y-66476523D01*
X90257285Y-66381285D01*
X90304904Y-66286047D01*
X90400142Y-66238428D01*
X90638238Y-66238428D01*
X90733476Y-66190809D01*
X91162047Y-66571761D02*
X91257285Y-66619380D01*
X91447761Y-66619380D01*
X91543000Y-66571761D01*
X91590619Y-66476523D01*
X91590619Y-66428904D01*
X91543000Y-66333666D01*
X91447761Y-66286047D01*
X91304904Y-66286047D01*
X91209666Y-66238428D01*
X91162047Y-66143190D01*
X91162047Y-66095571D01*
X91209666Y-66000333D01*
X91304904Y-65952714D01*
X91447761Y-65952714D01*
X91543000Y-66000333D01*
X91971571Y-66571761D02*
X92066809Y-66619380D01*
X92257285Y-66619380D01*
X92352523Y-66571761D01*
X92400142Y-66476523D01*
X92400142Y-66428904D01*
X92352523Y-66333666D01*
X92257285Y-66286047D01*
X92114428Y-66286047D01*
X92019190Y-66238428D01*
X91971571Y-66143190D01*
X91971571Y-66095571D01*
X92019190Y-66000333D01*
X92114428Y-65952714D01*
X92257285Y-65952714D01*
X92352523Y-66000333D01*
X95916904Y-60142380D02*
X95916904Y-59618571D01*
X95869285Y-59523333D01*
X95774047Y-59475714D01*
X95583571Y-59475714D01*
X95488333Y-59523333D01*
X95916904Y-60094761D02*
X95821666Y-60142380D01*
X95583571Y-60142380D01*
X95488333Y-60094761D01*
X95440714Y-59999523D01*
X95440714Y-59904285D01*
X95488333Y-59809047D01*
X95583571Y-59761428D01*
X95821666Y-59761428D01*
X95916904Y-59713809D01*
X96250238Y-59475714D02*
X96631190Y-59475714D01*
X96393095Y-59142380D02*
X96393095Y-59999523D01*
X96440714Y-60094761D01*
X96535952Y-60142380D01*
X96631190Y-60142380D01*
X96821666Y-59475714D02*
X97202619Y-59475714D01*
X96964523Y-59142380D02*
X96964523Y-59999523D01*
X97012142Y-60094761D01*
X97107380Y-60142380D01*
X97202619Y-60142380D01*
X97916904Y-60094761D02*
X97821666Y-60142380D01*
X97631190Y-60142380D01*
X97535952Y-60094761D01*
X97488333Y-59999523D01*
X97488333Y-59618571D01*
X97535952Y-59523333D01*
X97631190Y-59475714D01*
X97821666Y-59475714D01*
X97916904Y-59523333D01*
X97964523Y-59618571D01*
X97964523Y-59713809D01*
X97488333Y-59809047D01*
X98393095Y-59475714D02*
X98393095Y-60142380D01*
X98393095Y-59570952D02*
X98440714Y-59523333D01*
X98535952Y-59475714D01*
X98678809Y-59475714D01*
X98774047Y-59523333D01*
X98821666Y-59618571D01*
X98821666Y-60142380D01*
X81311904Y-60015380D02*
X81311904Y-59491571D01*
X81264285Y-59396333D01*
X81169047Y-59348714D01*
X80978571Y-59348714D01*
X80883333Y-59396333D01*
X81311904Y-59967761D02*
X81216666Y-60015380D01*
X80978571Y-60015380D01*
X80883333Y-59967761D01*
X80835714Y-59872523D01*
X80835714Y-59777285D01*
X80883333Y-59682047D01*
X80978571Y-59634428D01*
X81216666Y-59634428D01*
X81311904Y-59586809D01*
X81645238Y-59348714D02*
X82026190Y-59348714D01*
X81788095Y-59015380D02*
X81788095Y-59872523D01*
X81835714Y-59967761D01*
X81930952Y-60015380D01*
X82026190Y-60015380D01*
X82216666Y-59348714D02*
X82597619Y-59348714D01*
X82359523Y-59015380D02*
X82359523Y-59872523D01*
X82407142Y-59967761D01*
X82502380Y-60015380D01*
X82597619Y-60015380D01*
X83311904Y-59967761D02*
X83216666Y-60015380D01*
X83026190Y-60015380D01*
X82930952Y-59967761D01*
X82883333Y-59872523D01*
X82883333Y-59491571D01*
X82930952Y-59396333D01*
X83026190Y-59348714D01*
X83216666Y-59348714D01*
X83311904Y-59396333D01*
X83359523Y-59491571D01*
X83359523Y-59586809D01*
X82883333Y-59682047D01*
X83788095Y-59348714D02*
X83788095Y-60015380D01*
X83788095Y-59443952D02*
X83835714Y-59396333D01*
X83930952Y-59348714D01*
X84073809Y-59348714D01*
X84169047Y-59396333D01*
X84216666Y-59491571D01*
X84216666Y-60015380D01*
X110014761Y-53792380D02*
X109443333Y-53792380D01*
X109729047Y-53792380D02*
X109729047Y-52792380D01*
X109633809Y-52935238D01*
X109538571Y-53030476D01*
X109443333Y-53078095D01*
X110871904Y-53125714D02*
X110871904Y-53792380D01*
X110633809Y-52744761D02*
X110395714Y-53459047D01*
X111014761Y-53459047D01*
X111395714Y-53697142D02*
X111443333Y-53744761D01*
X111395714Y-53792380D01*
X111348095Y-53744761D01*
X111395714Y-53697142D01*
X111395714Y-53792380D01*
X112014761Y-53220952D02*
X111919523Y-53173333D01*
X111871904Y-53125714D01*
X111824285Y-53030476D01*
X111824285Y-52982857D01*
X111871904Y-52887619D01*
X111919523Y-52840000D01*
X112014761Y-52792380D01*
X112205238Y-52792380D01*
X112300476Y-52840000D01*
X112348095Y-52887619D01*
X112395714Y-52982857D01*
X112395714Y-53030476D01*
X112348095Y-53125714D01*
X112300476Y-53173333D01*
X112205238Y-53220952D01*
X112014761Y-53220952D01*
X111919523Y-53268571D01*
X111871904Y-53316190D01*
X111824285Y-53411428D01*
X111824285Y-53601904D01*
X111871904Y-53697142D01*
X111919523Y-53744761D01*
X112014761Y-53792380D01*
X112205238Y-53792380D01*
X112300476Y-53744761D01*
X112348095Y-53697142D01*
X112395714Y-53601904D01*
X112395714Y-53411428D01*
X112348095Y-53316190D01*
X112300476Y-53268571D01*
X112205238Y-53220952D01*
X114014761Y-53792380D02*
X114014761Y-52792380D01*
X114014761Y-53744761D02*
X113919523Y-53792380D01*
X113729047Y-53792380D01*
X113633809Y-53744761D01*
X113586190Y-53697142D01*
X113538571Y-53601904D01*
X113538571Y-53316190D01*
X113586190Y-53220952D01*
X113633809Y-53173333D01*
X113729047Y-53125714D01*
X113919523Y-53125714D01*
X114014761Y-53173333D01*
X114824285Y-53268571D02*
X114967142Y-53316190D01*
X115014761Y-53363809D01*
X115062380Y-53459047D01*
X115062380Y-53601904D01*
X115014761Y-53697142D01*
X114967142Y-53744761D01*
X114871904Y-53792380D01*
X114490952Y-53792380D01*
X114490952Y-52792380D01*
X114824285Y-52792380D01*
X114919523Y-52840000D01*
X114967142Y-52887619D01*
X115014761Y-52982857D01*
X115014761Y-53078095D01*
X114967142Y-53173333D01*
X114919523Y-53220952D01*
X114824285Y-53268571D01*
X114490952Y-53268571D01*
X116157619Y-53792380D02*
X116681428Y-53125714D01*
X116157619Y-53125714D02*
X116681428Y-53792380D01*
X118300476Y-52792380D02*
X117824285Y-52792380D01*
X117776666Y-53268571D01*
X117824285Y-53220952D01*
X117919523Y-53173333D01*
X118157619Y-53173333D01*
X118252857Y-53220952D01*
X118300476Y-53268571D01*
X118348095Y-53363809D01*
X118348095Y-53601904D01*
X118300476Y-53697142D01*
X118252857Y-53744761D01*
X118157619Y-53792380D01*
X117919523Y-53792380D01*
X117824285Y-53744761D01*
X117776666Y-53697142D01*
X119490952Y-53506666D02*
X119967142Y-53506666D01*
X119395714Y-53792380D02*
X119729047Y-52792380D01*
X120062380Y-53792380D01*
X120252857Y-53125714D02*
X120633809Y-53125714D01*
X120395714Y-52792380D02*
X120395714Y-53649523D01*
X120443333Y-53744761D01*
X120538571Y-53792380D01*
X120633809Y-53792380D01*
X120824285Y-53125714D02*
X121205238Y-53125714D01*
X120967142Y-52792380D02*
X120967142Y-53649523D01*
X121014761Y-53744761D01*
X121109999Y-53792380D01*
X121205238Y-53792380D01*
X121919523Y-53744761D02*
X121824285Y-53792380D01*
X121633809Y-53792380D01*
X121538571Y-53744761D01*
X121490952Y-53649523D01*
X121490952Y-53268571D01*
X121538571Y-53173333D01*
X121633809Y-53125714D01*
X121824285Y-53125714D01*
X121919523Y-53173333D01*
X121967142Y-53268571D01*
X121967142Y-53363809D01*
X121490952Y-53459047D01*
X122395714Y-53125714D02*
X122395714Y-53792380D01*
X122395714Y-53220952D02*
X122443333Y-53173333D01*
X122538571Y-53125714D01*
X122681428Y-53125714D01*
X122776666Y-53173333D01*
X122824285Y-53268571D01*
X122824285Y-53792380D01*
X123729047Y-53125714D02*
X123729047Y-53792380D01*
X123300476Y-53125714D02*
X123300476Y-53649523D01*
X123348095Y-53744761D01*
X123443333Y-53792380D01*
X123586190Y-53792380D01*
X123681428Y-53744761D01*
X123729047Y-53697142D01*
X124633809Y-53792380D02*
X124633809Y-53268571D01*
X124586190Y-53173333D01*
X124490952Y-53125714D01*
X124300476Y-53125714D01*
X124205238Y-53173333D01*
X124633809Y-53744761D02*
X124538571Y-53792380D01*
X124300476Y-53792380D01*
X124205238Y-53744761D01*
X124157619Y-53649523D01*
X124157619Y-53554285D01*
X124205238Y-53459047D01*
X124300476Y-53411428D01*
X124538571Y-53411428D01*
X124633809Y-53363809D01*
X124967142Y-53125714D02*
X125348095Y-53125714D01*
X125109999Y-52792380D02*
X125109999Y-53649523D01*
X125157619Y-53744761D01*
X125252857Y-53792380D01*
X125348095Y-53792380D01*
X125824285Y-53792380D02*
X125729047Y-53744761D01*
X125681428Y-53697142D01*
X125633809Y-53601904D01*
X125633809Y-53316190D01*
X125681428Y-53220952D01*
X125729047Y-53173333D01*
X125824285Y-53125714D01*
X125967142Y-53125714D01*
X126062380Y-53173333D01*
X126109999Y-53220952D01*
X126157619Y-53316190D01*
X126157619Y-53601904D01*
X126109999Y-53697142D01*
X126062380Y-53744761D01*
X125967142Y-53792380D01*
X125824285Y-53792380D01*
X126586190Y-53792380D02*
X126586190Y-53125714D01*
X126586190Y-53316190D02*
X126633809Y-53220952D01*
X126681428Y-53173333D01*
X126776666Y-53125714D01*
X126871904Y-53125714D01*
D11*
X150900000Y-79280000D02*
X151230000Y-79280000D01*
X151230000Y-79280000D02*
X151230000Y-85820000D01*
X151230000Y-85820000D02*
X150900000Y-85820000D01*
X148820000Y-79280000D02*
X148490000Y-79280000D01*
X148490000Y-79280000D02*
X148490000Y-85820000D01*
X148490000Y-85820000D02*
X148820000Y-85820000D01*
X89920000Y-57872000D02*
X90170000Y-57372000D01*
X90420000Y-57872000D02*
X89920000Y-57872000D01*
X90170000Y-57372000D02*
X90420000Y-57872000D01*
X146050000Y-57372000D02*
X146300000Y-57872000D01*
X146300000Y-57872000D02*
X145800000Y-57872000D01*
X145800000Y-57872000D02*
X146050000Y-57372000D01*
X87400000Y-79280000D02*
X87730000Y-79280000D01*
X87730000Y-79280000D02*
X87730000Y-85820000D01*
X87730000Y-85820000D02*
X87400000Y-85820000D01*
X85320000Y-79280000D02*
X84990000Y-79280000D01*
X84990000Y-79280000D02*
X84990000Y-85820000D01*
X84990000Y-85820000D02*
X85320000Y-85820000D01*
X93440000Y-75970000D02*
X93440000Y-76300000D01*
X93440000Y-76300000D02*
X86900000Y-76300000D01*
X86900000Y-76300000D02*
X86900000Y-75970000D01*
X93440000Y-73890000D02*
X93440000Y-73560000D01*
X93440000Y-73560000D02*
X86900000Y-73560000D01*
X86900000Y-73560000D02*
X86900000Y-73890000D01*
X92610000Y-85820000D02*
X92940000Y-85820000D01*
X92610000Y-79280000D02*
X92610000Y-85820000D01*
X92940000Y-79280000D02*
X92610000Y-79280000D01*
X95350000Y-85820000D02*
X95020000Y-85820000D01*
X95350000Y-79280000D02*
X95350000Y-85820000D01*
X95020000Y-79280000D02*
X95350000Y-79280000D01*
X98960000Y-85820000D02*
X99290000Y-85820000D01*
X98960000Y-79280000D02*
X98960000Y-85820000D01*
X99290000Y-79280000D02*
X98960000Y-79280000D01*
X101700000Y-85820000D02*
X101370000Y-85820000D01*
X101700000Y-79280000D02*
X101700000Y-85820000D01*
X101370000Y-79280000D02*
X101700000Y-79280000D01*
X100870000Y-73560000D02*
X100870000Y-73890000D01*
X107410000Y-73560000D02*
X100870000Y-73560000D01*
X107410000Y-73890000D02*
X107410000Y-73560000D01*
X100870000Y-76300000D02*
X100870000Y-75970000D01*
X107410000Y-76300000D02*
X100870000Y-76300000D01*
X107410000Y-75970000D02*
X107410000Y-76300000D01*
X108990000Y-79280000D02*
X109320000Y-79280000D01*
X109320000Y-79280000D02*
X109320000Y-85820000D01*
X109320000Y-85820000D02*
X108990000Y-85820000D01*
X106910000Y-79280000D02*
X106580000Y-79280000D01*
X106580000Y-79280000D02*
X106580000Y-85820000D01*
X106580000Y-85820000D02*
X106910000Y-85820000D01*
X115340000Y-79280000D02*
X115670000Y-79280000D01*
X115670000Y-79280000D02*
X115670000Y-85820000D01*
X115670000Y-85820000D02*
X115340000Y-85820000D01*
X113260000Y-79280000D02*
X112930000Y-79280000D01*
X112930000Y-79280000D02*
X112930000Y-85820000D01*
X112930000Y-85820000D02*
X113260000Y-85820000D01*
X121380000Y-75970000D02*
X121380000Y-76300000D01*
X121380000Y-76300000D02*
X114840000Y-76300000D01*
X114840000Y-76300000D02*
X114840000Y-75970000D01*
X121380000Y-73890000D02*
X121380000Y-73560000D01*
X121380000Y-73560000D02*
X114840000Y-73560000D01*
X114840000Y-73560000D02*
X114840000Y-73890000D01*
X120550000Y-85820000D02*
X120880000Y-85820000D01*
X120550000Y-79280000D02*
X120550000Y-85820000D01*
X120880000Y-79280000D02*
X120550000Y-79280000D01*
X123290000Y-85820000D02*
X122960000Y-85820000D01*
X123290000Y-79280000D02*
X123290000Y-85820000D01*
X122960000Y-79280000D02*
X123290000Y-79280000D01*
X126900000Y-85820000D02*
X127230000Y-85820000D01*
X126900000Y-79280000D02*
X126900000Y-85820000D01*
X127230000Y-79280000D02*
X126900000Y-79280000D01*
X129640000Y-85820000D02*
X129310000Y-85820000D01*
X129640000Y-79280000D02*
X129640000Y-85820000D01*
X129310000Y-79280000D02*
X129640000Y-79280000D01*
X128810000Y-73560000D02*
X128810000Y-73890000D01*
X135350000Y-73560000D02*
X128810000Y-73560000D01*
X135350000Y-73890000D02*
X135350000Y-73560000D01*
X128810000Y-76300000D02*
X128810000Y-75970000D01*
X135350000Y-76300000D02*
X128810000Y-76300000D01*
X135350000Y-75970000D02*
X135350000Y-76300000D01*
X136930000Y-79280000D02*
X137260000Y-79280000D01*
X137260000Y-79280000D02*
X137260000Y-85820000D01*
X137260000Y-85820000D02*
X136930000Y-85820000D01*
X134850000Y-79280000D02*
X134520000Y-79280000D01*
X134520000Y-79280000D02*
X134520000Y-85820000D01*
X134520000Y-85820000D02*
X134850000Y-85820000D01*
X143280000Y-79280000D02*
X143610000Y-79280000D01*
X143610000Y-79280000D02*
X143610000Y-85820000D01*
X143610000Y-85820000D02*
X143280000Y-85820000D01*
X141200000Y-79280000D02*
X140870000Y-79280000D01*
X140870000Y-79280000D02*
X140870000Y-85820000D01*
X140870000Y-85820000D02*
X141200000Y-85820000D01*
X142780000Y-73560000D02*
X142780000Y-73890000D01*
X149320000Y-73560000D02*
X142780000Y-73560000D01*
X149320000Y-73890000D02*
X149320000Y-73560000D01*
X142780000Y-76300000D02*
X142780000Y-75970000D01*
X149320000Y-76300000D02*
X142780000Y-76300000D01*
X149320000Y-75970000D02*
X149320000Y-76300000D01*
X81220000Y-60900000D02*
X81220000Y-63560000D01*
X86360000Y-60900000D02*
X81220000Y-60900000D01*
X86360000Y-63560000D02*
X81220000Y-63560000D01*
X86360000Y-60900000D02*
X86360000Y-63560000D01*
X87630000Y-60900000D02*
X88960000Y-60900000D01*
X88960000Y-60900000D02*
X88960000Y-62230000D01*
X91380000Y-60900000D02*
X91380000Y-63560000D01*
X96520000Y-60900000D02*
X91380000Y-60900000D01*
X96520000Y-63560000D02*
X91380000Y-63560000D01*
X96520000Y-60900000D02*
X96520000Y-63560000D01*
X97790000Y-60900000D02*
X99120000Y-60900000D01*
X99120000Y-60900000D02*
X99120000Y-62230000D01*
X102930000Y-67250000D02*
X102930000Y-68580000D01*
X101600000Y-67250000D02*
X102930000Y-67250000D01*
X100330000Y-67250000D02*
X100330000Y-69910000D01*
X100330000Y-69910000D02*
X95190000Y-69910000D01*
X100330000Y-67250000D02*
X95190000Y-67250000D01*
X95190000Y-67250000D02*
X95190000Y-69910000D01*
X105350000Y-67250000D02*
X105350000Y-69910000D01*
X110490000Y-67250000D02*
X105350000Y-67250000D01*
X110490000Y-69910000D02*
X105350000Y-69910000D01*
X110490000Y-67250000D02*
X110490000Y-69910000D01*
X111760000Y-67250000D02*
X113090000Y-67250000D01*
X113090000Y-67250000D02*
X113090000Y-68580000D01*
X116900000Y-60900000D02*
X116900000Y-62230000D01*
X115570000Y-60900000D02*
X116900000Y-60900000D01*
X114300000Y-60900000D02*
X114300000Y-63560000D01*
X114300000Y-63560000D02*
X109160000Y-63560000D01*
X114300000Y-60900000D02*
X109160000Y-60900000D01*
X109160000Y-60900000D02*
X109160000Y-63560000D01*
X119320000Y-60900000D02*
X119320000Y-63560000D01*
X124460000Y-60900000D02*
X119320000Y-60900000D01*
X124460000Y-63560000D02*
X119320000Y-63560000D01*
X124460000Y-60900000D02*
X124460000Y-63560000D01*
X125730000Y-60900000D02*
X127060000Y-60900000D01*
X127060000Y-60900000D02*
X127060000Y-62230000D01*
X130870000Y-67250000D02*
X130870000Y-68580000D01*
X129540000Y-67250000D02*
X130870000Y-67250000D01*
X128270000Y-67250000D02*
X128270000Y-69910000D01*
X128270000Y-69910000D02*
X123130000Y-69910000D01*
X128270000Y-67250000D02*
X123130000Y-67250000D01*
X123130000Y-67250000D02*
X123130000Y-69910000D01*
X133290000Y-67250000D02*
X133290000Y-69910000D01*
X138430000Y-67250000D02*
X133290000Y-67250000D01*
X138430000Y-69910000D02*
X133290000Y-69910000D01*
X138430000Y-67250000D02*
X138430000Y-69910000D01*
X139700000Y-67250000D02*
X141030000Y-67250000D01*
X141030000Y-67250000D02*
X141030000Y-68580000D01*
X155000000Y-60900000D02*
X155000000Y-62230000D01*
X153670000Y-60900000D02*
X155000000Y-60900000D01*
X152400000Y-60900000D02*
X152400000Y-63560000D01*
X152400000Y-63560000D02*
X147260000Y-63560000D01*
X152400000Y-60900000D02*
X147260000Y-60900000D01*
X147260000Y-60900000D02*
X147260000Y-63560000D01*
X137100000Y-60900000D02*
X137100000Y-63560000D01*
X142240000Y-60900000D02*
X137100000Y-60900000D01*
X142240000Y-63560000D02*
X137100000Y-63560000D01*
X142240000Y-60900000D02*
X142240000Y-63560000D01*
X143510000Y-60900000D02*
X144840000Y-60900000D01*
X144840000Y-60900000D02*
X144840000Y-62230000D01*
D10*
X152682380Y-83192857D02*
X152206190Y-83526190D01*
X152682380Y-83764285D02*
X151682380Y-83764285D01*
X151682380Y-83383333D01*
X151730000Y-83288095D01*
X151777619Y-83240476D01*
X151872857Y-83192857D01*
X152015714Y-83192857D01*
X152110952Y-83240476D01*
X152158571Y-83288095D01*
X152206190Y-83383333D01*
X152206190Y-83764285D01*
X152682380Y-82240476D02*
X152682380Y-82811904D01*
X152682380Y-82526190D02*
X151682380Y-82526190D01*
X151825238Y-82621428D01*
X151920476Y-82716666D01*
X151968095Y-82811904D01*
X151682380Y-81335714D02*
X151682380Y-81811904D01*
X152158571Y-81859523D01*
X152110952Y-81811904D01*
X152063333Y-81716666D01*
X152063333Y-81478571D01*
X152110952Y-81383333D01*
X152158571Y-81335714D01*
X152253809Y-81288095D01*
X152491904Y-81288095D01*
X152587142Y-81335714D01*
X152634761Y-81383333D01*
X152682380Y-81478571D01*
X152682380Y-81716666D01*
X152634761Y-81811904D01*
X152587142Y-81859523D01*
X82622380Y-54205333D02*
X83336666Y-54205333D01*
X83479523Y-54252952D01*
X83574761Y-54348190D01*
X83622380Y-54491047D01*
X83622380Y-54586285D01*
X83622380Y-53205333D02*
X83622380Y-53776761D01*
X83622380Y-53491047D02*
X82622380Y-53491047D01*
X82765238Y-53586285D01*
X82860476Y-53681523D01*
X82908095Y-53776761D01*
X138502380Y-54681523D02*
X139216666Y-54681523D01*
X139359523Y-54729142D01*
X139454761Y-54824380D01*
X139502380Y-54967238D01*
X139502380Y-55062476D01*
X139502380Y-53681523D02*
X139502380Y-54252952D01*
X139502380Y-53967238D02*
X138502380Y-53967238D01*
X138645238Y-54062476D01*
X138740476Y-54157714D01*
X138788095Y-54252952D01*
X138597619Y-53300571D02*
X138550000Y-53252952D01*
X138502380Y-53157714D01*
X138502380Y-52919619D01*
X138550000Y-52824380D01*
X138597619Y-52776761D01*
X138692857Y-52729142D01*
X138788095Y-52729142D01*
X138930952Y-52776761D01*
X139502380Y-53348190D01*
X139502380Y-52729142D01*
X89182380Y-82716666D02*
X88706190Y-83050000D01*
X89182380Y-83288095D02*
X88182380Y-83288095D01*
X88182380Y-82907142D01*
X88230000Y-82811904D01*
X88277619Y-82764285D01*
X88372857Y-82716666D01*
X88515714Y-82716666D01*
X88610952Y-82764285D01*
X88658571Y-82811904D01*
X88706190Y-82907142D01*
X88706190Y-83288095D01*
X89182380Y-81764285D02*
X89182380Y-82335714D01*
X89182380Y-82050000D02*
X88182380Y-82050000D01*
X88325238Y-82145238D01*
X88420476Y-82240476D01*
X88468095Y-82335714D01*
X90003333Y-77752380D02*
X89670000Y-77276190D01*
X89431904Y-77752380D02*
X89431904Y-76752380D01*
X89812857Y-76752380D01*
X89908095Y-76800000D01*
X89955714Y-76847619D01*
X90003333Y-76942857D01*
X90003333Y-77085714D01*
X89955714Y-77180952D01*
X89908095Y-77228571D01*
X89812857Y-77276190D01*
X89431904Y-77276190D01*
X90384285Y-76847619D02*
X90431904Y-76800000D01*
X90527142Y-76752380D01*
X90765238Y-76752380D01*
X90860476Y-76800000D01*
X90908095Y-76847619D01*
X90955714Y-76942857D01*
X90955714Y-77038095D01*
X90908095Y-77180952D01*
X90336666Y-77752380D01*
X90955714Y-77752380D01*
X96802380Y-82716666D02*
X96326190Y-83050000D01*
X96802380Y-83288095D02*
X95802380Y-83288095D01*
X95802380Y-82907142D01*
X95850000Y-82811904D01*
X95897619Y-82764285D01*
X95992857Y-82716666D01*
X96135714Y-82716666D01*
X96230952Y-82764285D01*
X96278571Y-82811904D01*
X96326190Y-82907142D01*
X96326190Y-83288095D01*
X95802380Y-82383333D02*
X95802380Y-81764285D01*
X96183333Y-82097619D01*
X96183333Y-81954761D01*
X96230952Y-81859523D01*
X96278571Y-81811904D01*
X96373809Y-81764285D01*
X96611904Y-81764285D01*
X96707142Y-81811904D01*
X96754761Y-81859523D01*
X96802380Y-81954761D01*
X96802380Y-82240476D01*
X96754761Y-82335714D01*
X96707142Y-82383333D01*
X103152380Y-82716666D02*
X102676190Y-83050000D01*
X103152380Y-83288095D02*
X102152380Y-83288095D01*
X102152380Y-82907142D01*
X102200000Y-82811904D01*
X102247619Y-82764285D01*
X102342857Y-82716666D01*
X102485714Y-82716666D01*
X102580952Y-82764285D01*
X102628571Y-82811904D01*
X102676190Y-82907142D01*
X102676190Y-83288095D01*
X102485714Y-81859523D02*
X103152380Y-81859523D01*
X102104761Y-82097619D02*
X102819047Y-82335714D01*
X102819047Y-81716666D01*
X103973333Y-77752380D02*
X103640000Y-77276190D01*
X103401904Y-77752380D02*
X103401904Y-76752380D01*
X103782857Y-76752380D01*
X103878095Y-76800000D01*
X103925714Y-76847619D01*
X103973333Y-76942857D01*
X103973333Y-77085714D01*
X103925714Y-77180952D01*
X103878095Y-77228571D01*
X103782857Y-77276190D01*
X103401904Y-77276190D01*
X104878095Y-76752380D02*
X104401904Y-76752380D01*
X104354285Y-77228571D01*
X104401904Y-77180952D01*
X104497142Y-77133333D01*
X104735238Y-77133333D01*
X104830476Y-77180952D01*
X104878095Y-77228571D01*
X104925714Y-77323809D01*
X104925714Y-77561904D01*
X104878095Y-77657142D01*
X104830476Y-77704761D01*
X104735238Y-77752380D01*
X104497142Y-77752380D01*
X104401904Y-77704761D01*
X104354285Y-77657142D01*
X110772380Y-82716666D02*
X110296190Y-83050000D01*
X110772380Y-83288095D02*
X109772380Y-83288095D01*
X109772380Y-82907142D01*
X109820000Y-82811904D01*
X109867619Y-82764285D01*
X109962857Y-82716666D01*
X110105714Y-82716666D01*
X110200952Y-82764285D01*
X110248571Y-82811904D01*
X110296190Y-82907142D01*
X110296190Y-83288095D01*
X109772380Y-81859523D02*
X109772380Y-82050000D01*
X109820000Y-82145238D01*
X109867619Y-82192857D01*
X110010476Y-82288095D01*
X110200952Y-82335714D01*
X110581904Y-82335714D01*
X110677142Y-82288095D01*
X110724761Y-82240476D01*
X110772380Y-82145238D01*
X110772380Y-81954761D01*
X110724761Y-81859523D01*
X110677142Y-81811904D01*
X110581904Y-81764285D01*
X110343809Y-81764285D01*
X110248571Y-81811904D01*
X110200952Y-81859523D01*
X110153333Y-81954761D01*
X110153333Y-82145238D01*
X110200952Y-82240476D01*
X110248571Y-82288095D01*
X110343809Y-82335714D01*
X117122380Y-82716666D02*
X116646190Y-83050000D01*
X117122380Y-83288095D02*
X116122380Y-83288095D01*
X116122380Y-82907142D01*
X116170000Y-82811904D01*
X116217619Y-82764285D01*
X116312857Y-82716666D01*
X116455714Y-82716666D01*
X116550952Y-82764285D01*
X116598571Y-82811904D01*
X116646190Y-82907142D01*
X116646190Y-83288095D01*
X116122380Y-82383333D02*
X116122380Y-81716666D01*
X117122380Y-82145238D01*
X117943333Y-77752380D02*
X117610000Y-77276190D01*
X117371904Y-77752380D02*
X117371904Y-76752380D01*
X117752857Y-76752380D01*
X117848095Y-76800000D01*
X117895714Y-76847619D01*
X117943333Y-76942857D01*
X117943333Y-77085714D01*
X117895714Y-77180952D01*
X117848095Y-77228571D01*
X117752857Y-77276190D01*
X117371904Y-77276190D01*
X118514761Y-77180952D02*
X118419523Y-77133333D01*
X118371904Y-77085714D01*
X118324285Y-76990476D01*
X118324285Y-76942857D01*
X118371904Y-76847619D01*
X118419523Y-76800000D01*
X118514761Y-76752380D01*
X118705238Y-76752380D01*
X118800476Y-76800000D01*
X118848095Y-76847619D01*
X118895714Y-76942857D01*
X118895714Y-76990476D01*
X118848095Y-77085714D01*
X118800476Y-77133333D01*
X118705238Y-77180952D01*
X118514761Y-77180952D01*
X118419523Y-77228571D01*
X118371904Y-77276190D01*
X118324285Y-77371428D01*
X118324285Y-77561904D01*
X118371904Y-77657142D01*
X118419523Y-77704761D01*
X118514761Y-77752380D01*
X118705238Y-77752380D01*
X118800476Y-77704761D01*
X118848095Y-77657142D01*
X118895714Y-77561904D01*
X118895714Y-77371428D01*
X118848095Y-77276190D01*
X118800476Y-77228571D01*
X118705238Y-77180952D01*
X124742380Y-82716666D02*
X124266190Y-83050000D01*
X124742380Y-83288095D02*
X123742380Y-83288095D01*
X123742380Y-82907142D01*
X123790000Y-82811904D01*
X123837619Y-82764285D01*
X123932857Y-82716666D01*
X124075714Y-82716666D01*
X124170952Y-82764285D01*
X124218571Y-82811904D01*
X124266190Y-82907142D01*
X124266190Y-83288095D01*
X124742380Y-82240476D02*
X124742380Y-82050000D01*
X124694761Y-81954761D01*
X124647142Y-81907142D01*
X124504285Y-81811904D01*
X124313809Y-81764285D01*
X123932857Y-81764285D01*
X123837619Y-81811904D01*
X123790000Y-81859523D01*
X123742380Y-81954761D01*
X123742380Y-82145238D01*
X123790000Y-82240476D01*
X123837619Y-82288095D01*
X123932857Y-82335714D01*
X124170952Y-82335714D01*
X124266190Y-82288095D01*
X124313809Y-82240476D01*
X124361428Y-82145238D01*
X124361428Y-81954761D01*
X124313809Y-81859523D01*
X124266190Y-81811904D01*
X124170952Y-81764285D01*
X131092380Y-83192857D02*
X130616190Y-83526190D01*
X131092380Y-83764285D02*
X130092380Y-83764285D01*
X130092380Y-83383333D01*
X130140000Y-83288095D01*
X130187619Y-83240476D01*
X130282857Y-83192857D01*
X130425714Y-83192857D01*
X130520952Y-83240476D01*
X130568571Y-83288095D01*
X130616190Y-83383333D01*
X130616190Y-83764285D01*
X131092380Y-82240476D02*
X131092380Y-82811904D01*
X131092380Y-82526190D02*
X130092380Y-82526190D01*
X130235238Y-82621428D01*
X130330476Y-82716666D01*
X130378095Y-82811904D01*
X130092380Y-81621428D02*
X130092380Y-81526190D01*
X130140000Y-81430952D01*
X130187619Y-81383333D01*
X130282857Y-81335714D01*
X130473333Y-81288095D01*
X130711428Y-81288095D01*
X130901904Y-81335714D01*
X130997142Y-81383333D01*
X131044761Y-81430952D01*
X131092380Y-81526190D01*
X131092380Y-81621428D01*
X131044761Y-81716666D01*
X130997142Y-81764285D01*
X130901904Y-81811904D01*
X130711428Y-81859523D01*
X130473333Y-81859523D01*
X130282857Y-81811904D01*
X130187619Y-81764285D01*
X130140000Y-81716666D01*
X130092380Y-81621428D01*
X131437142Y-77752380D02*
X131103809Y-77276190D01*
X130865714Y-77752380D02*
X130865714Y-76752380D01*
X131246666Y-76752380D01*
X131341904Y-76800000D01*
X131389523Y-76847619D01*
X131437142Y-76942857D01*
X131437142Y-77085714D01*
X131389523Y-77180952D01*
X131341904Y-77228571D01*
X131246666Y-77276190D01*
X130865714Y-77276190D01*
X132389523Y-77752380D02*
X131818095Y-77752380D01*
X132103809Y-77752380D02*
X132103809Y-76752380D01*
X132008571Y-76895238D01*
X131913333Y-76990476D01*
X131818095Y-77038095D01*
X133341904Y-77752380D02*
X132770476Y-77752380D01*
X133056190Y-77752380D02*
X133056190Y-76752380D01*
X132960952Y-76895238D01*
X132865714Y-76990476D01*
X132770476Y-77038095D01*
X138712380Y-83192857D02*
X138236190Y-83526190D01*
X138712380Y-83764285D02*
X137712380Y-83764285D01*
X137712380Y-83383333D01*
X137760000Y-83288095D01*
X137807619Y-83240476D01*
X137902857Y-83192857D01*
X138045714Y-83192857D01*
X138140952Y-83240476D01*
X138188571Y-83288095D01*
X138236190Y-83383333D01*
X138236190Y-83764285D01*
X138712380Y-82240476D02*
X138712380Y-82811904D01*
X138712380Y-82526190D02*
X137712380Y-82526190D01*
X137855238Y-82621428D01*
X137950476Y-82716666D01*
X137998095Y-82811904D01*
X137807619Y-81859523D02*
X137760000Y-81811904D01*
X137712380Y-81716666D01*
X137712380Y-81478571D01*
X137760000Y-81383333D01*
X137807619Y-81335714D01*
X137902857Y-81288095D01*
X137998095Y-81288095D01*
X138140952Y-81335714D01*
X138712380Y-81907142D01*
X138712380Y-81288095D01*
X145062380Y-83192857D02*
X144586190Y-83526190D01*
X145062380Y-83764285D02*
X144062380Y-83764285D01*
X144062380Y-83383333D01*
X144110000Y-83288095D01*
X144157619Y-83240476D01*
X144252857Y-83192857D01*
X144395714Y-83192857D01*
X144490952Y-83240476D01*
X144538571Y-83288095D01*
X144586190Y-83383333D01*
X144586190Y-83764285D01*
X145062380Y-82240476D02*
X145062380Y-82811904D01*
X145062380Y-82526190D02*
X144062380Y-82526190D01*
X144205238Y-82621428D01*
X144300476Y-82716666D01*
X144348095Y-82811904D01*
X144062380Y-81907142D02*
X144062380Y-81288095D01*
X144443333Y-81621428D01*
X144443333Y-81478571D01*
X144490952Y-81383333D01*
X144538571Y-81335714D01*
X144633809Y-81288095D01*
X144871904Y-81288095D01*
X144967142Y-81335714D01*
X145014761Y-81383333D01*
X145062380Y-81478571D01*
X145062380Y-81764285D01*
X145014761Y-81859523D01*
X144967142Y-81907142D01*
X145407142Y-77752380D02*
X145073809Y-77276190D01*
X144835714Y-77752380D02*
X144835714Y-76752380D01*
X145216666Y-76752380D01*
X145311904Y-76800000D01*
X145359523Y-76847619D01*
X145407142Y-76942857D01*
X145407142Y-77085714D01*
X145359523Y-77180952D01*
X145311904Y-77228571D01*
X145216666Y-77276190D01*
X144835714Y-77276190D01*
X146359523Y-77752380D02*
X145788095Y-77752380D01*
X146073809Y-77752380D02*
X146073809Y-76752380D01*
X145978571Y-76895238D01*
X145883333Y-76990476D01*
X145788095Y-77038095D01*
X147216666Y-77085714D02*
X147216666Y-77752380D01*
X146978571Y-76704761D02*
X146740476Y-77419047D01*
X147359523Y-77419047D01*
X87296666Y-64222380D02*
X87296666Y-64936666D01*
X87249047Y-65079523D01*
X87153809Y-65174761D01*
X87010952Y-65222380D01*
X86915714Y-65222380D01*
X87725238Y-64317619D02*
X87772857Y-64270000D01*
X87868095Y-64222380D01*
X88106190Y-64222380D01*
X88201428Y-64270000D01*
X88249047Y-64317619D01*
X88296666Y-64412857D01*
X88296666Y-64508095D01*
X88249047Y-64650952D01*
X87677619Y-65222380D01*
X88296666Y-65222380D01*
X92376666Y-64222380D02*
X92376666Y-64936666D01*
X92329047Y-65079523D01*
X92233809Y-65174761D01*
X92090952Y-65222380D01*
X91995714Y-65222380D01*
X92757619Y-64222380D02*
X93376666Y-64222380D01*
X93043333Y-64603333D01*
X93186190Y-64603333D01*
X93281428Y-64650952D01*
X93329047Y-64698571D01*
X93376666Y-64793809D01*
X93376666Y-65031904D01*
X93329047Y-65127142D01*
X93281428Y-65174761D01*
X93186190Y-65222380D01*
X92900476Y-65222380D01*
X92805238Y-65174761D01*
X92757619Y-65127142D01*
X98726666Y-70572380D02*
X98726666Y-71286666D01*
X98679047Y-71429523D01*
X98583809Y-71524761D01*
X98440952Y-71572380D01*
X98345714Y-71572380D01*
X99631428Y-70905714D02*
X99631428Y-71572380D01*
X99393333Y-70524761D02*
X99155238Y-71239047D01*
X99774285Y-71239047D01*
X108886666Y-70572380D02*
X108886666Y-71286666D01*
X108839047Y-71429523D01*
X108743809Y-71524761D01*
X108600952Y-71572380D01*
X108505714Y-71572380D01*
X109839047Y-70572380D02*
X109362857Y-70572380D01*
X109315238Y-71048571D01*
X109362857Y-71000952D01*
X109458095Y-70953333D01*
X109696190Y-70953333D01*
X109791428Y-71000952D01*
X109839047Y-71048571D01*
X109886666Y-71143809D01*
X109886666Y-71381904D01*
X109839047Y-71477142D01*
X109791428Y-71524761D01*
X109696190Y-71572380D01*
X109458095Y-71572380D01*
X109362857Y-71524761D01*
X109315238Y-71477142D01*
X115236666Y-64222380D02*
X115236666Y-64936666D01*
X115189047Y-65079523D01*
X115093809Y-65174761D01*
X114950952Y-65222380D01*
X114855714Y-65222380D01*
X116141428Y-64222380D02*
X115950952Y-64222380D01*
X115855714Y-64270000D01*
X115808095Y-64317619D01*
X115712857Y-64460476D01*
X115665238Y-64650952D01*
X115665238Y-65031904D01*
X115712857Y-65127142D01*
X115760476Y-65174761D01*
X115855714Y-65222380D01*
X116046190Y-65222380D01*
X116141428Y-65174761D01*
X116189047Y-65127142D01*
X116236666Y-65031904D01*
X116236666Y-64793809D01*
X116189047Y-64698571D01*
X116141428Y-64650952D01*
X116046190Y-64603333D01*
X115855714Y-64603333D01*
X115760476Y-64650952D01*
X115712857Y-64698571D01*
X115665238Y-64793809D01*
X120316666Y-64222380D02*
X120316666Y-64936666D01*
X120269047Y-65079523D01*
X120173809Y-65174761D01*
X120030952Y-65222380D01*
X119935714Y-65222380D01*
X120697619Y-64222380D02*
X121364285Y-64222380D01*
X120935714Y-65222380D01*
X126666666Y-70572380D02*
X126666666Y-71286666D01*
X126619047Y-71429523D01*
X126523809Y-71524761D01*
X126380952Y-71572380D01*
X126285714Y-71572380D01*
X127285714Y-71000952D02*
X127190476Y-70953333D01*
X127142857Y-70905714D01*
X127095238Y-70810476D01*
X127095238Y-70762857D01*
X127142857Y-70667619D01*
X127190476Y-70620000D01*
X127285714Y-70572380D01*
X127476190Y-70572380D01*
X127571428Y-70620000D01*
X127619047Y-70667619D01*
X127666666Y-70762857D01*
X127666666Y-70810476D01*
X127619047Y-70905714D01*
X127571428Y-70953333D01*
X127476190Y-71000952D01*
X127285714Y-71000952D01*
X127190476Y-71048571D01*
X127142857Y-71096190D01*
X127095238Y-71191428D01*
X127095238Y-71381904D01*
X127142857Y-71477142D01*
X127190476Y-71524761D01*
X127285714Y-71572380D01*
X127476190Y-71572380D01*
X127571428Y-71524761D01*
X127619047Y-71477142D01*
X127666666Y-71381904D01*
X127666666Y-71191428D01*
X127619047Y-71096190D01*
X127571428Y-71048571D01*
X127476190Y-71000952D01*
X136826666Y-70572380D02*
X136826666Y-71286666D01*
X136779047Y-71429523D01*
X136683809Y-71524761D01*
X136540952Y-71572380D01*
X136445714Y-71572380D01*
X137350476Y-71572380D02*
X137540952Y-71572380D01*
X137636190Y-71524761D01*
X137683809Y-71477142D01*
X137779047Y-71334285D01*
X137826666Y-71143809D01*
X137826666Y-70762857D01*
X137779047Y-70667619D01*
X137731428Y-70620000D01*
X137636190Y-70572380D01*
X137445714Y-70572380D01*
X137350476Y-70620000D01*
X137302857Y-70667619D01*
X137255238Y-70762857D01*
X137255238Y-71000952D01*
X137302857Y-71096190D01*
X137350476Y-71143809D01*
X137445714Y-71191428D01*
X137636190Y-71191428D01*
X137731428Y-71143809D01*
X137779047Y-71096190D01*
X137826666Y-71000952D01*
X147780476Y-64222380D02*
X147780476Y-64936666D01*
X147732857Y-65079523D01*
X147637619Y-65174761D01*
X147494761Y-65222380D01*
X147399523Y-65222380D01*
X148780476Y-65222380D02*
X148209047Y-65222380D01*
X148494761Y-65222380D02*
X148494761Y-64222380D01*
X148399523Y-64365238D01*
X148304285Y-64460476D01*
X148209047Y-64508095D01*
X149732857Y-65222380D02*
X149161428Y-65222380D01*
X149447142Y-65222380D02*
X149447142Y-64222380D01*
X149351904Y-64365238D01*
X149256666Y-64460476D01*
X149161428Y-64508095D01*
X142700476Y-64222380D02*
X142700476Y-64936666D01*
X142652857Y-65079523D01*
X142557619Y-65174761D01*
X142414761Y-65222380D01*
X142319523Y-65222380D01*
X143700476Y-65222380D02*
X143129047Y-65222380D01*
X143414761Y-65222380D02*
X143414761Y-64222380D01*
X143319523Y-64365238D01*
X143224285Y-64460476D01*
X143129047Y-64508095D01*
X144319523Y-64222380D02*
X144414761Y-64222380D01*
X144510000Y-64270000D01*
X144557619Y-64317619D01*
X144605238Y-64412857D01*
X144652857Y-64603333D01*
X144652857Y-64841428D01*
X144605238Y-65031904D01*
X144557619Y-65127142D01*
X144510000Y-65174761D01*
X144414761Y-65222380D01*
X144319523Y-65222380D01*
X144224285Y-65174761D01*
X144176666Y-65127142D01*
X144129047Y-65031904D01*
X144081428Y-64841428D01*
X144081428Y-64603333D01*
X144129047Y-64412857D01*
X144176666Y-64317619D01*
X144224285Y-64270000D01*
X144319523Y-64222380D01*
M02*
