G04 #@! TF.GenerationSoftware,KiCad,Pcbnew,(5.1.5-0)*
G04 #@! TF.CreationDate,2020-04-02T18:54:50-07:00*
G04 #@! TF.ProjectId,Attenuator,41747465-6e75-4617-946f-722e6b696361,rev?*
G04 #@! TF.SameCoordinates,Original*
G04 #@! TF.FileFunction,Copper,L2,Bot*
G04 #@! TF.FilePolarity,Positive*
%FSLAX46Y46*%
G04 Gerber Fmt 4.6, Leading zero omitted, Abs format (unit mm)*
G04 Created by KiCad (PCBNEW (5.1.5-0)) date 2020-04-02 18:54:50*
%MOMM*%
%LPD*%
G04 APERTURE LIST*
%ADD10C,1.600000*%
%ADD11O,1.600000X1.600000*%
%ADD12R,2.420000X5.080000*%
%ADD13C,0.970000*%
%ADD14R,0.460000X0.950000*%
%ADD15R,1.700000X1.700000*%
%ADD16O,1.700000X1.700000*%
%ADD17C,1.000000*%
%ADD18C,0.800000*%
%ADD19C,0.254000*%
G04 APERTURE END LIST*
D10*
X149860000Y-78740000D03*
D11*
X149860000Y-86360000D03*
D12*
X94550000Y-53652000D03*
X85790000Y-53652000D03*
D13*
X94550000Y-57092000D03*
X85790000Y-57092000D03*
D14*
X94550000Y-56642000D03*
X85790000Y-56642000D03*
X141670000Y-56642000D03*
X150430000Y-56642000D03*
D13*
X141670000Y-57092000D03*
X150430000Y-57092000D03*
D12*
X141670000Y-53652000D03*
X150430000Y-53652000D03*
D10*
X86360000Y-78740000D03*
D11*
X86360000Y-86360000D03*
D10*
X93980000Y-74930000D03*
D11*
X86360000Y-74930000D03*
X93980000Y-86360000D03*
D10*
X93980000Y-78740000D03*
D11*
X100330000Y-86360000D03*
D10*
X100330000Y-78740000D03*
D11*
X100330000Y-74930000D03*
D10*
X107950000Y-74930000D03*
X107950000Y-78740000D03*
D11*
X107950000Y-86360000D03*
D10*
X114300000Y-78740000D03*
D11*
X114300000Y-86360000D03*
D10*
X121920000Y-74930000D03*
D11*
X114300000Y-74930000D03*
X121920000Y-86360000D03*
D10*
X121920000Y-78740000D03*
D11*
X128270000Y-86360000D03*
D10*
X128270000Y-78740000D03*
D11*
X128270000Y-74930000D03*
D10*
X135890000Y-74930000D03*
X135890000Y-78740000D03*
D11*
X135890000Y-86360000D03*
D10*
X142240000Y-78740000D03*
D11*
X142240000Y-86360000D03*
X142240000Y-74930000D03*
D10*
X149860000Y-74930000D03*
D15*
X87630000Y-62230000D03*
D16*
X85090000Y-62230000D03*
X82550000Y-62230000D03*
D15*
X97790000Y-62230000D03*
D16*
X95250000Y-62230000D03*
X92710000Y-62230000D03*
X96520000Y-68580000D03*
X99060000Y-68580000D03*
D15*
X101600000Y-68580000D03*
X111760000Y-68580000D03*
D16*
X109220000Y-68580000D03*
X106680000Y-68580000D03*
X110490000Y-62230000D03*
X113030000Y-62230000D03*
D15*
X115570000Y-62230000D03*
X125730000Y-62230000D03*
D16*
X123190000Y-62230000D03*
X120650000Y-62230000D03*
X124460000Y-68580000D03*
X127000000Y-68580000D03*
D15*
X129540000Y-68580000D03*
X139700000Y-68580000D03*
D16*
X137160000Y-68580000D03*
X134620000Y-68580000D03*
X148590000Y-62230000D03*
X151130000Y-62230000D03*
D15*
X153670000Y-62230000D03*
X143510000Y-62230000D03*
D16*
X140970000Y-62230000D03*
X138430000Y-62230000D03*
D17*
X85090000Y-59690000D03*
X93980000Y-64770000D03*
X97790000Y-64770000D03*
X111760000Y-74930000D03*
X125730000Y-64770000D03*
X121920000Y-64770000D03*
X138430000Y-64770000D03*
X142240000Y-64770000D03*
X82550000Y-64770000D03*
X86360000Y-64770000D03*
X96520000Y-74930000D03*
X110490000Y-64770000D03*
X114300000Y-64770000D03*
X124460000Y-74930000D03*
X139700000Y-74930000D03*
X153670000Y-64770000D03*
X149860000Y-64770000D03*
X151130000Y-59690000D03*
D18*
X85090000Y-59690000D02*
X85090000Y-62230000D01*
X93980000Y-74930000D02*
X93980000Y-64770000D01*
X97790000Y-64770000D02*
X97790000Y-62230000D01*
X93980000Y-74930000D02*
X93980000Y-78740000D01*
X113030000Y-62230000D02*
X113030000Y-64770000D01*
X109220000Y-68580000D02*
X109220000Y-66040000D01*
X109220000Y-66040000D02*
X113030000Y-66040000D01*
X113030000Y-66040000D02*
X113030000Y-64770000D01*
X107950000Y-78740000D02*
X107950000Y-74930000D01*
X111760000Y-74930000D02*
X111760000Y-68580000D01*
X125730000Y-62230000D02*
X125730000Y-64770000D01*
X121920000Y-64770000D02*
X121920000Y-74930000D01*
X121920000Y-74930000D02*
X121920000Y-78740000D01*
X138430000Y-62230000D02*
X138430000Y-64770000D01*
X142240000Y-64770000D02*
X142240000Y-74930000D01*
X142240000Y-74930000D02*
X142240000Y-78740000D01*
X140970000Y-63858002D02*
X140970000Y-62230000D01*
X140970000Y-66040000D02*
X140970000Y-63858002D01*
X137160000Y-66040000D02*
X140970000Y-66040000D01*
X137160000Y-68580000D02*
X137160000Y-66040000D01*
X86360000Y-74930000D02*
X86360000Y-78740000D01*
X82550000Y-62230000D02*
X82550000Y-64770000D01*
X86360000Y-64770000D02*
X86360000Y-74930000D01*
X95250000Y-64770000D02*
X99060000Y-68580000D01*
X95250000Y-62230000D02*
X95250000Y-64770000D01*
X96520000Y-68580000D02*
X96520000Y-74930000D01*
X100330000Y-74930000D02*
X100330000Y-78740000D01*
X110490000Y-62230000D02*
X110490000Y-64770000D01*
X114300000Y-64770000D02*
X114300000Y-74930000D01*
X114300000Y-74930000D02*
X114300000Y-78740000D01*
X123190000Y-64770000D02*
X127000000Y-68580000D01*
X123190000Y-62230000D02*
X123190000Y-64770000D01*
X124460000Y-68580000D02*
X124460000Y-74930000D01*
X128270000Y-74930000D02*
X128270000Y-78740000D01*
X139700000Y-68580000D02*
X139700000Y-74930000D01*
X135890000Y-78740000D02*
X135890000Y-74930000D01*
X153670000Y-62230000D02*
X153670000Y-64770000D01*
X149860000Y-64770000D02*
X149860000Y-74930000D01*
X149860000Y-78740000D02*
X149860000Y-74930000D01*
X151130000Y-62230000D02*
X151130000Y-59690000D01*
D19*
G36*
X83945000Y-53366250D02*
G01*
X84103750Y-53525000D01*
X85663000Y-53525000D01*
X85663000Y-53505000D01*
X85917000Y-53505000D01*
X85917000Y-53525000D01*
X87476250Y-53525000D01*
X87635000Y-53366250D01*
X87637598Y-51460000D01*
X92702402Y-51460000D01*
X92705000Y-53366250D01*
X92863750Y-53525000D01*
X94423000Y-53525000D01*
X94423000Y-53505000D01*
X94677000Y-53505000D01*
X94677000Y-53525000D01*
X96236250Y-53525000D01*
X96395000Y-53366250D01*
X96397598Y-51460000D01*
X139822402Y-51460000D01*
X139825000Y-53366250D01*
X139983750Y-53525000D01*
X141543000Y-53525000D01*
X141543000Y-53505000D01*
X141797000Y-53505000D01*
X141797000Y-53525000D01*
X143356250Y-53525000D01*
X143515000Y-53366250D01*
X143517598Y-51460000D01*
X148582402Y-51460000D01*
X148585000Y-53366250D01*
X148743750Y-53525000D01*
X150303000Y-53525000D01*
X150303000Y-53505000D01*
X150557000Y-53505000D01*
X150557000Y-53525000D01*
X152116250Y-53525000D01*
X152275000Y-53366250D01*
X152277598Y-51460000D01*
X155550001Y-51460000D01*
X155550000Y-88240000D01*
X80670000Y-88240000D01*
X80670000Y-86709040D01*
X84968091Y-86709040D01*
X85062930Y-86973881D01*
X85207615Y-87215131D01*
X85396586Y-87423519D01*
X85622580Y-87591037D01*
X85876913Y-87711246D01*
X86010961Y-87751904D01*
X86233000Y-87629915D01*
X86233000Y-86487000D01*
X86487000Y-86487000D01*
X86487000Y-87629915D01*
X86709039Y-87751904D01*
X86843087Y-87711246D01*
X87097420Y-87591037D01*
X87323414Y-87423519D01*
X87512385Y-87215131D01*
X87657070Y-86973881D01*
X87751909Y-86709040D01*
X92588091Y-86709040D01*
X92682930Y-86973881D01*
X92827615Y-87215131D01*
X93016586Y-87423519D01*
X93242580Y-87591037D01*
X93496913Y-87711246D01*
X93630961Y-87751904D01*
X93853000Y-87629915D01*
X93853000Y-86487000D01*
X94107000Y-86487000D01*
X94107000Y-87629915D01*
X94329039Y-87751904D01*
X94463087Y-87711246D01*
X94717420Y-87591037D01*
X94943414Y-87423519D01*
X95132385Y-87215131D01*
X95277070Y-86973881D01*
X95371909Y-86709040D01*
X98938091Y-86709040D01*
X99032930Y-86973881D01*
X99177615Y-87215131D01*
X99366586Y-87423519D01*
X99592580Y-87591037D01*
X99846913Y-87711246D01*
X99980961Y-87751904D01*
X100203000Y-87629915D01*
X100203000Y-86487000D01*
X100457000Y-86487000D01*
X100457000Y-87629915D01*
X100679039Y-87751904D01*
X100813087Y-87711246D01*
X101067420Y-87591037D01*
X101293414Y-87423519D01*
X101482385Y-87215131D01*
X101627070Y-86973881D01*
X101721909Y-86709040D01*
X106558091Y-86709040D01*
X106652930Y-86973881D01*
X106797615Y-87215131D01*
X106986586Y-87423519D01*
X107212580Y-87591037D01*
X107466913Y-87711246D01*
X107600961Y-87751904D01*
X107823000Y-87629915D01*
X107823000Y-86487000D01*
X108077000Y-86487000D01*
X108077000Y-87629915D01*
X108299039Y-87751904D01*
X108433087Y-87711246D01*
X108687420Y-87591037D01*
X108913414Y-87423519D01*
X109102385Y-87215131D01*
X109247070Y-86973881D01*
X109341909Y-86709040D01*
X112908091Y-86709040D01*
X113002930Y-86973881D01*
X113147615Y-87215131D01*
X113336586Y-87423519D01*
X113562580Y-87591037D01*
X113816913Y-87711246D01*
X113950961Y-87751904D01*
X114173000Y-87629915D01*
X114173000Y-86487000D01*
X114427000Y-86487000D01*
X114427000Y-87629915D01*
X114649039Y-87751904D01*
X114783087Y-87711246D01*
X115037420Y-87591037D01*
X115263414Y-87423519D01*
X115452385Y-87215131D01*
X115597070Y-86973881D01*
X115691909Y-86709040D01*
X120528091Y-86709040D01*
X120622930Y-86973881D01*
X120767615Y-87215131D01*
X120956586Y-87423519D01*
X121182580Y-87591037D01*
X121436913Y-87711246D01*
X121570961Y-87751904D01*
X121793000Y-87629915D01*
X121793000Y-86487000D01*
X122047000Y-86487000D01*
X122047000Y-87629915D01*
X122269039Y-87751904D01*
X122403087Y-87711246D01*
X122657420Y-87591037D01*
X122883414Y-87423519D01*
X123072385Y-87215131D01*
X123217070Y-86973881D01*
X123311909Y-86709040D01*
X126878091Y-86709040D01*
X126972930Y-86973881D01*
X127117615Y-87215131D01*
X127306586Y-87423519D01*
X127532580Y-87591037D01*
X127786913Y-87711246D01*
X127920961Y-87751904D01*
X128143000Y-87629915D01*
X128143000Y-86487000D01*
X128397000Y-86487000D01*
X128397000Y-87629915D01*
X128619039Y-87751904D01*
X128753087Y-87711246D01*
X129007420Y-87591037D01*
X129233414Y-87423519D01*
X129422385Y-87215131D01*
X129567070Y-86973881D01*
X129661909Y-86709040D01*
X134498091Y-86709040D01*
X134592930Y-86973881D01*
X134737615Y-87215131D01*
X134926586Y-87423519D01*
X135152580Y-87591037D01*
X135406913Y-87711246D01*
X135540961Y-87751904D01*
X135763000Y-87629915D01*
X135763000Y-86487000D01*
X136017000Y-86487000D01*
X136017000Y-87629915D01*
X136239039Y-87751904D01*
X136373087Y-87711246D01*
X136627420Y-87591037D01*
X136853414Y-87423519D01*
X137042385Y-87215131D01*
X137187070Y-86973881D01*
X137281909Y-86709040D01*
X140848091Y-86709040D01*
X140942930Y-86973881D01*
X141087615Y-87215131D01*
X141276586Y-87423519D01*
X141502580Y-87591037D01*
X141756913Y-87711246D01*
X141890961Y-87751904D01*
X142113000Y-87629915D01*
X142113000Y-86487000D01*
X142367000Y-86487000D01*
X142367000Y-87629915D01*
X142589039Y-87751904D01*
X142723087Y-87711246D01*
X142977420Y-87591037D01*
X143203414Y-87423519D01*
X143392385Y-87215131D01*
X143537070Y-86973881D01*
X143631909Y-86709040D01*
X148468091Y-86709040D01*
X148562930Y-86973881D01*
X148707615Y-87215131D01*
X148896586Y-87423519D01*
X149122580Y-87591037D01*
X149376913Y-87711246D01*
X149510961Y-87751904D01*
X149733000Y-87629915D01*
X149733000Y-86487000D01*
X149987000Y-86487000D01*
X149987000Y-87629915D01*
X150209039Y-87751904D01*
X150343087Y-87711246D01*
X150597420Y-87591037D01*
X150823414Y-87423519D01*
X151012385Y-87215131D01*
X151157070Y-86973881D01*
X151251909Y-86709040D01*
X151130624Y-86487000D01*
X149987000Y-86487000D01*
X149733000Y-86487000D01*
X148589376Y-86487000D01*
X148468091Y-86709040D01*
X143631909Y-86709040D01*
X143510624Y-86487000D01*
X142367000Y-86487000D01*
X142113000Y-86487000D01*
X140969376Y-86487000D01*
X140848091Y-86709040D01*
X137281909Y-86709040D01*
X137160624Y-86487000D01*
X136017000Y-86487000D01*
X135763000Y-86487000D01*
X134619376Y-86487000D01*
X134498091Y-86709040D01*
X129661909Y-86709040D01*
X129540624Y-86487000D01*
X128397000Y-86487000D01*
X128143000Y-86487000D01*
X126999376Y-86487000D01*
X126878091Y-86709040D01*
X123311909Y-86709040D01*
X123190624Y-86487000D01*
X122047000Y-86487000D01*
X121793000Y-86487000D01*
X120649376Y-86487000D01*
X120528091Y-86709040D01*
X115691909Y-86709040D01*
X115570624Y-86487000D01*
X114427000Y-86487000D01*
X114173000Y-86487000D01*
X113029376Y-86487000D01*
X112908091Y-86709040D01*
X109341909Y-86709040D01*
X109220624Y-86487000D01*
X108077000Y-86487000D01*
X107823000Y-86487000D01*
X106679376Y-86487000D01*
X106558091Y-86709040D01*
X101721909Y-86709040D01*
X101600624Y-86487000D01*
X100457000Y-86487000D01*
X100203000Y-86487000D01*
X99059376Y-86487000D01*
X98938091Y-86709040D01*
X95371909Y-86709040D01*
X95250624Y-86487000D01*
X94107000Y-86487000D01*
X93853000Y-86487000D01*
X92709376Y-86487000D01*
X92588091Y-86709040D01*
X87751909Y-86709040D01*
X87630624Y-86487000D01*
X86487000Y-86487000D01*
X86233000Y-86487000D01*
X85089376Y-86487000D01*
X84968091Y-86709040D01*
X80670000Y-86709040D01*
X80670000Y-86010960D01*
X84968091Y-86010960D01*
X85089376Y-86233000D01*
X86233000Y-86233000D01*
X86233000Y-85090085D01*
X86487000Y-85090085D01*
X86487000Y-86233000D01*
X87630624Y-86233000D01*
X87751909Y-86010960D01*
X92588091Y-86010960D01*
X92709376Y-86233000D01*
X93853000Y-86233000D01*
X93853000Y-85090085D01*
X94107000Y-85090085D01*
X94107000Y-86233000D01*
X95250624Y-86233000D01*
X95371909Y-86010960D01*
X98938091Y-86010960D01*
X99059376Y-86233000D01*
X100203000Y-86233000D01*
X100203000Y-85090085D01*
X100457000Y-85090085D01*
X100457000Y-86233000D01*
X101600624Y-86233000D01*
X101721909Y-86010960D01*
X106558091Y-86010960D01*
X106679376Y-86233000D01*
X107823000Y-86233000D01*
X107823000Y-85090085D01*
X108077000Y-85090085D01*
X108077000Y-86233000D01*
X109220624Y-86233000D01*
X109341909Y-86010960D01*
X112908091Y-86010960D01*
X113029376Y-86233000D01*
X114173000Y-86233000D01*
X114173000Y-85090085D01*
X114427000Y-85090085D01*
X114427000Y-86233000D01*
X115570624Y-86233000D01*
X115691909Y-86010960D01*
X120528091Y-86010960D01*
X120649376Y-86233000D01*
X121793000Y-86233000D01*
X121793000Y-85090085D01*
X122047000Y-85090085D01*
X122047000Y-86233000D01*
X123190624Y-86233000D01*
X123311909Y-86010960D01*
X126878091Y-86010960D01*
X126999376Y-86233000D01*
X128143000Y-86233000D01*
X128143000Y-85090085D01*
X128397000Y-85090085D01*
X128397000Y-86233000D01*
X129540624Y-86233000D01*
X129661909Y-86010960D01*
X134498091Y-86010960D01*
X134619376Y-86233000D01*
X135763000Y-86233000D01*
X135763000Y-85090085D01*
X136017000Y-85090085D01*
X136017000Y-86233000D01*
X137160624Y-86233000D01*
X137281909Y-86010960D01*
X140848091Y-86010960D01*
X140969376Y-86233000D01*
X142113000Y-86233000D01*
X142113000Y-85090085D01*
X142367000Y-85090085D01*
X142367000Y-86233000D01*
X143510624Y-86233000D01*
X143631909Y-86010960D01*
X148468091Y-86010960D01*
X148589376Y-86233000D01*
X149733000Y-86233000D01*
X149733000Y-85090085D01*
X149987000Y-85090085D01*
X149987000Y-86233000D01*
X151130624Y-86233000D01*
X151251909Y-86010960D01*
X151157070Y-85746119D01*
X151012385Y-85504869D01*
X150823414Y-85296481D01*
X150597420Y-85128963D01*
X150343087Y-85008754D01*
X150209039Y-84968096D01*
X149987000Y-85090085D01*
X149733000Y-85090085D01*
X149510961Y-84968096D01*
X149376913Y-85008754D01*
X149122580Y-85128963D01*
X148896586Y-85296481D01*
X148707615Y-85504869D01*
X148562930Y-85746119D01*
X148468091Y-86010960D01*
X143631909Y-86010960D01*
X143537070Y-85746119D01*
X143392385Y-85504869D01*
X143203414Y-85296481D01*
X142977420Y-85128963D01*
X142723087Y-85008754D01*
X142589039Y-84968096D01*
X142367000Y-85090085D01*
X142113000Y-85090085D01*
X141890961Y-84968096D01*
X141756913Y-85008754D01*
X141502580Y-85128963D01*
X141276586Y-85296481D01*
X141087615Y-85504869D01*
X140942930Y-85746119D01*
X140848091Y-86010960D01*
X137281909Y-86010960D01*
X137187070Y-85746119D01*
X137042385Y-85504869D01*
X136853414Y-85296481D01*
X136627420Y-85128963D01*
X136373087Y-85008754D01*
X136239039Y-84968096D01*
X136017000Y-85090085D01*
X135763000Y-85090085D01*
X135540961Y-84968096D01*
X135406913Y-85008754D01*
X135152580Y-85128963D01*
X134926586Y-85296481D01*
X134737615Y-85504869D01*
X134592930Y-85746119D01*
X134498091Y-86010960D01*
X129661909Y-86010960D01*
X129567070Y-85746119D01*
X129422385Y-85504869D01*
X129233414Y-85296481D01*
X129007420Y-85128963D01*
X128753087Y-85008754D01*
X128619039Y-84968096D01*
X128397000Y-85090085D01*
X128143000Y-85090085D01*
X127920961Y-84968096D01*
X127786913Y-85008754D01*
X127532580Y-85128963D01*
X127306586Y-85296481D01*
X127117615Y-85504869D01*
X126972930Y-85746119D01*
X126878091Y-86010960D01*
X123311909Y-86010960D01*
X123217070Y-85746119D01*
X123072385Y-85504869D01*
X122883414Y-85296481D01*
X122657420Y-85128963D01*
X122403087Y-85008754D01*
X122269039Y-84968096D01*
X122047000Y-85090085D01*
X121793000Y-85090085D01*
X121570961Y-84968096D01*
X121436913Y-85008754D01*
X121182580Y-85128963D01*
X120956586Y-85296481D01*
X120767615Y-85504869D01*
X120622930Y-85746119D01*
X120528091Y-86010960D01*
X115691909Y-86010960D01*
X115597070Y-85746119D01*
X115452385Y-85504869D01*
X115263414Y-85296481D01*
X115037420Y-85128963D01*
X114783087Y-85008754D01*
X114649039Y-84968096D01*
X114427000Y-85090085D01*
X114173000Y-85090085D01*
X113950961Y-84968096D01*
X113816913Y-85008754D01*
X113562580Y-85128963D01*
X113336586Y-85296481D01*
X113147615Y-85504869D01*
X113002930Y-85746119D01*
X112908091Y-86010960D01*
X109341909Y-86010960D01*
X109247070Y-85746119D01*
X109102385Y-85504869D01*
X108913414Y-85296481D01*
X108687420Y-85128963D01*
X108433087Y-85008754D01*
X108299039Y-84968096D01*
X108077000Y-85090085D01*
X107823000Y-85090085D01*
X107600961Y-84968096D01*
X107466913Y-85008754D01*
X107212580Y-85128963D01*
X106986586Y-85296481D01*
X106797615Y-85504869D01*
X106652930Y-85746119D01*
X106558091Y-86010960D01*
X101721909Y-86010960D01*
X101627070Y-85746119D01*
X101482385Y-85504869D01*
X101293414Y-85296481D01*
X101067420Y-85128963D01*
X100813087Y-85008754D01*
X100679039Y-84968096D01*
X100457000Y-85090085D01*
X100203000Y-85090085D01*
X99980961Y-84968096D01*
X99846913Y-85008754D01*
X99592580Y-85128963D01*
X99366586Y-85296481D01*
X99177615Y-85504869D01*
X99032930Y-85746119D01*
X98938091Y-86010960D01*
X95371909Y-86010960D01*
X95277070Y-85746119D01*
X95132385Y-85504869D01*
X94943414Y-85296481D01*
X94717420Y-85128963D01*
X94463087Y-85008754D01*
X94329039Y-84968096D01*
X94107000Y-85090085D01*
X93853000Y-85090085D01*
X93630961Y-84968096D01*
X93496913Y-85008754D01*
X93242580Y-85128963D01*
X93016586Y-85296481D01*
X92827615Y-85504869D01*
X92682930Y-85746119D01*
X92588091Y-86010960D01*
X87751909Y-86010960D01*
X87657070Y-85746119D01*
X87512385Y-85504869D01*
X87323414Y-85296481D01*
X87097420Y-85128963D01*
X86843087Y-85008754D01*
X86709039Y-84968096D01*
X86487000Y-85090085D01*
X86233000Y-85090085D01*
X86010961Y-84968096D01*
X85876913Y-85008754D01*
X85622580Y-85128963D01*
X85396586Y-85296481D01*
X85207615Y-85504869D01*
X85062930Y-85746119D01*
X84968091Y-86010960D01*
X80670000Y-86010960D01*
X80670000Y-62083740D01*
X81065000Y-62083740D01*
X81065000Y-62376260D01*
X81122068Y-62663158D01*
X81234010Y-62933411D01*
X81396525Y-63176632D01*
X81515000Y-63295107D01*
X81515001Y-64302811D01*
X81458617Y-64438933D01*
X81415000Y-64658212D01*
X81415000Y-64881788D01*
X81458617Y-65101067D01*
X81544176Y-65307624D01*
X81668388Y-65493520D01*
X81826480Y-65651612D01*
X82012376Y-65775824D01*
X82218933Y-65861383D01*
X82438212Y-65905000D01*
X82661788Y-65905000D01*
X82881067Y-65861383D01*
X83087624Y-65775824D01*
X83273520Y-65651612D01*
X83431612Y-65493520D01*
X83555824Y-65307624D01*
X83641383Y-65101067D01*
X83685000Y-64881788D01*
X83685000Y-64658212D01*
X83641383Y-64438933D01*
X83585000Y-64302813D01*
X83585000Y-63295107D01*
X83703475Y-63176632D01*
X83820000Y-63002240D01*
X83936525Y-63176632D01*
X84143368Y-63383475D01*
X84386589Y-63545990D01*
X84656842Y-63657932D01*
X84943740Y-63715000D01*
X85236260Y-63715000D01*
X85523158Y-63657932D01*
X85793411Y-63545990D01*
X86036632Y-63383475D01*
X86168487Y-63251620D01*
X86190498Y-63324180D01*
X86249463Y-63434494D01*
X86328815Y-63531185D01*
X86425506Y-63610537D01*
X86471272Y-63635000D01*
X86248212Y-63635000D01*
X86028933Y-63678617D01*
X85822376Y-63764176D01*
X85636480Y-63888388D01*
X85478388Y-64046480D01*
X85354176Y-64232376D01*
X85268617Y-64438933D01*
X85225000Y-64658212D01*
X85225000Y-64881788D01*
X85268617Y-65101067D01*
X85325000Y-65237187D01*
X85325001Y-73935603D01*
X85245363Y-74015241D01*
X85088320Y-74250273D01*
X84980147Y-74511426D01*
X84925000Y-74788665D01*
X84925000Y-75071335D01*
X84980147Y-75348574D01*
X85088320Y-75609727D01*
X85245363Y-75844759D01*
X85325000Y-75924396D01*
X85325001Y-77745603D01*
X85245363Y-77825241D01*
X85088320Y-78060273D01*
X84980147Y-78321426D01*
X84925000Y-78598665D01*
X84925000Y-78881335D01*
X84980147Y-79158574D01*
X85088320Y-79419727D01*
X85245363Y-79654759D01*
X85445241Y-79854637D01*
X85680273Y-80011680D01*
X85941426Y-80119853D01*
X86218665Y-80175000D01*
X86501335Y-80175000D01*
X86778574Y-80119853D01*
X87039727Y-80011680D01*
X87274759Y-79854637D01*
X87474637Y-79654759D01*
X87631680Y-79419727D01*
X87739853Y-79158574D01*
X87795000Y-78881335D01*
X87795000Y-78598665D01*
X87739853Y-78321426D01*
X87631680Y-78060273D01*
X87474637Y-77825241D01*
X87395000Y-77745604D01*
X87395000Y-75924396D01*
X87474637Y-75844759D01*
X87631680Y-75609727D01*
X87739853Y-75348574D01*
X87795000Y-75071335D01*
X87795000Y-74788665D01*
X87739853Y-74511426D01*
X87631680Y-74250273D01*
X87474637Y-74015241D01*
X87395000Y-73935604D01*
X87395000Y-65237187D01*
X87451383Y-65101067D01*
X87495000Y-64881788D01*
X87495000Y-64658212D01*
X87451383Y-64438933D01*
X87365824Y-64232376D01*
X87241612Y-64046480D01*
X87083520Y-63888388D01*
X86897624Y-63764176D01*
X86786319Y-63718072D01*
X88480000Y-63718072D01*
X88604482Y-63705812D01*
X88724180Y-63669502D01*
X88834494Y-63610537D01*
X88931185Y-63531185D01*
X89010537Y-63434494D01*
X89069502Y-63324180D01*
X89105812Y-63204482D01*
X89118072Y-63080000D01*
X89118072Y-62083740D01*
X91225000Y-62083740D01*
X91225000Y-62376260D01*
X91282068Y-62663158D01*
X91394010Y-62933411D01*
X91556525Y-63176632D01*
X91763368Y-63383475D01*
X92006589Y-63545990D01*
X92276842Y-63657932D01*
X92563740Y-63715000D01*
X92856260Y-63715000D01*
X93143158Y-63657932D01*
X93413411Y-63545990D01*
X93656632Y-63383475D01*
X93863475Y-63176632D01*
X93980000Y-63002240D01*
X94096525Y-63176632D01*
X94215000Y-63295107D01*
X94215001Y-63659508D01*
X94091788Y-63635000D01*
X93868212Y-63635000D01*
X93648933Y-63678617D01*
X93442376Y-63764176D01*
X93256480Y-63888388D01*
X93098388Y-64046480D01*
X92974176Y-64232376D01*
X92888617Y-64438933D01*
X92845000Y-64658212D01*
X92845000Y-64881788D01*
X92888617Y-65101067D01*
X92945001Y-65237189D01*
X92945000Y-73935604D01*
X92865363Y-74015241D01*
X92708320Y-74250273D01*
X92600147Y-74511426D01*
X92545000Y-74788665D01*
X92545000Y-75071335D01*
X92600147Y-75348574D01*
X92708320Y-75609727D01*
X92865363Y-75844759D01*
X92945000Y-75924396D01*
X92945001Y-77745603D01*
X92865363Y-77825241D01*
X92708320Y-78060273D01*
X92600147Y-78321426D01*
X92545000Y-78598665D01*
X92545000Y-78881335D01*
X92600147Y-79158574D01*
X92708320Y-79419727D01*
X92865363Y-79654759D01*
X93065241Y-79854637D01*
X93300273Y-80011680D01*
X93561426Y-80119853D01*
X93838665Y-80175000D01*
X94121335Y-80175000D01*
X94398574Y-80119853D01*
X94659727Y-80011680D01*
X94894759Y-79854637D01*
X95094637Y-79654759D01*
X95251680Y-79419727D01*
X95359853Y-79158574D01*
X95415000Y-78881335D01*
X95415000Y-78598665D01*
X95359853Y-78321426D01*
X95251680Y-78060273D01*
X95094637Y-77825241D01*
X95015000Y-77745604D01*
X95015000Y-75924396D01*
X95094637Y-75844759D01*
X95251680Y-75609727D01*
X95359853Y-75348574D01*
X95402938Y-75131972D01*
X95428617Y-75261067D01*
X95514176Y-75467624D01*
X95638388Y-75653520D01*
X95796480Y-75811612D01*
X95982376Y-75935824D01*
X96188933Y-76021383D01*
X96408212Y-76065000D01*
X96631788Y-76065000D01*
X96851067Y-76021383D01*
X97057624Y-75935824D01*
X97243520Y-75811612D01*
X97401612Y-75653520D01*
X97525824Y-75467624D01*
X97611383Y-75261067D01*
X97655000Y-75041788D01*
X97655000Y-74818212D01*
X97649123Y-74788665D01*
X98895000Y-74788665D01*
X98895000Y-75071335D01*
X98950147Y-75348574D01*
X99058320Y-75609727D01*
X99215363Y-75844759D01*
X99295000Y-75924396D01*
X99295001Y-77745603D01*
X99215363Y-77825241D01*
X99058320Y-78060273D01*
X98950147Y-78321426D01*
X98895000Y-78598665D01*
X98895000Y-78881335D01*
X98950147Y-79158574D01*
X99058320Y-79419727D01*
X99215363Y-79654759D01*
X99415241Y-79854637D01*
X99650273Y-80011680D01*
X99911426Y-80119853D01*
X100188665Y-80175000D01*
X100471335Y-80175000D01*
X100748574Y-80119853D01*
X101009727Y-80011680D01*
X101244759Y-79854637D01*
X101444637Y-79654759D01*
X101601680Y-79419727D01*
X101709853Y-79158574D01*
X101765000Y-78881335D01*
X101765000Y-78598665D01*
X101709853Y-78321426D01*
X101601680Y-78060273D01*
X101444637Y-77825241D01*
X101365000Y-77745604D01*
X101365000Y-75924396D01*
X101444637Y-75844759D01*
X101601680Y-75609727D01*
X101709853Y-75348574D01*
X101765000Y-75071335D01*
X101765000Y-74788665D01*
X106515000Y-74788665D01*
X106515000Y-75071335D01*
X106570147Y-75348574D01*
X106678320Y-75609727D01*
X106835363Y-75844759D01*
X106915001Y-75924397D01*
X106915000Y-77745604D01*
X106835363Y-77825241D01*
X106678320Y-78060273D01*
X106570147Y-78321426D01*
X106515000Y-78598665D01*
X106515000Y-78881335D01*
X106570147Y-79158574D01*
X106678320Y-79419727D01*
X106835363Y-79654759D01*
X107035241Y-79854637D01*
X107270273Y-80011680D01*
X107531426Y-80119853D01*
X107808665Y-80175000D01*
X108091335Y-80175000D01*
X108368574Y-80119853D01*
X108629727Y-80011680D01*
X108864759Y-79854637D01*
X109064637Y-79654759D01*
X109221680Y-79419727D01*
X109329853Y-79158574D01*
X109385000Y-78881335D01*
X109385000Y-78598665D01*
X109329853Y-78321426D01*
X109221680Y-78060273D01*
X109064637Y-77825241D01*
X108985000Y-77745604D01*
X108985000Y-75924396D01*
X109064637Y-75844759D01*
X109221680Y-75609727D01*
X109329853Y-75348574D01*
X109385000Y-75071335D01*
X109385000Y-74788665D01*
X109329853Y-74511426D01*
X109221680Y-74250273D01*
X109064637Y-74015241D01*
X108864759Y-73815363D01*
X108629727Y-73658320D01*
X108368574Y-73550147D01*
X108091335Y-73495000D01*
X107808665Y-73495000D01*
X107531426Y-73550147D01*
X107270273Y-73658320D01*
X107035241Y-73815363D01*
X106835363Y-74015241D01*
X106678320Y-74250273D01*
X106570147Y-74511426D01*
X106515000Y-74788665D01*
X101765000Y-74788665D01*
X101709853Y-74511426D01*
X101601680Y-74250273D01*
X101444637Y-74015241D01*
X101244759Y-73815363D01*
X101009727Y-73658320D01*
X100748574Y-73550147D01*
X100471335Y-73495000D01*
X100188665Y-73495000D01*
X99911426Y-73550147D01*
X99650273Y-73658320D01*
X99415241Y-73815363D01*
X99215363Y-74015241D01*
X99058320Y-74250273D01*
X98950147Y-74511426D01*
X98895000Y-74788665D01*
X97649123Y-74788665D01*
X97611383Y-74598933D01*
X97555000Y-74462813D01*
X97555000Y-69645107D01*
X97673475Y-69526632D01*
X97790000Y-69352240D01*
X97906525Y-69526632D01*
X98113368Y-69733475D01*
X98356589Y-69895990D01*
X98626842Y-70007932D01*
X98913740Y-70065000D01*
X99206260Y-70065000D01*
X99493158Y-70007932D01*
X99763411Y-69895990D01*
X100006632Y-69733475D01*
X100138487Y-69601620D01*
X100160498Y-69674180D01*
X100219463Y-69784494D01*
X100298815Y-69881185D01*
X100395506Y-69960537D01*
X100505820Y-70019502D01*
X100625518Y-70055812D01*
X100750000Y-70068072D01*
X102450000Y-70068072D01*
X102574482Y-70055812D01*
X102694180Y-70019502D01*
X102804494Y-69960537D01*
X102901185Y-69881185D01*
X102980537Y-69784494D01*
X103039502Y-69674180D01*
X103075812Y-69554482D01*
X103088072Y-69430000D01*
X103088072Y-68433740D01*
X105195000Y-68433740D01*
X105195000Y-68726260D01*
X105252068Y-69013158D01*
X105364010Y-69283411D01*
X105526525Y-69526632D01*
X105733368Y-69733475D01*
X105976589Y-69895990D01*
X106246842Y-70007932D01*
X106533740Y-70065000D01*
X106826260Y-70065000D01*
X107113158Y-70007932D01*
X107383411Y-69895990D01*
X107626632Y-69733475D01*
X107833475Y-69526632D01*
X107950000Y-69352240D01*
X108066525Y-69526632D01*
X108273368Y-69733475D01*
X108516589Y-69895990D01*
X108786842Y-70007932D01*
X109073740Y-70065000D01*
X109366260Y-70065000D01*
X109653158Y-70007932D01*
X109923411Y-69895990D01*
X110166632Y-69733475D01*
X110298487Y-69601620D01*
X110320498Y-69674180D01*
X110379463Y-69784494D01*
X110458815Y-69881185D01*
X110555506Y-69960537D01*
X110665820Y-70019502D01*
X110725001Y-70037454D01*
X110725000Y-74462813D01*
X110668617Y-74598933D01*
X110625000Y-74818212D01*
X110625000Y-75041788D01*
X110668617Y-75261067D01*
X110754176Y-75467624D01*
X110878388Y-75653520D01*
X111036480Y-75811612D01*
X111222376Y-75935824D01*
X111428933Y-76021383D01*
X111648212Y-76065000D01*
X111871788Y-76065000D01*
X112091067Y-76021383D01*
X112297624Y-75935824D01*
X112483520Y-75811612D01*
X112641612Y-75653520D01*
X112765824Y-75467624D01*
X112851383Y-75261067D01*
X112877062Y-75131972D01*
X112920147Y-75348574D01*
X113028320Y-75609727D01*
X113185363Y-75844759D01*
X113265000Y-75924396D01*
X113265001Y-77745603D01*
X113185363Y-77825241D01*
X113028320Y-78060273D01*
X112920147Y-78321426D01*
X112865000Y-78598665D01*
X112865000Y-78881335D01*
X112920147Y-79158574D01*
X113028320Y-79419727D01*
X113185363Y-79654759D01*
X113385241Y-79854637D01*
X113620273Y-80011680D01*
X113881426Y-80119853D01*
X114158665Y-80175000D01*
X114441335Y-80175000D01*
X114718574Y-80119853D01*
X114979727Y-80011680D01*
X115214759Y-79854637D01*
X115414637Y-79654759D01*
X115571680Y-79419727D01*
X115679853Y-79158574D01*
X115735000Y-78881335D01*
X115735000Y-78598665D01*
X115679853Y-78321426D01*
X115571680Y-78060273D01*
X115414637Y-77825241D01*
X115335000Y-77745604D01*
X115335000Y-75924396D01*
X115414637Y-75844759D01*
X115571680Y-75609727D01*
X115679853Y-75348574D01*
X115735000Y-75071335D01*
X115735000Y-74788665D01*
X115679853Y-74511426D01*
X115571680Y-74250273D01*
X115414637Y-74015241D01*
X115335000Y-73935604D01*
X115335000Y-65237187D01*
X115391383Y-65101067D01*
X115435000Y-64881788D01*
X115435000Y-64658212D01*
X115391383Y-64438933D01*
X115305824Y-64232376D01*
X115181612Y-64046480D01*
X115023520Y-63888388D01*
X114837624Y-63764176D01*
X114726319Y-63718072D01*
X116420000Y-63718072D01*
X116544482Y-63705812D01*
X116664180Y-63669502D01*
X116774494Y-63610537D01*
X116871185Y-63531185D01*
X116950537Y-63434494D01*
X117009502Y-63324180D01*
X117045812Y-63204482D01*
X117058072Y-63080000D01*
X117058072Y-62083740D01*
X119165000Y-62083740D01*
X119165000Y-62376260D01*
X119222068Y-62663158D01*
X119334010Y-62933411D01*
X119496525Y-63176632D01*
X119703368Y-63383475D01*
X119946589Y-63545990D01*
X120216842Y-63657932D01*
X120503740Y-63715000D01*
X120796260Y-63715000D01*
X121083158Y-63657932D01*
X121353411Y-63545990D01*
X121596632Y-63383475D01*
X121803475Y-63176632D01*
X121920000Y-63002240D01*
X122036525Y-63176632D01*
X122155000Y-63295107D01*
X122155001Y-63659508D01*
X122031788Y-63635000D01*
X121808212Y-63635000D01*
X121588933Y-63678617D01*
X121382376Y-63764176D01*
X121196480Y-63888388D01*
X121038388Y-64046480D01*
X120914176Y-64232376D01*
X120828617Y-64438933D01*
X120785000Y-64658212D01*
X120785000Y-64881788D01*
X120828617Y-65101067D01*
X120885000Y-65237187D01*
X120885001Y-73935603D01*
X120805363Y-74015241D01*
X120648320Y-74250273D01*
X120540147Y-74511426D01*
X120485000Y-74788665D01*
X120485000Y-75071335D01*
X120540147Y-75348574D01*
X120648320Y-75609727D01*
X120805363Y-75844759D01*
X120885000Y-75924396D01*
X120885001Y-77745603D01*
X120805363Y-77825241D01*
X120648320Y-78060273D01*
X120540147Y-78321426D01*
X120485000Y-78598665D01*
X120485000Y-78881335D01*
X120540147Y-79158574D01*
X120648320Y-79419727D01*
X120805363Y-79654759D01*
X121005241Y-79854637D01*
X121240273Y-80011680D01*
X121501426Y-80119853D01*
X121778665Y-80175000D01*
X122061335Y-80175000D01*
X122338574Y-80119853D01*
X122599727Y-80011680D01*
X122834759Y-79854637D01*
X123034637Y-79654759D01*
X123191680Y-79419727D01*
X123299853Y-79158574D01*
X123355000Y-78881335D01*
X123355000Y-78598665D01*
X123299853Y-78321426D01*
X123191680Y-78060273D01*
X123034637Y-77825241D01*
X122955000Y-77745604D01*
X122955000Y-75924396D01*
X123034637Y-75844759D01*
X123191680Y-75609727D01*
X123299853Y-75348574D01*
X123342938Y-75131972D01*
X123368617Y-75261067D01*
X123454176Y-75467624D01*
X123578388Y-75653520D01*
X123736480Y-75811612D01*
X123922376Y-75935824D01*
X124128933Y-76021383D01*
X124348212Y-76065000D01*
X124571788Y-76065000D01*
X124791067Y-76021383D01*
X124997624Y-75935824D01*
X125183520Y-75811612D01*
X125341612Y-75653520D01*
X125465824Y-75467624D01*
X125551383Y-75261067D01*
X125595000Y-75041788D01*
X125595000Y-74818212D01*
X125589123Y-74788665D01*
X126835000Y-74788665D01*
X126835000Y-75071335D01*
X126890147Y-75348574D01*
X126998320Y-75609727D01*
X127155363Y-75844759D01*
X127235000Y-75924396D01*
X127235001Y-77745603D01*
X127155363Y-77825241D01*
X126998320Y-78060273D01*
X126890147Y-78321426D01*
X126835000Y-78598665D01*
X126835000Y-78881335D01*
X126890147Y-79158574D01*
X126998320Y-79419727D01*
X127155363Y-79654759D01*
X127355241Y-79854637D01*
X127590273Y-80011680D01*
X127851426Y-80119853D01*
X128128665Y-80175000D01*
X128411335Y-80175000D01*
X128688574Y-80119853D01*
X128949727Y-80011680D01*
X129184759Y-79854637D01*
X129384637Y-79654759D01*
X129541680Y-79419727D01*
X129649853Y-79158574D01*
X129705000Y-78881335D01*
X129705000Y-78598665D01*
X129649853Y-78321426D01*
X129541680Y-78060273D01*
X129384637Y-77825241D01*
X129305000Y-77745604D01*
X129305000Y-75924396D01*
X129384637Y-75844759D01*
X129541680Y-75609727D01*
X129649853Y-75348574D01*
X129705000Y-75071335D01*
X129705000Y-74788665D01*
X134455000Y-74788665D01*
X134455000Y-75071335D01*
X134510147Y-75348574D01*
X134618320Y-75609727D01*
X134775363Y-75844759D01*
X134855001Y-75924397D01*
X134855000Y-77745604D01*
X134775363Y-77825241D01*
X134618320Y-78060273D01*
X134510147Y-78321426D01*
X134455000Y-78598665D01*
X134455000Y-78881335D01*
X134510147Y-79158574D01*
X134618320Y-79419727D01*
X134775363Y-79654759D01*
X134975241Y-79854637D01*
X135210273Y-80011680D01*
X135471426Y-80119853D01*
X135748665Y-80175000D01*
X136031335Y-80175000D01*
X136308574Y-80119853D01*
X136569727Y-80011680D01*
X136804759Y-79854637D01*
X137004637Y-79654759D01*
X137161680Y-79419727D01*
X137269853Y-79158574D01*
X137325000Y-78881335D01*
X137325000Y-78598665D01*
X137269853Y-78321426D01*
X137161680Y-78060273D01*
X137004637Y-77825241D01*
X136925000Y-77745604D01*
X136925000Y-75924396D01*
X137004637Y-75844759D01*
X137161680Y-75609727D01*
X137269853Y-75348574D01*
X137325000Y-75071335D01*
X137325000Y-74788665D01*
X137269853Y-74511426D01*
X137161680Y-74250273D01*
X137004637Y-74015241D01*
X136804759Y-73815363D01*
X136569727Y-73658320D01*
X136308574Y-73550147D01*
X136031335Y-73495000D01*
X135748665Y-73495000D01*
X135471426Y-73550147D01*
X135210273Y-73658320D01*
X134975241Y-73815363D01*
X134775363Y-74015241D01*
X134618320Y-74250273D01*
X134510147Y-74511426D01*
X134455000Y-74788665D01*
X129705000Y-74788665D01*
X129649853Y-74511426D01*
X129541680Y-74250273D01*
X129384637Y-74015241D01*
X129184759Y-73815363D01*
X128949727Y-73658320D01*
X128688574Y-73550147D01*
X128411335Y-73495000D01*
X128128665Y-73495000D01*
X127851426Y-73550147D01*
X127590273Y-73658320D01*
X127355241Y-73815363D01*
X127155363Y-74015241D01*
X126998320Y-74250273D01*
X126890147Y-74511426D01*
X126835000Y-74788665D01*
X125589123Y-74788665D01*
X125551383Y-74598933D01*
X125495000Y-74462813D01*
X125495000Y-69645107D01*
X125613475Y-69526632D01*
X125730000Y-69352240D01*
X125846525Y-69526632D01*
X126053368Y-69733475D01*
X126296589Y-69895990D01*
X126566842Y-70007932D01*
X126853740Y-70065000D01*
X127146260Y-70065000D01*
X127433158Y-70007932D01*
X127703411Y-69895990D01*
X127946632Y-69733475D01*
X128078487Y-69601620D01*
X128100498Y-69674180D01*
X128159463Y-69784494D01*
X128238815Y-69881185D01*
X128335506Y-69960537D01*
X128445820Y-70019502D01*
X128565518Y-70055812D01*
X128690000Y-70068072D01*
X130390000Y-70068072D01*
X130514482Y-70055812D01*
X130634180Y-70019502D01*
X130744494Y-69960537D01*
X130841185Y-69881185D01*
X130920537Y-69784494D01*
X130979502Y-69674180D01*
X131015812Y-69554482D01*
X131028072Y-69430000D01*
X131028072Y-68433740D01*
X133135000Y-68433740D01*
X133135000Y-68726260D01*
X133192068Y-69013158D01*
X133304010Y-69283411D01*
X133466525Y-69526632D01*
X133673368Y-69733475D01*
X133916589Y-69895990D01*
X134186842Y-70007932D01*
X134473740Y-70065000D01*
X134766260Y-70065000D01*
X135053158Y-70007932D01*
X135323411Y-69895990D01*
X135566632Y-69733475D01*
X135773475Y-69526632D01*
X135890000Y-69352240D01*
X136006525Y-69526632D01*
X136213368Y-69733475D01*
X136456589Y-69895990D01*
X136726842Y-70007932D01*
X137013740Y-70065000D01*
X137306260Y-70065000D01*
X137593158Y-70007932D01*
X137863411Y-69895990D01*
X138106632Y-69733475D01*
X138238487Y-69601620D01*
X138260498Y-69674180D01*
X138319463Y-69784494D01*
X138398815Y-69881185D01*
X138495506Y-69960537D01*
X138605820Y-70019502D01*
X138665000Y-70037454D01*
X138665001Y-74462811D01*
X138608617Y-74598933D01*
X138565000Y-74818212D01*
X138565000Y-75041788D01*
X138608617Y-75261067D01*
X138694176Y-75467624D01*
X138818388Y-75653520D01*
X138976480Y-75811612D01*
X139162376Y-75935824D01*
X139368933Y-76021383D01*
X139588212Y-76065000D01*
X139811788Y-76065000D01*
X140031067Y-76021383D01*
X140237624Y-75935824D01*
X140423520Y-75811612D01*
X140581612Y-75653520D01*
X140705824Y-75467624D01*
X140791383Y-75261067D01*
X140817062Y-75131972D01*
X140860147Y-75348574D01*
X140968320Y-75609727D01*
X141125363Y-75844759D01*
X141205000Y-75924396D01*
X141205001Y-77745603D01*
X141125363Y-77825241D01*
X140968320Y-78060273D01*
X140860147Y-78321426D01*
X140805000Y-78598665D01*
X140805000Y-78881335D01*
X140860147Y-79158574D01*
X140968320Y-79419727D01*
X141125363Y-79654759D01*
X141325241Y-79854637D01*
X141560273Y-80011680D01*
X141821426Y-80119853D01*
X142098665Y-80175000D01*
X142381335Y-80175000D01*
X142658574Y-80119853D01*
X142919727Y-80011680D01*
X143154759Y-79854637D01*
X143354637Y-79654759D01*
X143511680Y-79419727D01*
X143619853Y-79158574D01*
X143675000Y-78881335D01*
X143675000Y-78598665D01*
X143619853Y-78321426D01*
X143511680Y-78060273D01*
X143354637Y-77825241D01*
X143275000Y-77745604D01*
X143275000Y-75924396D01*
X143354637Y-75844759D01*
X143511680Y-75609727D01*
X143619853Y-75348574D01*
X143675000Y-75071335D01*
X143675000Y-74788665D01*
X148425000Y-74788665D01*
X148425000Y-75071335D01*
X148480147Y-75348574D01*
X148588320Y-75609727D01*
X148745363Y-75844759D01*
X148825001Y-75924397D01*
X148825000Y-77745604D01*
X148745363Y-77825241D01*
X148588320Y-78060273D01*
X148480147Y-78321426D01*
X148425000Y-78598665D01*
X148425000Y-78881335D01*
X148480147Y-79158574D01*
X148588320Y-79419727D01*
X148745363Y-79654759D01*
X148945241Y-79854637D01*
X149180273Y-80011680D01*
X149441426Y-80119853D01*
X149718665Y-80175000D01*
X150001335Y-80175000D01*
X150278574Y-80119853D01*
X150539727Y-80011680D01*
X150774759Y-79854637D01*
X150974637Y-79654759D01*
X151131680Y-79419727D01*
X151239853Y-79158574D01*
X151295000Y-78881335D01*
X151295000Y-78598665D01*
X151239853Y-78321426D01*
X151131680Y-78060273D01*
X150974637Y-77825241D01*
X150895000Y-77745604D01*
X150895000Y-75924396D01*
X150974637Y-75844759D01*
X151131680Y-75609727D01*
X151239853Y-75348574D01*
X151295000Y-75071335D01*
X151295000Y-74788665D01*
X151239853Y-74511426D01*
X151131680Y-74250273D01*
X150974637Y-74015241D01*
X150895000Y-73935604D01*
X150895000Y-65237187D01*
X150951383Y-65101067D01*
X150995000Y-64881788D01*
X150995000Y-64658212D01*
X150951383Y-64438933D01*
X150865824Y-64232376D01*
X150741612Y-64046480D01*
X150583520Y-63888388D01*
X150397624Y-63764176D01*
X150191067Y-63678617D01*
X149971788Y-63635000D01*
X149748212Y-63635000D01*
X149528933Y-63678617D01*
X149322376Y-63764176D01*
X149136480Y-63888388D01*
X148978388Y-64046480D01*
X148854176Y-64232376D01*
X148768617Y-64438933D01*
X148725000Y-64658212D01*
X148725000Y-64881788D01*
X148768617Y-65101067D01*
X148825000Y-65237187D01*
X148825001Y-73935603D01*
X148745363Y-74015241D01*
X148588320Y-74250273D01*
X148480147Y-74511426D01*
X148425000Y-74788665D01*
X143675000Y-74788665D01*
X143619853Y-74511426D01*
X143511680Y-74250273D01*
X143354637Y-74015241D01*
X143275000Y-73935604D01*
X143275000Y-65237187D01*
X143331383Y-65101067D01*
X143375000Y-64881788D01*
X143375000Y-64658212D01*
X143331383Y-64438933D01*
X143245824Y-64232376D01*
X143121612Y-64046480D01*
X142963520Y-63888388D01*
X142777624Y-63764176D01*
X142666319Y-63718072D01*
X144360000Y-63718072D01*
X144484482Y-63705812D01*
X144604180Y-63669502D01*
X144714494Y-63610537D01*
X144811185Y-63531185D01*
X144890537Y-63434494D01*
X144949502Y-63324180D01*
X144985812Y-63204482D01*
X144998072Y-63080000D01*
X144998072Y-62083740D01*
X147105000Y-62083740D01*
X147105000Y-62376260D01*
X147162068Y-62663158D01*
X147274010Y-62933411D01*
X147436525Y-63176632D01*
X147643368Y-63383475D01*
X147886589Y-63545990D01*
X148156842Y-63657932D01*
X148443740Y-63715000D01*
X148736260Y-63715000D01*
X149023158Y-63657932D01*
X149293411Y-63545990D01*
X149536632Y-63383475D01*
X149743475Y-63176632D01*
X149860000Y-63002240D01*
X149976525Y-63176632D01*
X150183368Y-63383475D01*
X150426589Y-63545990D01*
X150696842Y-63657932D01*
X150983740Y-63715000D01*
X151276260Y-63715000D01*
X151563158Y-63657932D01*
X151833411Y-63545990D01*
X152076632Y-63383475D01*
X152208487Y-63251620D01*
X152230498Y-63324180D01*
X152289463Y-63434494D01*
X152368815Y-63531185D01*
X152465506Y-63610537D01*
X152575820Y-63669502D01*
X152635001Y-63687454D01*
X152635001Y-64302811D01*
X152578617Y-64438933D01*
X152535000Y-64658212D01*
X152535000Y-64881788D01*
X152578617Y-65101067D01*
X152664176Y-65307624D01*
X152788388Y-65493520D01*
X152946480Y-65651612D01*
X153132376Y-65775824D01*
X153338933Y-65861383D01*
X153558212Y-65905000D01*
X153781788Y-65905000D01*
X154001067Y-65861383D01*
X154207624Y-65775824D01*
X154393520Y-65651612D01*
X154551612Y-65493520D01*
X154675824Y-65307624D01*
X154761383Y-65101067D01*
X154805000Y-64881788D01*
X154805000Y-64658212D01*
X154761383Y-64438933D01*
X154705000Y-64302813D01*
X154705000Y-63687454D01*
X154764180Y-63669502D01*
X154874494Y-63610537D01*
X154971185Y-63531185D01*
X155050537Y-63434494D01*
X155109502Y-63324180D01*
X155145812Y-63204482D01*
X155158072Y-63080000D01*
X155158072Y-61380000D01*
X155145812Y-61255518D01*
X155109502Y-61135820D01*
X155050537Y-61025506D01*
X154971185Y-60928815D01*
X154874494Y-60849463D01*
X154764180Y-60790498D01*
X154644482Y-60754188D01*
X154520000Y-60741928D01*
X152820000Y-60741928D01*
X152695518Y-60754188D01*
X152575820Y-60790498D01*
X152465506Y-60849463D01*
X152368815Y-60928815D01*
X152289463Y-61025506D01*
X152230498Y-61135820D01*
X152208487Y-61208380D01*
X152165000Y-61164893D01*
X152165000Y-60157187D01*
X152221383Y-60021067D01*
X152265000Y-59801788D01*
X152265000Y-59578212D01*
X152221383Y-59358933D01*
X152135824Y-59152376D01*
X152011612Y-58966480D01*
X151853520Y-58808388D01*
X151667624Y-58684176D01*
X151461067Y-58598617D01*
X151241788Y-58555000D01*
X151018212Y-58555000D01*
X150798933Y-58598617D01*
X150592376Y-58684176D01*
X150406480Y-58808388D01*
X150248388Y-58966480D01*
X150124176Y-59152376D01*
X150038617Y-59358933D01*
X149995000Y-59578212D01*
X149995000Y-59801788D01*
X150038617Y-60021067D01*
X150095001Y-60157189D01*
X150095000Y-61164893D01*
X149976525Y-61283368D01*
X149860000Y-61457760D01*
X149743475Y-61283368D01*
X149536632Y-61076525D01*
X149293411Y-60914010D01*
X149023158Y-60802068D01*
X148736260Y-60745000D01*
X148443740Y-60745000D01*
X148156842Y-60802068D01*
X147886589Y-60914010D01*
X147643368Y-61076525D01*
X147436525Y-61283368D01*
X147274010Y-61526589D01*
X147162068Y-61796842D01*
X147105000Y-62083740D01*
X144998072Y-62083740D01*
X144998072Y-61380000D01*
X144985812Y-61255518D01*
X144949502Y-61135820D01*
X144890537Y-61025506D01*
X144811185Y-60928815D01*
X144714494Y-60849463D01*
X144604180Y-60790498D01*
X144484482Y-60754188D01*
X144360000Y-60741928D01*
X142660000Y-60741928D01*
X142535518Y-60754188D01*
X142415820Y-60790498D01*
X142305506Y-60849463D01*
X142208815Y-60928815D01*
X142129463Y-61025506D01*
X142070498Y-61135820D01*
X142048487Y-61208380D01*
X141916632Y-61076525D01*
X141673411Y-60914010D01*
X141403158Y-60802068D01*
X141116260Y-60745000D01*
X140823740Y-60745000D01*
X140536842Y-60802068D01*
X140266589Y-60914010D01*
X140023368Y-61076525D01*
X139816525Y-61283368D01*
X139700000Y-61457760D01*
X139583475Y-61283368D01*
X139376632Y-61076525D01*
X139133411Y-60914010D01*
X138863158Y-60802068D01*
X138576260Y-60745000D01*
X138283740Y-60745000D01*
X137996842Y-60802068D01*
X137726589Y-60914010D01*
X137483368Y-61076525D01*
X137276525Y-61283368D01*
X137114010Y-61526589D01*
X137002068Y-61796842D01*
X136945000Y-62083740D01*
X136945000Y-62376260D01*
X137002068Y-62663158D01*
X137114010Y-62933411D01*
X137276525Y-63176632D01*
X137395000Y-63295107D01*
X137395001Y-64302811D01*
X137338617Y-64438933D01*
X137295000Y-64658212D01*
X137295000Y-64881788D01*
X137319508Y-65005000D01*
X137210838Y-65005000D01*
X137160000Y-64999993D01*
X137109162Y-65005000D01*
X136957105Y-65019976D01*
X136762007Y-65079159D01*
X136582203Y-65175266D01*
X136424604Y-65304604D01*
X136295266Y-65462203D01*
X136199159Y-65642007D01*
X136139976Y-65837105D01*
X136119993Y-66040000D01*
X136125001Y-66090848D01*
X136125000Y-67514893D01*
X136006525Y-67633368D01*
X135890000Y-67807760D01*
X135773475Y-67633368D01*
X135566632Y-67426525D01*
X135323411Y-67264010D01*
X135053158Y-67152068D01*
X134766260Y-67095000D01*
X134473740Y-67095000D01*
X134186842Y-67152068D01*
X133916589Y-67264010D01*
X133673368Y-67426525D01*
X133466525Y-67633368D01*
X133304010Y-67876589D01*
X133192068Y-68146842D01*
X133135000Y-68433740D01*
X131028072Y-68433740D01*
X131028072Y-67730000D01*
X131015812Y-67605518D01*
X130979502Y-67485820D01*
X130920537Y-67375506D01*
X130841185Y-67278815D01*
X130744494Y-67199463D01*
X130634180Y-67140498D01*
X130514482Y-67104188D01*
X130390000Y-67091928D01*
X128690000Y-67091928D01*
X128565518Y-67104188D01*
X128445820Y-67140498D01*
X128335506Y-67199463D01*
X128238815Y-67278815D01*
X128159463Y-67375506D01*
X128100498Y-67485820D01*
X128078487Y-67558380D01*
X127946632Y-67426525D01*
X127703411Y-67264010D01*
X127433158Y-67152068D01*
X127146260Y-67095000D01*
X126978711Y-67095000D01*
X125788710Y-65905000D01*
X125841788Y-65905000D01*
X126061067Y-65861383D01*
X126267624Y-65775824D01*
X126453520Y-65651612D01*
X126611612Y-65493520D01*
X126735824Y-65307624D01*
X126821383Y-65101067D01*
X126865000Y-64881788D01*
X126865000Y-64658212D01*
X126821383Y-64438933D01*
X126765000Y-64302813D01*
X126765000Y-63687454D01*
X126824180Y-63669502D01*
X126934494Y-63610537D01*
X127031185Y-63531185D01*
X127110537Y-63434494D01*
X127169502Y-63324180D01*
X127205812Y-63204482D01*
X127218072Y-63080000D01*
X127218072Y-61380000D01*
X127205812Y-61255518D01*
X127169502Y-61135820D01*
X127110537Y-61025506D01*
X127031185Y-60928815D01*
X126934494Y-60849463D01*
X126824180Y-60790498D01*
X126704482Y-60754188D01*
X126580000Y-60741928D01*
X124880000Y-60741928D01*
X124755518Y-60754188D01*
X124635820Y-60790498D01*
X124525506Y-60849463D01*
X124428815Y-60928815D01*
X124349463Y-61025506D01*
X124290498Y-61135820D01*
X124268487Y-61208380D01*
X124136632Y-61076525D01*
X123893411Y-60914010D01*
X123623158Y-60802068D01*
X123336260Y-60745000D01*
X123043740Y-60745000D01*
X122756842Y-60802068D01*
X122486589Y-60914010D01*
X122243368Y-61076525D01*
X122036525Y-61283368D01*
X121920000Y-61457760D01*
X121803475Y-61283368D01*
X121596632Y-61076525D01*
X121353411Y-60914010D01*
X121083158Y-60802068D01*
X120796260Y-60745000D01*
X120503740Y-60745000D01*
X120216842Y-60802068D01*
X119946589Y-60914010D01*
X119703368Y-61076525D01*
X119496525Y-61283368D01*
X119334010Y-61526589D01*
X119222068Y-61796842D01*
X119165000Y-62083740D01*
X117058072Y-62083740D01*
X117058072Y-61380000D01*
X117045812Y-61255518D01*
X117009502Y-61135820D01*
X116950537Y-61025506D01*
X116871185Y-60928815D01*
X116774494Y-60849463D01*
X116664180Y-60790498D01*
X116544482Y-60754188D01*
X116420000Y-60741928D01*
X114720000Y-60741928D01*
X114595518Y-60754188D01*
X114475820Y-60790498D01*
X114365506Y-60849463D01*
X114268815Y-60928815D01*
X114189463Y-61025506D01*
X114130498Y-61135820D01*
X114108487Y-61208380D01*
X113976632Y-61076525D01*
X113733411Y-60914010D01*
X113463158Y-60802068D01*
X113176260Y-60745000D01*
X112883740Y-60745000D01*
X112596842Y-60802068D01*
X112326589Y-60914010D01*
X112083368Y-61076525D01*
X111876525Y-61283368D01*
X111760000Y-61457760D01*
X111643475Y-61283368D01*
X111436632Y-61076525D01*
X111193411Y-60914010D01*
X110923158Y-60802068D01*
X110636260Y-60745000D01*
X110343740Y-60745000D01*
X110056842Y-60802068D01*
X109786589Y-60914010D01*
X109543368Y-61076525D01*
X109336525Y-61283368D01*
X109174010Y-61526589D01*
X109062068Y-61796842D01*
X109005000Y-62083740D01*
X109005000Y-62376260D01*
X109062068Y-62663158D01*
X109174010Y-62933411D01*
X109336525Y-63176632D01*
X109455000Y-63295107D01*
X109455001Y-64302811D01*
X109398617Y-64438933D01*
X109355000Y-64658212D01*
X109355000Y-64881788D01*
X109379508Y-65005000D01*
X109270838Y-65005000D01*
X109220000Y-64999993D01*
X109169162Y-65005000D01*
X109017105Y-65019976D01*
X108822007Y-65079159D01*
X108642203Y-65175266D01*
X108484604Y-65304604D01*
X108355266Y-65462203D01*
X108259159Y-65642007D01*
X108199976Y-65837105D01*
X108179993Y-66040000D01*
X108185001Y-66090848D01*
X108185000Y-67514893D01*
X108066525Y-67633368D01*
X107950000Y-67807760D01*
X107833475Y-67633368D01*
X107626632Y-67426525D01*
X107383411Y-67264010D01*
X107113158Y-67152068D01*
X106826260Y-67095000D01*
X106533740Y-67095000D01*
X106246842Y-67152068D01*
X105976589Y-67264010D01*
X105733368Y-67426525D01*
X105526525Y-67633368D01*
X105364010Y-67876589D01*
X105252068Y-68146842D01*
X105195000Y-68433740D01*
X103088072Y-68433740D01*
X103088072Y-67730000D01*
X103075812Y-67605518D01*
X103039502Y-67485820D01*
X102980537Y-67375506D01*
X102901185Y-67278815D01*
X102804494Y-67199463D01*
X102694180Y-67140498D01*
X102574482Y-67104188D01*
X102450000Y-67091928D01*
X100750000Y-67091928D01*
X100625518Y-67104188D01*
X100505820Y-67140498D01*
X100395506Y-67199463D01*
X100298815Y-67278815D01*
X100219463Y-67375506D01*
X100160498Y-67485820D01*
X100138487Y-67558380D01*
X100006632Y-67426525D01*
X99763411Y-67264010D01*
X99493158Y-67152068D01*
X99206260Y-67095000D01*
X99038711Y-67095000D01*
X97848710Y-65905000D01*
X97901788Y-65905000D01*
X98121067Y-65861383D01*
X98327624Y-65775824D01*
X98513520Y-65651612D01*
X98671612Y-65493520D01*
X98795824Y-65307624D01*
X98881383Y-65101067D01*
X98925000Y-64881788D01*
X98925000Y-64658212D01*
X98881383Y-64438933D01*
X98825000Y-64302813D01*
X98825000Y-63687454D01*
X98884180Y-63669502D01*
X98994494Y-63610537D01*
X99091185Y-63531185D01*
X99170537Y-63434494D01*
X99229502Y-63324180D01*
X99265812Y-63204482D01*
X99278072Y-63080000D01*
X99278072Y-61380000D01*
X99265812Y-61255518D01*
X99229502Y-61135820D01*
X99170537Y-61025506D01*
X99091185Y-60928815D01*
X98994494Y-60849463D01*
X98884180Y-60790498D01*
X98764482Y-60754188D01*
X98640000Y-60741928D01*
X96940000Y-60741928D01*
X96815518Y-60754188D01*
X96695820Y-60790498D01*
X96585506Y-60849463D01*
X96488815Y-60928815D01*
X96409463Y-61025506D01*
X96350498Y-61135820D01*
X96328487Y-61208380D01*
X96196632Y-61076525D01*
X95953411Y-60914010D01*
X95683158Y-60802068D01*
X95396260Y-60745000D01*
X95103740Y-60745000D01*
X94816842Y-60802068D01*
X94546589Y-60914010D01*
X94303368Y-61076525D01*
X94096525Y-61283368D01*
X93980000Y-61457760D01*
X93863475Y-61283368D01*
X93656632Y-61076525D01*
X93413411Y-60914010D01*
X93143158Y-60802068D01*
X92856260Y-60745000D01*
X92563740Y-60745000D01*
X92276842Y-60802068D01*
X92006589Y-60914010D01*
X91763368Y-61076525D01*
X91556525Y-61283368D01*
X91394010Y-61526589D01*
X91282068Y-61796842D01*
X91225000Y-62083740D01*
X89118072Y-62083740D01*
X89118072Y-61380000D01*
X89105812Y-61255518D01*
X89069502Y-61135820D01*
X89010537Y-61025506D01*
X88931185Y-60928815D01*
X88834494Y-60849463D01*
X88724180Y-60790498D01*
X88604482Y-60754188D01*
X88480000Y-60741928D01*
X86780000Y-60741928D01*
X86655518Y-60754188D01*
X86535820Y-60790498D01*
X86425506Y-60849463D01*
X86328815Y-60928815D01*
X86249463Y-61025506D01*
X86190498Y-61135820D01*
X86168487Y-61208380D01*
X86125000Y-61164893D01*
X86125000Y-60157187D01*
X86181383Y-60021067D01*
X86225000Y-59801788D01*
X86225000Y-59578212D01*
X86181383Y-59358933D01*
X86095824Y-59152376D01*
X85971612Y-58966480D01*
X85813520Y-58808388D01*
X85627624Y-58684176D01*
X85421067Y-58598617D01*
X85201788Y-58555000D01*
X84978212Y-58555000D01*
X84758933Y-58598617D01*
X84552376Y-58684176D01*
X84366480Y-58808388D01*
X84208388Y-58966480D01*
X84084176Y-59152376D01*
X83998617Y-59358933D01*
X83955000Y-59578212D01*
X83955000Y-59801788D01*
X83998617Y-60021067D01*
X84055000Y-60157188D01*
X84055001Y-61164892D01*
X83936525Y-61283368D01*
X83820000Y-61457760D01*
X83703475Y-61283368D01*
X83496632Y-61076525D01*
X83253411Y-60914010D01*
X82983158Y-60802068D01*
X82696260Y-60745000D01*
X82403740Y-60745000D01*
X82116842Y-60802068D01*
X81846589Y-60914010D01*
X81603368Y-61076525D01*
X81396525Y-61283368D01*
X81234010Y-61526589D01*
X81122068Y-61796842D01*
X81065000Y-62083740D01*
X80670000Y-62083740D01*
X80670000Y-56192000D01*
X83941928Y-56192000D01*
X83954188Y-56316482D01*
X83990498Y-56436180D01*
X84049463Y-56546494D01*
X84128815Y-56643185D01*
X84225506Y-56722537D01*
X84335820Y-56781502D01*
X84455518Y-56817812D01*
X84580000Y-56830072D01*
X84701014Y-56829670D01*
X84673019Y-56954445D01*
X84667645Y-57175001D01*
X84705404Y-57392367D01*
X84784842Y-57598189D01*
X84810684Y-57646534D01*
X85022584Y-57679811D01*
X85123305Y-57579090D01*
X85194952Y-57640331D01*
X85304063Y-57701493D01*
X85346353Y-57715252D01*
X85202189Y-57859416D01*
X85235466Y-58071316D01*
X85437176Y-58160683D01*
X85652445Y-58208981D01*
X85873001Y-58214355D01*
X86090367Y-58176596D01*
X86296189Y-58097158D01*
X86344534Y-58071316D01*
X86377811Y-57859416D01*
X86233647Y-57715252D01*
X86275937Y-57701493D01*
X86385048Y-57640331D01*
X86456695Y-57579090D01*
X86557416Y-57679811D01*
X86769316Y-57646534D01*
X86858683Y-57444824D01*
X86906981Y-57229555D01*
X86912355Y-57008999D01*
X86881205Y-56829677D01*
X87000000Y-56830072D01*
X87124482Y-56817812D01*
X87244180Y-56781502D01*
X87354494Y-56722537D01*
X87451185Y-56643185D01*
X87530537Y-56546494D01*
X87589502Y-56436180D01*
X87625812Y-56316482D01*
X87638072Y-56192000D01*
X92701928Y-56192000D01*
X92714188Y-56316482D01*
X92750498Y-56436180D01*
X92809463Y-56546494D01*
X92888815Y-56643185D01*
X92985506Y-56722537D01*
X93095820Y-56781502D01*
X93215518Y-56817812D01*
X93340000Y-56830072D01*
X93461014Y-56829670D01*
X93433019Y-56954445D01*
X93427645Y-57175001D01*
X93465404Y-57392367D01*
X93544842Y-57598189D01*
X93570684Y-57646534D01*
X93782584Y-57679811D01*
X93883305Y-57579090D01*
X93954952Y-57640331D01*
X94064063Y-57701493D01*
X94106353Y-57715252D01*
X93962189Y-57859416D01*
X93995466Y-58071316D01*
X94197176Y-58160683D01*
X94412445Y-58208981D01*
X94633001Y-58214355D01*
X94850367Y-58176596D01*
X95056189Y-58097158D01*
X95104534Y-58071316D01*
X95137811Y-57859416D01*
X94993647Y-57715252D01*
X95035937Y-57701493D01*
X95145048Y-57640331D01*
X95216695Y-57579090D01*
X95317416Y-57679811D01*
X95529316Y-57646534D01*
X95618683Y-57444824D01*
X95666981Y-57229555D01*
X95672355Y-57008999D01*
X95641205Y-56829677D01*
X95760000Y-56830072D01*
X95884482Y-56817812D01*
X96004180Y-56781502D01*
X96114494Y-56722537D01*
X96211185Y-56643185D01*
X96290537Y-56546494D01*
X96349502Y-56436180D01*
X96385812Y-56316482D01*
X96398072Y-56192000D01*
X139821928Y-56192000D01*
X139834188Y-56316482D01*
X139870498Y-56436180D01*
X139929463Y-56546494D01*
X140008815Y-56643185D01*
X140105506Y-56722537D01*
X140215820Y-56781502D01*
X140335518Y-56817812D01*
X140460000Y-56830072D01*
X140581014Y-56829670D01*
X140553019Y-56954445D01*
X140547645Y-57175001D01*
X140585404Y-57392367D01*
X140664842Y-57598189D01*
X140690684Y-57646534D01*
X140902584Y-57679811D01*
X141003305Y-57579090D01*
X141074952Y-57640331D01*
X141184063Y-57701493D01*
X141226353Y-57715252D01*
X141082189Y-57859416D01*
X141115466Y-58071316D01*
X141317176Y-58160683D01*
X141532445Y-58208981D01*
X141753001Y-58214355D01*
X141970367Y-58176596D01*
X142176189Y-58097158D01*
X142224534Y-58071316D01*
X142257811Y-57859416D01*
X142113647Y-57715252D01*
X142155937Y-57701493D01*
X142265048Y-57640331D01*
X142336695Y-57579090D01*
X142437416Y-57679811D01*
X142649316Y-57646534D01*
X142738683Y-57444824D01*
X142786981Y-57229555D01*
X142792355Y-57008999D01*
X142761205Y-56829677D01*
X142880000Y-56830072D01*
X143004482Y-56817812D01*
X143124180Y-56781502D01*
X143234494Y-56722537D01*
X143331185Y-56643185D01*
X143410537Y-56546494D01*
X143469502Y-56436180D01*
X143505812Y-56316482D01*
X143518072Y-56192000D01*
X148581928Y-56192000D01*
X148594188Y-56316482D01*
X148630498Y-56436180D01*
X148689463Y-56546494D01*
X148768815Y-56643185D01*
X148865506Y-56722537D01*
X148975820Y-56781502D01*
X149095518Y-56817812D01*
X149220000Y-56830072D01*
X149341014Y-56829670D01*
X149313019Y-56954445D01*
X149307645Y-57175001D01*
X149345404Y-57392367D01*
X149424842Y-57598189D01*
X149450684Y-57646534D01*
X149662584Y-57679811D01*
X149763305Y-57579090D01*
X149834952Y-57640331D01*
X149944063Y-57701493D01*
X149986353Y-57715252D01*
X149842189Y-57859416D01*
X149875466Y-58071316D01*
X150077176Y-58160683D01*
X150292445Y-58208981D01*
X150513001Y-58214355D01*
X150730367Y-58176596D01*
X150936189Y-58097158D01*
X150984534Y-58071316D01*
X151017811Y-57859416D01*
X150873647Y-57715252D01*
X150915937Y-57701493D01*
X151025048Y-57640331D01*
X151096695Y-57579090D01*
X151197416Y-57679811D01*
X151409316Y-57646534D01*
X151498683Y-57444824D01*
X151546981Y-57229555D01*
X151552355Y-57008999D01*
X151521205Y-56829677D01*
X151640000Y-56830072D01*
X151764482Y-56817812D01*
X151884180Y-56781502D01*
X151994494Y-56722537D01*
X152091185Y-56643185D01*
X152170537Y-56546494D01*
X152229502Y-56436180D01*
X152265812Y-56316482D01*
X152278072Y-56192000D01*
X152275000Y-53937750D01*
X152116250Y-53779000D01*
X150557000Y-53779000D01*
X150557000Y-53799000D01*
X150303000Y-53799000D01*
X150303000Y-53779000D01*
X148743750Y-53779000D01*
X148585000Y-53937750D01*
X148581928Y-56192000D01*
X143518072Y-56192000D01*
X143515000Y-53937750D01*
X143356250Y-53779000D01*
X141797000Y-53779000D01*
X141797000Y-53799000D01*
X141543000Y-53799000D01*
X141543000Y-53779000D01*
X139983750Y-53779000D01*
X139825000Y-53937750D01*
X139821928Y-56192000D01*
X96398072Y-56192000D01*
X96395000Y-53937750D01*
X96236250Y-53779000D01*
X94677000Y-53779000D01*
X94677000Y-53799000D01*
X94423000Y-53799000D01*
X94423000Y-53779000D01*
X92863750Y-53779000D01*
X92705000Y-53937750D01*
X92701928Y-56192000D01*
X87638072Y-56192000D01*
X87635000Y-53937750D01*
X87476250Y-53779000D01*
X85917000Y-53779000D01*
X85917000Y-53799000D01*
X85663000Y-53799000D01*
X85663000Y-53779000D01*
X84103750Y-53779000D01*
X83945000Y-53937750D01*
X83941928Y-56192000D01*
X80670000Y-56192000D01*
X80670000Y-51460000D01*
X83942402Y-51460000D01*
X83945000Y-53366250D01*
G37*
X83945000Y-53366250D02*
X84103750Y-53525000D01*
X85663000Y-53525000D01*
X85663000Y-53505000D01*
X85917000Y-53505000D01*
X85917000Y-53525000D01*
X87476250Y-53525000D01*
X87635000Y-53366250D01*
X87637598Y-51460000D01*
X92702402Y-51460000D01*
X92705000Y-53366250D01*
X92863750Y-53525000D01*
X94423000Y-53525000D01*
X94423000Y-53505000D01*
X94677000Y-53505000D01*
X94677000Y-53525000D01*
X96236250Y-53525000D01*
X96395000Y-53366250D01*
X96397598Y-51460000D01*
X139822402Y-51460000D01*
X139825000Y-53366250D01*
X139983750Y-53525000D01*
X141543000Y-53525000D01*
X141543000Y-53505000D01*
X141797000Y-53505000D01*
X141797000Y-53525000D01*
X143356250Y-53525000D01*
X143515000Y-53366250D01*
X143517598Y-51460000D01*
X148582402Y-51460000D01*
X148585000Y-53366250D01*
X148743750Y-53525000D01*
X150303000Y-53525000D01*
X150303000Y-53505000D01*
X150557000Y-53505000D01*
X150557000Y-53525000D01*
X152116250Y-53525000D01*
X152275000Y-53366250D01*
X152277598Y-51460000D01*
X155550001Y-51460000D01*
X155550000Y-88240000D01*
X80670000Y-88240000D01*
X80670000Y-86709040D01*
X84968091Y-86709040D01*
X85062930Y-86973881D01*
X85207615Y-87215131D01*
X85396586Y-87423519D01*
X85622580Y-87591037D01*
X85876913Y-87711246D01*
X86010961Y-87751904D01*
X86233000Y-87629915D01*
X86233000Y-86487000D01*
X86487000Y-86487000D01*
X86487000Y-87629915D01*
X86709039Y-87751904D01*
X86843087Y-87711246D01*
X87097420Y-87591037D01*
X87323414Y-87423519D01*
X87512385Y-87215131D01*
X87657070Y-86973881D01*
X87751909Y-86709040D01*
X92588091Y-86709040D01*
X92682930Y-86973881D01*
X92827615Y-87215131D01*
X93016586Y-87423519D01*
X93242580Y-87591037D01*
X93496913Y-87711246D01*
X93630961Y-87751904D01*
X93853000Y-87629915D01*
X93853000Y-86487000D01*
X94107000Y-86487000D01*
X94107000Y-87629915D01*
X94329039Y-87751904D01*
X94463087Y-87711246D01*
X94717420Y-87591037D01*
X94943414Y-87423519D01*
X95132385Y-87215131D01*
X95277070Y-86973881D01*
X95371909Y-86709040D01*
X98938091Y-86709040D01*
X99032930Y-86973881D01*
X99177615Y-87215131D01*
X99366586Y-87423519D01*
X99592580Y-87591037D01*
X99846913Y-87711246D01*
X99980961Y-87751904D01*
X100203000Y-87629915D01*
X100203000Y-86487000D01*
X100457000Y-86487000D01*
X100457000Y-87629915D01*
X100679039Y-87751904D01*
X100813087Y-87711246D01*
X101067420Y-87591037D01*
X101293414Y-87423519D01*
X101482385Y-87215131D01*
X101627070Y-86973881D01*
X101721909Y-86709040D01*
X106558091Y-86709040D01*
X106652930Y-86973881D01*
X106797615Y-87215131D01*
X106986586Y-87423519D01*
X107212580Y-87591037D01*
X107466913Y-87711246D01*
X107600961Y-87751904D01*
X107823000Y-87629915D01*
X107823000Y-86487000D01*
X108077000Y-86487000D01*
X108077000Y-87629915D01*
X108299039Y-87751904D01*
X108433087Y-87711246D01*
X108687420Y-87591037D01*
X108913414Y-87423519D01*
X109102385Y-87215131D01*
X109247070Y-86973881D01*
X109341909Y-86709040D01*
X112908091Y-86709040D01*
X113002930Y-86973881D01*
X113147615Y-87215131D01*
X113336586Y-87423519D01*
X113562580Y-87591037D01*
X113816913Y-87711246D01*
X113950961Y-87751904D01*
X114173000Y-87629915D01*
X114173000Y-86487000D01*
X114427000Y-86487000D01*
X114427000Y-87629915D01*
X114649039Y-87751904D01*
X114783087Y-87711246D01*
X115037420Y-87591037D01*
X115263414Y-87423519D01*
X115452385Y-87215131D01*
X115597070Y-86973881D01*
X115691909Y-86709040D01*
X120528091Y-86709040D01*
X120622930Y-86973881D01*
X120767615Y-87215131D01*
X120956586Y-87423519D01*
X121182580Y-87591037D01*
X121436913Y-87711246D01*
X121570961Y-87751904D01*
X121793000Y-87629915D01*
X121793000Y-86487000D01*
X122047000Y-86487000D01*
X122047000Y-87629915D01*
X122269039Y-87751904D01*
X122403087Y-87711246D01*
X122657420Y-87591037D01*
X122883414Y-87423519D01*
X123072385Y-87215131D01*
X123217070Y-86973881D01*
X123311909Y-86709040D01*
X126878091Y-86709040D01*
X126972930Y-86973881D01*
X127117615Y-87215131D01*
X127306586Y-87423519D01*
X127532580Y-87591037D01*
X127786913Y-87711246D01*
X127920961Y-87751904D01*
X128143000Y-87629915D01*
X128143000Y-86487000D01*
X128397000Y-86487000D01*
X128397000Y-87629915D01*
X128619039Y-87751904D01*
X128753087Y-87711246D01*
X129007420Y-87591037D01*
X129233414Y-87423519D01*
X129422385Y-87215131D01*
X129567070Y-86973881D01*
X129661909Y-86709040D01*
X134498091Y-86709040D01*
X134592930Y-86973881D01*
X134737615Y-87215131D01*
X134926586Y-87423519D01*
X135152580Y-87591037D01*
X135406913Y-87711246D01*
X135540961Y-87751904D01*
X135763000Y-87629915D01*
X135763000Y-86487000D01*
X136017000Y-86487000D01*
X136017000Y-87629915D01*
X136239039Y-87751904D01*
X136373087Y-87711246D01*
X136627420Y-87591037D01*
X136853414Y-87423519D01*
X137042385Y-87215131D01*
X137187070Y-86973881D01*
X137281909Y-86709040D01*
X140848091Y-86709040D01*
X140942930Y-86973881D01*
X141087615Y-87215131D01*
X141276586Y-87423519D01*
X141502580Y-87591037D01*
X141756913Y-87711246D01*
X141890961Y-87751904D01*
X142113000Y-87629915D01*
X142113000Y-86487000D01*
X142367000Y-86487000D01*
X142367000Y-87629915D01*
X142589039Y-87751904D01*
X142723087Y-87711246D01*
X142977420Y-87591037D01*
X143203414Y-87423519D01*
X143392385Y-87215131D01*
X143537070Y-86973881D01*
X143631909Y-86709040D01*
X148468091Y-86709040D01*
X148562930Y-86973881D01*
X148707615Y-87215131D01*
X148896586Y-87423519D01*
X149122580Y-87591037D01*
X149376913Y-87711246D01*
X149510961Y-87751904D01*
X149733000Y-87629915D01*
X149733000Y-86487000D01*
X149987000Y-86487000D01*
X149987000Y-87629915D01*
X150209039Y-87751904D01*
X150343087Y-87711246D01*
X150597420Y-87591037D01*
X150823414Y-87423519D01*
X151012385Y-87215131D01*
X151157070Y-86973881D01*
X151251909Y-86709040D01*
X151130624Y-86487000D01*
X149987000Y-86487000D01*
X149733000Y-86487000D01*
X148589376Y-86487000D01*
X148468091Y-86709040D01*
X143631909Y-86709040D01*
X143510624Y-86487000D01*
X142367000Y-86487000D01*
X142113000Y-86487000D01*
X140969376Y-86487000D01*
X140848091Y-86709040D01*
X137281909Y-86709040D01*
X137160624Y-86487000D01*
X136017000Y-86487000D01*
X135763000Y-86487000D01*
X134619376Y-86487000D01*
X134498091Y-86709040D01*
X129661909Y-86709040D01*
X129540624Y-86487000D01*
X128397000Y-86487000D01*
X128143000Y-86487000D01*
X126999376Y-86487000D01*
X126878091Y-86709040D01*
X123311909Y-86709040D01*
X123190624Y-86487000D01*
X122047000Y-86487000D01*
X121793000Y-86487000D01*
X120649376Y-86487000D01*
X120528091Y-86709040D01*
X115691909Y-86709040D01*
X115570624Y-86487000D01*
X114427000Y-86487000D01*
X114173000Y-86487000D01*
X113029376Y-86487000D01*
X112908091Y-86709040D01*
X109341909Y-86709040D01*
X109220624Y-86487000D01*
X108077000Y-86487000D01*
X107823000Y-86487000D01*
X106679376Y-86487000D01*
X106558091Y-86709040D01*
X101721909Y-86709040D01*
X101600624Y-86487000D01*
X100457000Y-86487000D01*
X100203000Y-86487000D01*
X99059376Y-86487000D01*
X98938091Y-86709040D01*
X95371909Y-86709040D01*
X95250624Y-86487000D01*
X94107000Y-86487000D01*
X93853000Y-86487000D01*
X92709376Y-86487000D01*
X92588091Y-86709040D01*
X87751909Y-86709040D01*
X87630624Y-86487000D01*
X86487000Y-86487000D01*
X86233000Y-86487000D01*
X85089376Y-86487000D01*
X84968091Y-86709040D01*
X80670000Y-86709040D01*
X80670000Y-86010960D01*
X84968091Y-86010960D01*
X85089376Y-86233000D01*
X86233000Y-86233000D01*
X86233000Y-85090085D01*
X86487000Y-85090085D01*
X86487000Y-86233000D01*
X87630624Y-86233000D01*
X87751909Y-86010960D01*
X92588091Y-86010960D01*
X92709376Y-86233000D01*
X93853000Y-86233000D01*
X93853000Y-85090085D01*
X94107000Y-85090085D01*
X94107000Y-86233000D01*
X95250624Y-86233000D01*
X95371909Y-86010960D01*
X98938091Y-86010960D01*
X99059376Y-86233000D01*
X100203000Y-86233000D01*
X100203000Y-85090085D01*
X100457000Y-85090085D01*
X100457000Y-86233000D01*
X101600624Y-86233000D01*
X101721909Y-86010960D01*
X106558091Y-86010960D01*
X106679376Y-86233000D01*
X107823000Y-86233000D01*
X107823000Y-85090085D01*
X108077000Y-85090085D01*
X108077000Y-86233000D01*
X109220624Y-86233000D01*
X109341909Y-86010960D01*
X112908091Y-86010960D01*
X113029376Y-86233000D01*
X114173000Y-86233000D01*
X114173000Y-85090085D01*
X114427000Y-85090085D01*
X114427000Y-86233000D01*
X115570624Y-86233000D01*
X115691909Y-86010960D01*
X120528091Y-86010960D01*
X120649376Y-86233000D01*
X121793000Y-86233000D01*
X121793000Y-85090085D01*
X122047000Y-85090085D01*
X122047000Y-86233000D01*
X123190624Y-86233000D01*
X123311909Y-86010960D01*
X126878091Y-86010960D01*
X126999376Y-86233000D01*
X128143000Y-86233000D01*
X128143000Y-85090085D01*
X128397000Y-85090085D01*
X128397000Y-86233000D01*
X129540624Y-86233000D01*
X129661909Y-86010960D01*
X134498091Y-86010960D01*
X134619376Y-86233000D01*
X135763000Y-86233000D01*
X135763000Y-85090085D01*
X136017000Y-85090085D01*
X136017000Y-86233000D01*
X137160624Y-86233000D01*
X137281909Y-86010960D01*
X140848091Y-86010960D01*
X140969376Y-86233000D01*
X142113000Y-86233000D01*
X142113000Y-85090085D01*
X142367000Y-85090085D01*
X142367000Y-86233000D01*
X143510624Y-86233000D01*
X143631909Y-86010960D01*
X148468091Y-86010960D01*
X148589376Y-86233000D01*
X149733000Y-86233000D01*
X149733000Y-85090085D01*
X149987000Y-85090085D01*
X149987000Y-86233000D01*
X151130624Y-86233000D01*
X151251909Y-86010960D01*
X151157070Y-85746119D01*
X151012385Y-85504869D01*
X150823414Y-85296481D01*
X150597420Y-85128963D01*
X150343087Y-85008754D01*
X150209039Y-84968096D01*
X149987000Y-85090085D01*
X149733000Y-85090085D01*
X149510961Y-84968096D01*
X149376913Y-85008754D01*
X149122580Y-85128963D01*
X148896586Y-85296481D01*
X148707615Y-85504869D01*
X148562930Y-85746119D01*
X148468091Y-86010960D01*
X143631909Y-86010960D01*
X143537070Y-85746119D01*
X143392385Y-85504869D01*
X143203414Y-85296481D01*
X142977420Y-85128963D01*
X142723087Y-85008754D01*
X142589039Y-84968096D01*
X142367000Y-85090085D01*
X142113000Y-85090085D01*
X141890961Y-84968096D01*
X141756913Y-85008754D01*
X141502580Y-85128963D01*
X141276586Y-85296481D01*
X141087615Y-85504869D01*
X140942930Y-85746119D01*
X140848091Y-86010960D01*
X137281909Y-86010960D01*
X137187070Y-85746119D01*
X137042385Y-85504869D01*
X136853414Y-85296481D01*
X136627420Y-85128963D01*
X136373087Y-85008754D01*
X136239039Y-84968096D01*
X136017000Y-85090085D01*
X135763000Y-85090085D01*
X135540961Y-84968096D01*
X135406913Y-85008754D01*
X135152580Y-85128963D01*
X134926586Y-85296481D01*
X134737615Y-85504869D01*
X134592930Y-85746119D01*
X134498091Y-86010960D01*
X129661909Y-86010960D01*
X129567070Y-85746119D01*
X129422385Y-85504869D01*
X129233414Y-85296481D01*
X129007420Y-85128963D01*
X128753087Y-85008754D01*
X128619039Y-84968096D01*
X128397000Y-85090085D01*
X128143000Y-85090085D01*
X127920961Y-84968096D01*
X127786913Y-85008754D01*
X127532580Y-85128963D01*
X127306586Y-85296481D01*
X127117615Y-85504869D01*
X126972930Y-85746119D01*
X126878091Y-86010960D01*
X123311909Y-86010960D01*
X123217070Y-85746119D01*
X123072385Y-85504869D01*
X122883414Y-85296481D01*
X122657420Y-85128963D01*
X122403087Y-85008754D01*
X122269039Y-84968096D01*
X122047000Y-85090085D01*
X121793000Y-85090085D01*
X121570961Y-84968096D01*
X121436913Y-85008754D01*
X121182580Y-85128963D01*
X120956586Y-85296481D01*
X120767615Y-85504869D01*
X120622930Y-85746119D01*
X120528091Y-86010960D01*
X115691909Y-86010960D01*
X115597070Y-85746119D01*
X115452385Y-85504869D01*
X115263414Y-85296481D01*
X115037420Y-85128963D01*
X114783087Y-85008754D01*
X114649039Y-84968096D01*
X114427000Y-85090085D01*
X114173000Y-85090085D01*
X113950961Y-84968096D01*
X113816913Y-85008754D01*
X113562580Y-85128963D01*
X113336586Y-85296481D01*
X113147615Y-85504869D01*
X113002930Y-85746119D01*
X112908091Y-86010960D01*
X109341909Y-86010960D01*
X109247070Y-85746119D01*
X109102385Y-85504869D01*
X108913414Y-85296481D01*
X108687420Y-85128963D01*
X108433087Y-85008754D01*
X108299039Y-84968096D01*
X108077000Y-85090085D01*
X107823000Y-85090085D01*
X107600961Y-84968096D01*
X107466913Y-85008754D01*
X107212580Y-85128963D01*
X106986586Y-85296481D01*
X106797615Y-85504869D01*
X106652930Y-85746119D01*
X106558091Y-86010960D01*
X101721909Y-86010960D01*
X101627070Y-85746119D01*
X101482385Y-85504869D01*
X101293414Y-85296481D01*
X101067420Y-85128963D01*
X100813087Y-85008754D01*
X100679039Y-84968096D01*
X100457000Y-85090085D01*
X100203000Y-85090085D01*
X99980961Y-84968096D01*
X99846913Y-85008754D01*
X99592580Y-85128963D01*
X99366586Y-85296481D01*
X99177615Y-85504869D01*
X99032930Y-85746119D01*
X98938091Y-86010960D01*
X95371909Y-86010960D01*
X95277070Y-85746119D01*
X95132385Y-85504869D01*
X94943414Y-85296481D01*
X94717420Y-85128963D01*
X94463087Y-85008754D01*
X94329039Y-84968096D01*
X94107000Y-85090085D01*
X93853000Y-85090085D01*
X93630961Y-84968096D01*
X93496913Y-85008754D01*
X93242580Y-85128963D01*
X93016586Y-85296481D01*
X92827615Y-85504869D01*
X92682930Y-85746119D01*
X92588091Y-86010960D01*
X87751909Y-86010960D01*
X87657070Y-85746119D01*
X87512385Y-85504869D01*
X87323414Y-85296481D01*
X87097420Y-85128963D01*
X86843087Y-85008754D01*
X86709039Y-84968096D01*
X86487000Y-85090085D01*
X86233000Y-85090085D01*
X86010961Y-84968096D01*
X85876913Y-85008754D01*
X85622580Y-85128963D01*
X85396586Y-85296481D01*
X85207615Y-85504869D01*
X85062930Y-85746119D01*
X84968091Y-86010960D01*
X80670000Y-86010960D01*
X80670000Y-62083740D01*
X81065000Y-62083740D01*
X81065000Y-62376260D01*
X81122068Y-62663158D01*
X81234010Y-62933411D01*
X81396525Y-63176632D01*
X81515000Y-63295107D01*
X81515001Y-64302811D01*
X81458617Y-64438933D01*
X81415000Y-64658212D01*
X81415000Y-64881788D01*
X81458617Y-65101067D01*
X81544176Y-65307624D01*
X81668388Y-65493520D01*
X81826480Y-65651612D01*
X82012376Y-65775824D01*
X82218933Y-65861383D01*
X82438212Y-65905000D01*
X82661788Y-65905000D01*
X82881067Y-65861383D01*
X83087624Y-65775824D01*
X83273520Y-65651612D01*
X83431612Y-65493520D01*
X83555824Y-65307624D01*
X83641383Y-65101067D01*
X83685000Y-64881788D01*
X83685000Y-64658212D01*
X83641383Y-64438933D01*
X83585000Y-64302813D01*
X83585000Y-63295107D01*
X83703475Y-63176632D01*
X83820000Y-63002240D01*
X83936525Y-63176632D01*
X84143368Y-63383475D01*
X84386589Y-63545990D01*
X84656842Y-63657932D01*
X84943740Y-63715000D01*
X85236260Y-63715000D01*
X85523158Y-63657932D01*
X85793411Y-63545990D01*
X86036632Y-63383475D01*
X86168487Y-63251620D01*
X86190498Y-63324180D01*
X86249463Y-63434494D01*
X86328815Y-63531185D01*
X86425506Y-63610537D01*
X86471272Y-63635000D01*
X86248212Y-63635000D01*
X86028933Y-63678617D01*
X85822376Y-63764176D01*
X85636480Y-63888388D01*
X85478388Y-64046480D01*
X85354176Y-64232376D01*
X85268617Y-64438933D01*
X85225000Y-64658212D01*
X85225000Y-64881788D01*
X85268617Y-65101067D01*
X85325000Y-65237187D01*
X85325001Y-73935603D01*
X85245363Y-74015241D01*
X85088320Y-74250273D01*
X84980147Y-74511426D01*
X84925000Y-74788665D01*
X84925000Y-75071335D01*
X84980147Y-75348574D01*
X85088320Y-75609727D01*
X85245363Y-75844759D01*
X85325000Y-75924396D01*
X85325001Y-77745603D01*
X85245363Y-77825241D01*
X85088320Y-78060273D01*
X84980147Y-78321426D01*
X84925000Y-78598665D01*
X84925000Y-78881335D01*
X84980147Y-79158574D01*
X85088320Y-79419727D01*
X85245363Y-79654759D01*
X85445241Y-79854637D01*
X85680273Y-80011680D01*
X85941426Y-80119853D01*
X86218665Y-80175000D01*
X86501335Y-80175000D01*
X86778574Y-80119853D01*
X87039727Y-80011680D01*
X87274759Y-79854637D01*
X87474637Y-79654759D01*
X87631680Y-79419727D01*
X87739853Y-79158574D01*
X87795000Y-78881335D01*
X87795000Y-78598665D01*
X87739853Y-78321426D01*
X87631680Y-78060273D01*
X87474637Y-77825241D01*
X87395000Y-77745604D01*
X87395000Y-75924396D01*
X87474637Y-75844759D01*
X87631680Y-75609727D01*
X87739853Y-75348574D01*
X87795000Y-75071335D01*
X87795000Y-74788665D01*
X87739853Y-74511426D01*
X87631680Y-74250273D01*
X87474637Y-74015241D01*
X87395000Y-73935604D01*
X87395000Y-65237187D01*
X87451383Y-65101067D01*
X87495000Y-64881788D01*
X87495000Y-64658212D01*
X87451383Y-64438933D01*
X87365824Y-64232376D01*
X87241612Y-64046480D01*
X87083520Y-63888388D01*
X86897624Y-63764176D01*
X86786319Y-63718072D01*
X88480000Y-63718072D01*
X88604482Y-63705812D01*
X88724180Y-63669502D01*
X88834494Y-63610537D01*
X88931185Y-63531185D01*
X89010537Y-63434494D01*
X89069502Y-63324180D01*
X89105812Y-63204482D01*
X89118072Y-63080000D01*
X89118072Y-62083740D01*
X91225000Y-62083740D01*
X91225000Y-62376260D01*
X91282068Y-62663158D01*
X91394010Y-62933411D01*
X91556525Y-63176632D01*
X91763368Y-63383475D01*
X92006589Y-63545990D01*
X92276842Y-63657932D01*
X92563740Y-63715000D01*
X92856260Y-63715000D01*
X93143158Y-63657932D01*
X93413411Y-63545990D01*
X93656632Y-63383475D01*
X93863475Y-63176632D01*
X93980000Y-63002240D01*
X94096525Y-63176632D01*
X94215000Y-63295107D01*
X94215001Y-63659508D01*
X94091788Y-63635000D01*
X93868212Y-63635000D01*
X93648933Y-63678617D01*
X93442376Y-63764176D01*
X93256480Y-63888388D01*
X93098388Y-64046480D01*
X92974176Y-64232376D01*
X92888617Y-64438933D01*
X92845000Y-64658212D01*
X92845000Y-64881788D01*
X92888617Y-65101067D01*
X92945001Y-65237189D01*
X92945000Y-73935604D01*
X92865363Y-74015241D01*
X92708320Y-74250273D01*
X92600147Y-74511426D01*
X92545000Y-74788665D01*
X92545000Y-75071335D01*
X92600147Y-75348574D01*
X92708320Y-75609727D01*
X92865363Y-75844759D01*
X92945000Y-75924396D01*
X92945001Y-77745603D01*
X92865363Y-77825241D01*
X92708320Y-78060273D01*
X92600147Y-78321426D01*
X92545000Y-78598665D01*
X92545000Y-78881335D01*
X92600147Y-79158574D01*
X92708320Y-79419727D01*
X92865363Y-79654759D01*
X93065241Y-79854637D01*
X93300273Y-80011680D01*
X93561426Y-80119853D01*
X93838665Y-80175000D01*
X94121335Y-80175000D01*
X94398574Y-80119853D01*
X94659727Y-80011680D01*
X94894759Y-79854637D01*
X95094637Y-79654759D01*
X95251680Y-79419727D01*
X95359853Y-79158574D01*
X95415000Y-78881335D01*
X95415000Y-78598665D01*
X95359853Y-78321426D01*
X95251680Y-78060273D01*
X95094637Y-77825241D01*
X95015000Y-77745604D01*
X95015000Y-75924396D01*
X95094637Y-75844759D01*
X95251680Y-75609727D01*
X95359853Y-75348574D01*
X95402938Y-75131972D01*
X95428617Y-75261067D01*
X95514176Y-75467624D01*
X95638388Y-75653520D01*
X95796480Y-75811612D01*
X95982376Y-75935824D01*
X96188933Y-76021383D01*
X96408212Y-76065000D01*
X96631788Y-76065000D01*
X96851067Y-76021383D01*
X97057624Y-75935824D01*
X97243520Y-75811612D01*
X97401612Y-75653520D01*
X97525824Y-75467624D01*
X97611383Y-75261067D01*
X97655000Y-75041788D01*
X97655000Y-74818212D01*
X97649123Y-74788665D01*
X98895000Y-74788665D01*
X98895000Y-75071335D01*
X98950147Y-75348574D01*
X99058320Y-75609727D01*
X99215363Y-75844759D01*
X99295000Y-75924396D01*
X99295001Y-77745603D01*
X99215363Y-77825241D01*
X99058320Y-78060273D01*
X98950147Y-78321426D01*
X98895000Y-78598665D01*
X98895000Y-78881335D01*
X98950147Y-79158574D01*
X99058320Y-79419727D01*
X99215363Y-79654759D01*
X99415241Y-79854637D01*
X99650273Y-80011680D01*
X99911426Y-80119853D01*
X100188665Y-80175000D01*
X100471335Y-80175000D01*
X100748574Y-80119853D01*
X101009727Y-80011680D01*
X101244759Y-79854637D01*
X101444637Y-79654759D01*
X101601680Y-79419727D01*
X101709853Y-79158574D01*
X101765000Y-78881335D01*
X101765000Y-78598665D01*
X101709853Y-78321426D01*
X101601680Y-78060273D01*
X101444637Y-77825241D01*
X101365000Y-77745604D01*
X101365000Y-75924396D01*
X101444637Y-75844759D01*
X101601680Y-75609727D01*
X101709853Y-75348574D01*
X101765000Y-75071335D01*
X101765000Y-74788665D01*
X106515000Y-74788665D01*
X106515000Y-75071335D01*
X106570147Y-75348574D01*
X106678320Y-75609727D01*
X106835363Y-75844759D01*
X106915001Y-75924397D01*
X106915000Y-77745604D01*
X106835363Y-77825241D01*
X106678320Y-78060273D01*
X106570147Y-78321426D01*
X106515000Y-78598665D01*
X106515000Y-78881335D01*
X106570147Y-79158574D01*
X106678320Y-79419727D01*
X106835363Y-79654759D01*
X107035241Y-79854637D01*
X107270273Y-80011680D01*
X107531426Y-80119853D01*
X107808665Y-80175000D01*
X108091335Y-80175000D01*
X108368574Y-80119853D01*
X108629727Y-80011680D01*
X108864759Y-79854637D01*
X109064637Y-79654759D01*
X109221680Y-79419727D01*
X109329853Y-79158574D01*
X109385000Y-78881335D01*
X109385000Y-78598665D01*
X109329853Y-78321426D01*
X109221680Y-78060273D01*
X109064637Y-77825241D01*
X108985000Y-77745604D01*
X108985000Y-75924396D01*
X109064637Y-75844759D01*
X109221680Y-75609727D01*
X109329853Y-75348574D01*
X109385000Y-75071335D01*
X109385000Y-74788665D01*
X109329853Y-74511426D01*
X109221680Y-74250273D01*
X109064637Y-74015241D01*
X108864759Y-73815363D01*
X108629727Y-73658320D01*
X108368574Y-73550147D01*
X108091335Y-73495000D01*
X107808665Y-73495000D01*
X107531426Y-73550147D01*
X107270273Y-73658320D01*
X107035241Y-73815363D01*
X106835363Y-74015241D01*
X106678320Y-74250273D01*
X106570147Y-74511426D01*
X106515000Y-74788665D01*
X101765000Y-74788665D01*
X101709853Y-74511426D01*
X101601680Y-74250273D01*
X101444637Y-74015241D01*
X101244759Y-73815363D01*
X101009727Y-73658320D01*
X100748574Y-73550147D01*
X100471335Y-73495000D01*
X100188665Y-73495000D01*
X99911426Y-73550147D01*
X99650273Y-73658320D01*
X99415241Y-73815363D01*
X99215363Y-74015241D01*
X99058320Y-74250273D01*
X98950147Y-74511426D01*
X98895000Y-74788665D01*
X97649123Y-74788665D01*
X97611383Y-74598933D01*
X97555000Y-74462813D01*
X97555000Y-69645107D01*
X97673475Y-69526632D01*
X97790000Y-69352240D01*
X97906525Y-69526632D01*
X98113368Y-69733475D01*
X98356589Y-69895990D01*
X98626842Y-70007932D01*
X98913740Y-70065000D01*
X99206260Y-70065000D01*
X99493158Y-70007932D01*
X99763411Y-69895990D01*
X100006632Y-69733475D01*
X100138487Y-69601620D01*
X100160498Y-69674180D01*
X100219463Y-69784494D01*
X100298815Y-69881185D01*
X100395506Y-69960537D01*
X100505820Y-70019502D01*
X100625518Y-70055812D01*
X100750000Y-70068072D01*
X102450000Y-70068072D01*
X102574482Y-70055812D01*
X102694180Y-70019502D01*
X102804494Y-69960537D01*
X102901185Y-69881185D01*
X102980537Y-69784494D01*
X103039502Y-69674180D01*
X103075812Y-69554482D01*
X103088072Y-69430000D01*
X103088072Y-68433740D01*
X105195000Y-68433740D01*
X105195000Y-68726260D01*
X105252068Y-69013158D01*
X105364010Y-69283411D01*
X105526525Y-69526632D01*
X105733368Y-69733475D01*
X105976589Y-69895990D01*
X106246842Y-70007932D01*
X106533740Y-70065000D01*
X106826260Y-70065000D01*
X107113158Y-70007932D01*
X107383411Y-69895990D01*
X107626632Y-69733475D01*
X107833475Y-69526632D01*
X107950000Y-69352240D01*
X108066525Y-69526632D01*
X108273368Y-69733475D01*
X108516589Y-69895990D01*
X108786842Y-70007932D01*
X109073740Y-70065000D01*
X109366260Y-70065000D01*
X109653158Y-70007932D01*
X109923411Y-69895990D01*
X110166632Y-69733475D01*
X110298487Y-69601620D01*
X110320498Y-69674180D01*
X110379463Y-69784494D01*
X110458815Y-69881185D01*
X110555506Y-69960537D01*
X110665820Y-70019502D01*
X110725001Y-70037454D01*
X110725000Y-74462813D01*
X110668617Y-74598933D01*
X110625000Y-74818212D01*
X110625000Y-75041788D01*
X110668617Y-75261067D01*
X110754176Y-75467624D01*
X110878388Y-75653520D01*
X111036480Y-75811612D01*
X111222376Y-75935824D01*
X111428933Y-76021383D01*
X111648212Y-76065000D01*
X111871788Y-76065000D01*
X112091067Y-76021383D01*
X112297624Y-75935824D01*
X112483520Y-75811612D01*
X112641612Y-75653520D01*
X112765824Y-75467624D01*
X112851383Y-75261067D01*
X112877062Y-75131972D01*
X112920147Y-75348574D01*
X113028320Y-75609727D01*
X113185363Y-75844759D01*
X113265000Y-75924396D01*
X113265001Y-77745603D01*
X113185363Y-77825241D01*
X113028320Y-78060273D01*
X112920147Y-78321426D01*
X112865000Y-78598665D01*
X112865000Y-78881335D01*
X112920147Y-79158574D01*
X113028320Y-79419727D01*
X113185363Y-79654759D01*
X113385241Y-79854637D01*
X113620273Y-80011680D01*
X113881426Y-80119853D01*
X114158665Y-80175000D01*
X114441335Y-80175000D01*
X114718574Y-80119853D01*
X114979727Y-80011680D01*
X115214759Y-79854637D01*
X115414637Y-79654759D01*
X115571680Y-79419727D01*
X115679853Y-79158574D01*
X115735000Y-78881335D01*
X115735000Y-78598665D01*
X115679853Y-78321426D01*
X115571680Y-78060273D01*
X115414637Y-77825241D01*
X115335000Y-77745604D01*
X115335000Y-75924396D01*
X115414637Y-75844759D01*
X115571680Y-75609727D01*
X115679853Y-75348574D01*
X115735000Y-75071335D01*
X115735000Y-74788665D01*
X115679853Y-74511426D01*
X115571680Y-74250273D01*
X115414637Y-74015241D01*
X115335000Y-73935604D01*
X115335000Y-65237187D01*
X115391383Y-65101067D01*
X115435000Y-64881788D01*
X115435000Y-64658212D01*
X115391383Y-64438933D01*
X115305824Y-64232376D01*
X115181612Y-64046480D01*
X115023520Y-63888388D01*
X114837624Y-63764176D01*
X114726319Y-63718072D01*
X116420000Y-63718072D01*
X116544482Y-63705812D01*
X116664180Y-63669502D01*
X116774494Y-63610537D01*
X116871185Y-63531185D01*
X116950537Y-63434494D01*
X117009502Y-63324180D01*
X117045812Y-63204482D01*
X117058072Y-63080000D01*
X117058072Y-62083740D01*
X119165000Y-62083740D01*
X119165000Y-62376260D01*
X119222068Y-62663158D01*
X119334010Y-62933411D01*
X119496525Y-63176632D01*
X119703368Y-63383475D01*
X119946589Y-63545990D01*
X120216842Y-63657932D01*
X120503740Y-63715000D01*
X120796260Y-63715000D01*
X121083158Y-63657932D01*
X121353411Y-63545990D01*
X121596632Y-63383475D01*
X121803475Y-63176632D01*
X121920000Y-63002240D01*
X122036525Y-63176632D01*
X122155000Y-63295107D01*
X122155001Y-63659508D01*
X122031788Y-63635000D01*
X121808212Y-63635000D01*
X121588933Y-63678617D01*
X121382376Y-63764176D01*
X121196480Y-63888388D01*
X121038388Y-64046480D01*
X120914176Y-64232376D01*
X120828617Y-64438933D01*
X120785000Y-64658212D01*
X120785000Y-64881788D01*
X120828617Y-65101067D01*
X120885000Y-65237187D01*
X120885001Y-73935603D01*
X120805363Y-74015241D01*
X120648320Y-74250273D01*
X120540147Y-74511426D01*
X120485000Y-74788665D01*
X120485000Y-75071335D01*
X120540147Y-75348574D01*
X120648320Y-75609727D01*
X120805363Y-75844759D01*
X120885000Y-75924396D01*
X120885001Y-77745603D01*
X120805363Y-77825241D01*
X120648320Y-78060273D01*
X120540147Y-78321426D01*
X120485000Y-78598665D01*
X120485000Y-78881335D01*
X120540147Y-79158574D01*
X120648320Y-79419727D01*
X120805363Y-79654759D01*
X121005241Y-79854637D01*
X121240273Y-80011680D01*
X121501426Y-80119853D01*
X121778665Y-80175000D01*
X122061335Y-80175000D01*
X122338574Y-80119853D01*
X122599727Y-80011680D01*
X122834759Y-79854637D01*
X123034637Y-79654759D01*
X123191680Y-79419727D01*
X123299853Y-79158574D01*
X123355000Y-78881335D01*
X123355000Y-78598665D01*
X123299853Y-78321426D01*
X123191680Y-78060273D01*
X123034637Y-77825241D01*
X122955000Y-77745604D01*
X122955000Y-75924396D01*
X123034637Y-75844759D01*
X123191680Y-75609727D01*
X123299853Y-75348574D01*
X123342938Y-75131972D01*
X123368617Y-75261067D01*
X123454176Y-75467624D01*
X123578388Y-75653520D01*
X123736480Y-75811612D01*
X123922376Y-75935824D01*
X124128933Y-76021383D01*
X124348212Y-76065000D01*
X124571788Y-76065000D01*
X124791067Y-76021383D01*
X124997624Y-75935824D01*
X125183520Y-75811612D01*
X125341612Y-75653520D01*
X125465824Y-75467624D01*
X125551383Y-75261067D01*
X125595000Y-75041788D01*
X125595000Y-74818212D01*
X125589123Y-74788665D01*
X126835000Y-74788665D01*
X126835000Y-75071335D01*
X126890147Y-75348574D01*
X126998320Y-75609727D01*
X127155363Y-75844759D01*
X127235000Y-75924396D01*
X127235001Y-77745603D01*
X127155363Y-77825241D01*
X126998320Y-78060273D01*
X126890147Y-78321426D01*
X126835000Y-78598665D01*
X126835000Y-78881335D01*
X126890147Y-79158574D01*
X126998320Y-79419727D01*
X127155363Y-79654759D01*
X127355241Y-79854637D01*
X127590273Y-80011680D01*
X127851426Y-80119853D01*
X128128665Y-80175000D01*
X128411335Y-80175000D01*
X128688574Y-80119853D01*
X128949727Y-80011680D01*
X129184759Y-79854637D01*
X129384637Y-79654759D01*
X129541680Y-79419727D01*
X129649853Y-79158574D01*
X129705000Y-78881335D01*
X129705000Y-78598665D01*
X129649853Y-78321426D01*
X129541680Y-78060273D01*
X129384637Y-77825241D01*
X129305000Y-77745604D01*
X129305000Y-75924396D01*
X129384637Y-75844759D01*
X129541680Y-75609727D01*
X129649853Y-75348574D01*
X129705000Y-75071335D01*
X129705000Y-74788665D01*
X134455000Y-74788665D01*
X134455000Y-75071335D01*
X134510147Y-75348574D01*
X134618320Y-75609727D01*
X134775363Y-75844759D01*
X134855001Y-75924397D01*
X134855000Y-77745604D01*
X134775363Y-77825241D01*
X134618320Y-78060273D01*
X134510147Y-78321426D01*
X134455000Y-78598665D01*
X134455000Y-78881335D01*
X134510147Y-79158574D01*
X134618320Y-79419727D01*
X134775363Y-79654759D01*
X134975241Y-79854637D01*
X135210273Y-80011680D01*
X135471426Y-80119853D01*
X135748665Y-80175000D01*
X136031335Y-80175000D01*
X136308574Y-80119853D01*
X136569727Y-80011680D01*
X136804759Y-79854637D01*
X137004637Y-79654759D01*
X137161680Y-79419727D01*
X137269853Y-79158574D01*
X137325000Y-78881335D01*
X137325000Y-78598665D01*
X137269853Y-78321426D01*
X137161680Y-78060273D01*
X137004637Y-77825241D01*
X136925000Y-77745604D01*
X136925000Y-75924396D01*
X137004637Y-75844759D01*
X137161680Y-75609727D01*
X137269853Y-75348574D01*
X137325000Y-75071335D01*
X137325000Y-74788665D01*
X137269853Y-74511426D01*
X137161680Y-74250273D01*
X137004637Y-74015241D01*
X136804759Y-73815363D01*
X136569727Y-73658320D01*
X136308574Y-73550147D01*
X136031335Y-73495000D01*
X135748665Y-73495000D01*
X135471426Y-73550147D01*
X135210273Y-73658320D01*
X134975241Y-73815363D01*
X134775363Y-74015241D01*
X134618320Y-74250273D01*
X134510147Y-74511426D01*
X134455000Y-74788665D01*
X129705000Y-74788665D01*
X129649853Y-74511426D01*
X129541680Y-74250273D01*
X129384637Y-74015241D01*
X129184759Y-73815363D01*
X128949727Y-73658320D01*
X128688574Y-73550147D01*
X128411335Y-73495000D01*
X128128665Y-73495000D01*
X127851426Y-73550147D01*
X127590273Y-73658320D01*
X127355241Y-73815363D01*
X127155363Y-74015241D01*
X126998320Y-74250273D01*
X126890147Y-74511426D01*
X126835000Y-74788665D01*
X125589123Y-74788665D01*
X125551383Y-74598933D01*
X125495000Y-74462813D01*
X125495000Y-69645107D01*
X125613475Y-69526632D01*
X125730000Y-69352240D01*
X125846525Y-69526632D01*
X126053368Y-69733475D01*
X126296589Y-69895990D01*
X126566842Y-70007932D01*
X126853740Y-70065000D01*
X127146260Y-70065000D01*
X127433158Y-70007932D01*
X127703411Y-69895990D01*
X127946632Y-69733475D01*
X128078487Y-69601620D01*
X128100498Y-69674180D01*
X128159463Y-69784494D01*
X128238815Y-69881185D01*
X128335506Y-69960537D01*
X128445820Y-70019502D01*
X128565518Y-70055812D01*
X128690000Y-70068072D01*
X130390000Y-70068072D01*
X130514482Y-70055812D01*
X130634180Y-70019502D01*
X130744494Y-69960537D01*
X130841185Y-69881185D01*
X130920537Y-69784494D01*
X130979502Y-69674180D01*
X131015812Y-69554482D01*
X131028072Y-69430000D01*
X131028072Y-68433740D01*
X133135000Y-68433740D01*
X133135000Y-68726260D01*
X133192068Y-69013158D01*
X133304010Y-69283411D01*
X133466525Y-69526632D01*
X133673368Y-69733475D01*
X133916589Y-69895990D01*
X134186842Y-70007932D01*
X134473740Y-70065000D01*
X134766260Y-70065000D01*
X135053158Y-70007932D01*
X135323411Y-69895990D01*
X135566632Y-69733475D01*
X135773475Y-69526632D01*
X135890000Y-69352240D01*
X136006525Y-69526632D01*
X136213368Y-69733475D01*
X136456589Y-69895990D01*
X136726842Y-70007932D01*
X137013740Y-70065000D01*
X137306260Y-70065000D01*
X137593158Y-70007932D01*
X137863411Y-69895990D01*
X138106632Y-69733475D01*
X138238487Y-69601620D01*
X138260498Y-69674180D01*
X138319463Y-69784494D01*
X138398815Y-69881185D01*
X138495506Y-69960537D01*
X138605820Y-70019502D01*
X138665000Y-70037454D01*
X138665001Y-74462811D01*
X138608617Y-74598933D01*
X138565000Y-74818212D01*
X138565000Y-75041788D01*
X138608617Y-75261067D01*
X138694176Y-75467624D01*
X138818388Y-75653520D01*
X138976480Y-75811612D01*
X139162376Y-75935824D01*
X139368933Y-76021383D01*
X139588212Y-76065000D01*
X139811788Y-76065000D01*
X140031067Y-76021383D01*
X140237624Y-75935824D01*
X140423520Y-75811612D01*
X140581612Y-75653520D01*
X140705824Y-75467624D01*
X140791383Y-75261067D01*
X140817062Y-75131972D01*
X140860147Y-75348574D01*
X140968320Y-75609727D01*
X141125363Y-75844759D01*
X141205000Y-75924396D01*
X141205001Y-77745603D01*
X141125363Y-77825241D01*
X140968320Y-78060273D01*
X140860147Y-78321426D01*
X140805000Y-78598665D01*
X140805000Y-78881335D01*
X140860147Y-79158574D01*
X140968320Y-79419727D01*
X141125363Y-79654759D01*
X141325241Y-79854637D01*
X141560273Y-80011680D01*
X141821426Y-80119853D01*
X142098665Y-80175000D01*
X142381335Y-80175000D01*
X142658574Y-80119853D01*
X142919727Y-80011680D01*
X143154759Y-79854637D01*
X143354637Y-79654759D01*
X143511680Y-79419727D01*
X143619853Y-79158574D01*
X143675000Y-78881335D01*
X143675000Y-78598665D01*
X143619853Y-78321426D01*
X143511680Y-78060273D01*
X143354637Y-77825241D01*
X143275000Y-77745604D01*
X143275000Y-75924396D01*
X143354637Y-75844759D01*
X143511680Y-75609727D01*
X143619853Y-75348574D01*
X143675000Y-75071335D01*
X143675000Y-74788665D01*
X148425000Y-74788665D01*
X148425000Y-75071335D01*
X148480147Y-75348574D01*
X148588320Y-75609727D01*
X148745363Y-75844759D01*
X148825001Y-75924397D01*
X148825000Y-77745604D01*
X148745363Y-77825241D01*
X148588320Y-78060273D01*
X148480147Y-78321426D01*
X148425000Y-78598665D01*
X148425000Y-78881335D01*
X148480147Y-79158574D01*
X148588320Y-79419727D01*
X148745363Y-79654759D01*
X148945241Y-79854637D01*
X149180273Y-80011680D01*
X149441426Y-80119853D01*
X149718665Y-80175000D01*
X150001335Y-80175000D01*
X150278574Y-80119853D01*
X150539727Y-80011680D01*
X150774759Y-79854637D01*
X150974637Y-79654759D01*
X151131680Y-79419727D01*
X151239853Y-79158574D01*
X151295000Y-78881335D01*
X151295000Y-78598665D01*
X151239853Y-78321426D01*
X151131680Y-78060273D01*
X150974637Y-77825241D01*
X150895000Y-77745604D01*
X150895000Y-75924396D01*
X150974637Y-75844759D01*
X151131680Y-75609727D01*
X151239853Y-75348574D01*
X151295000Y-75071335D01*
X151295000Y-74788665D01*
X151239853Y-74511426D01*
X151131680Y-74250273D01*
X150974637Y-74015241D01*
X150895000Y-73935604D01*
X150895000Y-65237187D01*
X150951383Y-65101067D01*
X150995000Y-64881788D01*
X150995000Y-64658212D01*
X150951383Y-64438933D01*
X150865824Y-64232376D01*
X150741612Y-64046480D01*
X150583520Y-63888388D01*
X150397624Y-63764176D01*
X150191067Y-63678617D01*
X149971788Y-63635000D01*
X149748212Y-63635000D01*
X149528933Y-63678617D01*
X149322376Y-63764176D01*
X149136480Y-63888388D01*
X148978388Y-64046480D01*
X148854176Y-64232376D01*
X148768617Y-64438933D01*
X148725000Y-64658212D01*
X148725000Y-64881788D01*
X148768617Y-65101067D01*
X148825000Y-65237187D01*
X148825001Y-73935603D01*
X148745363Y-74015241D01*
X148588320Y-74250273D01*
X148480147Y-74511426D01*
X148425000Y-74788665D01*
X143675000Y-74788665D01*
X143619853Y-74511426D01*
X143511680Y-74250273D01*
X143354637Y-74015241D01*
X143275000Y-73935604D01*
X143275000Y-65237187D01*
X143331383Y-65101067D01*
X143375000Y-64881788D01*
X143375000Y-64658212D01*
X143331383Y-64438933D01*
X143245824Y-64232376D01*
X143121612Y-64046480D01*
X142963520Y-63888388D01*
X142777624Y-63764176D01*
X142666319Y-63718072D01*
X144360000Y-63718072D01*
X144484482Y-63705812D01*
X144604180Y-63669502D01*
X144714494Y-63610537D01*
X144811185Y-63531185D01*
X144890537Y-63434494D01*
X144949502Y-63324180D01*
X144985812Y-63204482D01*
X144998072Y-63080000D01*
X144998072Y-62083740D01*
X147105000Y-62083740D01*
X147105000Y-62376260D01*
X147162068Y-62663158D01*
X147274010Y-62933411D01*
X147436525Y-63176632D01*
X147643368Y-63383475D01*
X147886589Y-63545990D01*
X148156842Y-63657932D01*
X148443740Y-63715000D01*
X148736260Y-63715000D01*
X149023158Y-63657932D01*
X149293411Y-63545990D01*
X149536632Y-63383475D01*
X149743475Y-63176632D01*
X149860000Y-63002240D01*
X149976525Y-63176632D01*
X150183368Y-63383475D01*
X150426589Y-63545990D01*
X150696842Y-63657932D01*
X150983740Y-63715000D01*
X151276260Y-63715000D01*
X151563158Y-63657932D01*
X151833411Y-63545990D01*
X152076632Y-63383475D01*
X152208487Y-63251620D01*
X152230498Y-63324180D01*
X152289463Y-63434494D01*
X152368815Y-63531185D01*
X152465506Y-63610537D01*
X152575820Y-63669502D01*
X152635001Y-63687454D01*
X152635001Y-64302811D01*
X152578617Y-64438933D01*
X152535000Y-64658212D01*
X152535000Y-64881788D01*
X152578617Y-65101067D01*
X152664176Y-65307624D01*
X152788388Y-65493520D01*
X152946480Y-65651612D01*
X153132376Y-65775824D01*
X153338933Y-65861383D01*
X153558212Y-65905000D01*
X153781788Y-65905000D01*
X154001067Y-65861383D01*
X154207624Y-65775824D01*
X154393520Y-65651612D01*
X154551612Y-65493520D01*
X154675824Y-65307624D01*
X154761383Y-65101067D01*
X154805000Y-64881788D01*
X154805000Y-64658212D01*
X154761383Y-64438933D01*
X154705000Y-64302813D01*
X154705000Y-63687454D01*
X154764180Y-63669502D01*
X154874494Y-63610537D01*
X154971185Y-63531185D01*
X155050537Y-63434494D01*
X155109502Y-63324180D01*
X155145812Y-63204482D01*
X155158072Y-63080000D01*
X155158072Y-61380000D01*
X155145812Y-61255518D01*
X155109502Y-61135820D01*
X155050537Y-61025506D01*
X154971185Y-60928815D01*
X154874494Y-60849463D01*
X154764180Y-60790498D01*
X154644482Y-60754188D01*
X154520000Y-60741928D01*
X152820000Y-60741928D01*
X152695518Y-60754188D01*
X152575820Y-60790498D01*
X152465506Y-60849463D01*
X152368815Y-60928815D01*
X152289463Y-61025506D01*
X152230498Y-61135820D01*
X152208487Y-61208380D01*
X152165000Y-61164893D01*
X152165000Y-60157187D01*
X152221383Y-60021067D01*
X152265000Y-59801788D01*
X152265000Y-59578212D01*
X152221383Y-59358933D01*
X152135824Y-59152376D01*
X152011612Y-58966480D01*
X151853520Y-58808388D01*
X151667624Y-58684176D01*
X151461067Y-58598617D01*
X151241788Y-58555000D01*
X151018212Y-58555000D01*
X150798933Y-58598617D01*
X150592376Y-58684176D01*
X150406480Y-58808388D01*
X150248388Y-58966480D01*
X150124176Y-59152376D01*
X150038617Y-59358933D01*
X149995000Y-59578212D01*
X149995000Y-59801788D01*
X150038617Y-60021067D01*
X150095001Y-60157189D01*
X150095000Y-61164893D01*
X149976525Y-61283368D01*
X149860000Y-61457760D01*
X149743475Y-61283368D01*
X149536632Y-61076525D01*
X149293411Y-60914010D01*
X149023158Y-60802068D01*
X148736260Y-60745000D01*
X148443740Y-60745000D01*
X148156842Y-60802068D01*
X147886589Y-60914010D01*
X147643368Y-61076525D01*
X147436525Y-61283368D01*
X147274010Y-61526589D01*
X147162068Y-61796842D01*
X147105000Y-62083740D01*
X144998072Y-62083740D01*
X144998072Y-61380000D01*
X144985812Y-61255518D01*
X144949502Y-61135820D01*
X144890537Y-61025506D01*
X144811185Y-60928815D01*
X144714494Y-60849463D01*
X144604180Y-60790498D01*
X144484482Y-60754188D01*
X144360000Y-60741928D01*
X142660000Y-60741928D01*
X142535518Y-60754188D01*
X142415820Y-60790498D01*
X142305506Y-60849463D01*
X142208815Y-60928815D01*
X142129463Y-61025506D01*
X142070498Y-61135820D01*
X142048487Y-61208380D01*
X141916632Y-61076525D01*
X141673411Y-60914010D01*
X141403158Y-60802068D01*
X141116260Y-60745000D01*
X140823740Y-60745000D01*
X140536842Y-60802068D01*
X140266589Y-60914010D01*
X140023368Y-61076525D01*
X139816525Y-61283368D01*
X139700000Y-61457760D01*
X139583475Y-61283368D01*
X139376632Y-61076525D01*
X139133411Y-60914010D01*
X138863158Y-60802068D01*
X138576260Y-60745000D01*
X138283740Y-60745000D01*
X137996842Y-60802068D01*
X137726589Y-60914010D01*
X137483368Y-61076525D01*
X137276525Y-61283368D01*
X137114010Y-61526589D01*
X137002068Y-61796842D01*
X136945000Y-62083740D01*
X136945000Y-62376260D01*
X137002068Y-62663158D01*
X137114010Y-62933411D01*
X137276525Y-63176632D01*
X137395000Y-63295107D01*
X137395001Y-64302811D01*
X137338617Y-64438933D01*
X137295000Y-64658212D01*
X137295000Y-64881788D01*
X137319508Y-65005000D01*
X137210838Y-65005000D01*
X137160000Y-64999993D01*
X137109162Y-65005000D01*
X136957105Y-65019976D01*
X136762007Y-65079159D01*
X136582203Y-65175266D01*
X136424604Y-65304604D01*
X136295266Y-65462203D01*
X136199159Y-65642007D01*
X136139976Y-65837105D01*
X136119993Y-66040000D01*
X136125001Y-66090848D01*
X136125000Y-67514893D01*
X136006525Y-67633368D01*
X135890000Y-67807760D01*
X135773475Y-67633368D01*
X135566632Y-67426525D01*
X135323411Y-67264010D01*
X135053158Y-67152068D01*
X134766260Y-67095000D01*
X134473740Y-67095000D01*
X134186842Y-67152068D01*
X133916589Y-67264010D01*
X133673368Y-67426525D01*
X133466525Y-67633368D01*
X133304010Y-67876589D01*
X133192068Y-68146842D01*
X133135000Y-68433740D01*
X131028072Y-68433740D01*
X131028072Y-67730000D01*
X131015812Y-67605518D01*
X130979502Y-67485820D01*
X130920537Y-67375506D01*
X130841185Y-67278815D01*
X130744494Y-67199463D01*
X130634180Y-67140498D01*
X130514482Y-67104188D01*
X130390000Y-67091928D01*
X128690000Y-67091928D01*
X128565518Y-67104188D01*
X128445820Y-67140498D01*
X128335506Y-67199463D01*
X128238815Y-67278815D01*
X128159463Y-67375506D01*
X128100498Y-67485820D01*
X128078487Y-67558380D01*
X127946632Y-67426525D01*
X127703411Y-67264010D01*
X127433158Y-67152068D01*
X127146260Y-67095000D01*
X126978711Y-67095000D01*
X125788710Y-65905000D01*
X125841788Y-65905000D01*
X126061067Y-65861383D01*
X126267624Y-65775824D01*
X126453520Y-65651612D01*
X126611612Y-65493520D01*
X126735824Y-65307624D01*
X126821383Y-65101067D01*
X126865000Y-64881788D01*
X126865000Y-64658212D01*
X126821383Y-64438933D01*
X126765000Y-64302813D01*
X126765000Y-63687454D01*
X126824180Y-63669502D01*
X126934494Y-63610537D01*
X127031185Y-63531185D01*
X127110537Y-63434494D01*
X127169502Y-63324180D01*
X127205812Y-63204482D01*
X127218072Y-63080000D01*
X127218072Y-61380000D01*
X127205812Y-61255518D01*
X127169502Y-61135820D01*
X127110537Y-61025506D01*
X127031185Y-60928815D01*
X126934494Y-60849463D01*
X126824180Y-60790498D01*
X126704482Y-60754188D01*
X126580000Y-60741928D01*
X124880000Y-60741928D01*
X124755518Y-60754188D01*
X124635820Y-60790498D01*
X124525506Y-60849463D01*
X124428815Y-60928815D01*
X124349463Y-61025506D01*
X124290498Y-61135820D01*
X124268487Y-61208380D01*
X124136632Y-61076525D01*
X123893411Y-60914010D01*
X123623158Y-60802068D01*
X123336260Y-60745000D01*
X123043740Y-60745000D01*
X122756842Y-60802068D01*
X122486589Y-60914010D01*
X122243368Y-61076525D01*
X122036525Y-61283368D01*
X121920000Y-61457760D01*
X121803475Y-61283368D01*
X121596632Y-61076525D01*
X121353411Y-60914010D01*
X121083158Y-60802068D01*
X120796260Y-60745000D01*
X120503740Y-60745000D01*
X120216842Y-60802068D01*
X119946589Y-60914010D01*
X119703368Y-61076525D01*
X119496525Y-61283368D01*
X119334010Y-61526589D01*
X119222068Y-61796842D01*
X119165000Y-62083740D01*
X117058072Y-62083740D01*
X117058072Y-61380000D01*
X117045812Y-61255518D01*
X117009502Y-61135820D01*
X116950537Y-61025506D01*
X116871185Y-60928815D01*
X116774494Y-60849463D01*
X116664180Y-60790498D01*
X116544482Y-60754188D01*
X116420000Y-60741928D01*
X114720000Y-60741928D01*
X114595518Y-60754188D01*
X114475820Y-60790498D01*
X114365506Y-60849463D01*
X114268815Y-60928815D01*
X114189463Y-61025506D01*
X114130498Y-61135820D01*
X114108487Y-61208380D01*
X113976632Y-61076525D01*
X113733411Y-60914010D01*
X113463158Y-60802068D01*
X113176260Y-60745000D01*
X112883740Y-60745000D01*
X112596842Y-60802068D01*
X112326589Y-60914010D01*
X112083368Y-61076525D01*
X111876525Y-61283368D01*
X111760000Y-61457760D01*
X111643475Y-61283368D01*
X111436632Y-61076525D01*
X111193411Y-60914010D01*
X110923158Y-60802068D01*
X110636260Y-60745000D01*
X110343740Y-60745000D01*
X110056842Y-60802068D01*
X109786589Y-60914010D01*
X109543368Y-61076525D01*
X109336525Y-61283368D01*
X109174010Y-61526589D01*
X109062068Y-61796842D01*
X109005000Y-62083740D01*
X109005000Y-62376260D01*
X109062068Y-62663158D01*
X109174010Y-62933411D01*
X109336525Y-63176632D01*
X109455000Y-63295107D01*
X109455001Y-64302811D01*
X109398617Y-64438933D01*
X109355000Y-64658212D01*
X109355000Y-64881788D01*
X109379508Y-65005000D01*
X109270838Y-65005000D01*
X109220000Y-64999993D01*
X109169162Y-65005000D01*
X109017105Y-65019976D01*
X108822007Y-65079159D01*
X108642203Y-65175266D01*
X108484604Y-65304604D01*
X108355266Y-65462203D01*
X108259159Y-65642007D01*
X108199976Y-65837105D01*
X108179993Y-66040000D01*
X108185001Y-66090848D01*
X108185000Y-67514893D01*
X108066525Y-67633368D01*
X107950000Y-67807760D01*
X107833475Y-67633368D01*
X107626632Y-67426525D01*
X107383411Y-67264010D01*
X107113158Y-67152068D01*
X106826260Y-67095000D01*
X106533740Y-67095000D01*
X106246842Y-67152068D01*
X105976589Y-67264010D01*
X105733368Y-67426525D01*
X105526525Y-67633368D01*
X105364010Y-67876589D01*
X105252068Y-68146842D01*
X105195000Y-68433740D01*
X103088072Y-68433740D01*
X103088072Y-67730000D01*
X103075812Y-67605518D01*
X103039502Y-67485820D01*
X102980537Y-67375506D01*
X102901185Y-67278815D01*
X102804494Y-67199463D01*
X102694180Y-67140498D01*
X102574482Y-67104188D01*
X102450000Y-67091928D01*
X100750000Y-67091928D01*
X100625518Y-67104188D01*
X100505820Y-67140498D01*
X100395506Y-67199463D01*
X100298815Y-67278815D01*
X100219463Y-67375506D01*
X100160498Y-67485820D01*
X100138487Y-67558380D01*
X100006632Y-67426525D01*
X99763411Y-67264010D01*
X99493158Y-67152068D01*
X99206260Y-67095000D01*
X99038711Y-67095000D01*
X97848710Y-65905000D01*
X97901788Y-65905000D01*
X98121067Y-65861383D01*
X98327624Y-65775824D01*
X98513520Y-65651612D01*
X98671612Y-65493520D01*
X98795824Y-65307624D01*
X98881383Y-65101067D01*
X98925000Y-64881788D01*
X98925000Y-64658212D01*
X98881383Y-64438933D01*
X98825000Y-64302813D01*
X98825000Y-63687454D01*
X98884180Y-63669502D01*
X98994494Y-63610537D01*
X99091185Y-63531185D01*
X99170537Y-63434494D01*
X99229502Y-63324180D01*
X99265812Y-63204482D01*
X99278072Y-63080000D01*
X99278072Y-61380000D01*
X99265812Y-61255518D01*
X99229502Y-61135820D01*
X99170537Y-61025506D01*
X99091185Y-60928815D01*
X98994494Y-60849463D01*
X98884180Y-60790498D01*
X98764482Y-60754188D01*
X98640000Y-60741928D01*
X96940000Y-60741928D01*
X96815518Y-60754188D01*
X96695820Y-60790498D01*
X96585506Y-60849463D01*
X96488815Y-60928815D01*
X96409463Y-61025506D01*
X96350498Y-61135820D01*
X96328487Y-61208380D01*
X96196632Y-61076525D01*
X95953411Y-60914010D01*
X95683158Y-60802068D01*
X95396260Y-60745000D01*
X95103740Y-60745000D01*
X94816842Y-60802068D01*
X94546589Y-60914010D01*
X94303368Y-61076525D01*
X94096525Y-61283368D01*
X93980000Y-61457760D01*
X93863475Y-61283368D01*
X93656632Y-61076525D01*
X93413411Y-60914010D01*
X93143158Y-60802068D01*
X92856260Y-60745000D01*
X92563740Y-60745000D01*
X92276842Y-60802068D01*
X92006589Y-60914010D01*
X91763368Y-61076525D01*
X91556525Y-61283368D01*
X91394010Y-61526589D01*
X91282068Y-61796842D01*
X91225000Y-62083740D01*
X89118072Y-62083740D01*
X89118072Y-61380000D01*
X89105812Y-61255518D01*
X89069502Y-61135820D01*
X89010537Y-61025506D01*
X88931185Y-60928815D01*
X88834494Y-60849463D01*
X88724180Y-60790498D01*
X88604482Y-60754188D01*
X88480000Y-60741928D01*
X86780000Y-60741928D01*
X86655518Y-60754188D01*
X86535820Y-60790498D01*
X86425506Y-60849463D01*
X86328815Y-60928815D01*
X86249463Y-61025506D01*
X86190498Y-61135820D01*
X86168487Y-61208380D01*
X86125000Y-61164893D01*
X86125000Y-60157187D01*
X86181383Y-60021067D01*
X86225000Y-59801788D01*
X86225000Y-59578212D01*
X86181383Y-59358933D01*
X86095824Y-59152376D01*
X85971612Y-58966480D01*
X85813520Y-58808388D01*
X85627624Y-58684176D01*
X85421067Y-58598617D01*
X85201788Y-58555000D01*
X84978212Y-58555000D01*
X84758933Y-58598617D01*
X84552376Y-58684176D01*
X84366480Y-58808388D01*
X84208388Y-58966480D01*
X84084176Y-59152376D01*
X83998617Y-59358933D01*
X83955000Y-59578212D01*
X83955000Y-59801788D01*
X83998617Y-60021067D01*
X84055000Y-60157188D01*
X84055001Y-61164892D01*
X83936525Y-61283368D01*
X83820000Y-61457760D01*
X83703475Y-61283368D01*
X83496632Y-61076525D01*
X83253411Y-60914010D01*
X82983158Y-60802068D01*
X82696260Y-60745000D01*
X82403740Y-60745000D01*
X82116842Y-60802068D01*
X81846589Y-60914010D01*
X81603368Y-61076525D01*
X81396525Y-61283368D01*
X81234010Y-61526589D01*
X81122068Y-61796842D01*
X81065000Y-62083740D01*
X80670000Y-62083740D01*
X80670000Y-56192000D01*
X83941928Y-56192000D01*
X83954188Y-56316482D01*
X83990498Y-56436180D01*
X84049463Y-56546494D01*
X84128815Y-56643185D01*
X84225506Y-56722537D01*
X84335820Y-56781502D01*
X84455518Y-56817812D01*
X84580000Y-56830072D01*
X84701014Y-56829670D01*
X84673019Y-56954445D01*
X84667645Y-57175001D01*
X84705404Y-57392367D01*
X84784842Y-57598189D01*
X84810684Y-57646534D01*
X85022584Y-57679811D01*
X85123305Y-57579090D01*
X85194952Y-57640331D01*
X85304063Y-57701493D01*
X85346353Y-57715252D01*
X85202189Y-57859416D01*
X85235466Y-58071316D01*
X85437176Y-58160683D01*
X85652445Y-58208981D01*
X85873001Y-58214355D01*
X86090367Y-58176596D01*
X86296189Y-58097158D01*
X86344534Y-58071316D01*
X86377811Y-57859416D01*
X86233647Y-57715252D01*
X86275937Y-57701493D01*
X86385048Y-57640331D01*
X86456695Y-57579090D01*
X86557416Y-57679811D01*
X86769316Y-57646534D01*
X86858683Y-57444824D01*
X86906981Y-57229555D01*
X86912355Y-57008999D01*
X86881205Y-56829677D01*
X87000000Y-56830072D01*
X87124482Y-56817812D01*
X87244180Y-56781502D01*
X87354494Y-56722537D01*
X87451185Y-56643185D01*
X87530537Y-56546494D01*
X87589502Y-56436180D01*
X87625812Y-56316482D01*
X87638072Y-56192000D01*
X92701928Y-56192000D01*
X92714188Y-56316482D01*
X92750498Y-56436180D01*
X92809463Y-56546494D01*
X92888815Y-56643185D01*
X92985506Y-56722537D01*
X93095820Y-56781502D01*
X93215518Y-56817812D01*
X93340000Y-56830072D01*
X93461014Y-56829670D01*
X93433019Y-56954445D01*
X93427645Y-57175001D01*
X93465404Y-57392367D01*
X93544842Y-57598189D01*
X93570684Y-57646534D01*
X93782584Y-57679811D01*
X93883305Y-57579090D01*
X93954952Y-57640331D01*
X94064063Y-57701493D01*
X94106353Y-57715252D01*
X93962189Y-57859416D01*
X93995466Y-58071316D01*
X94197176Y-58160683D01*
X94412445Y-58208981D01*
X94633001Y-58214355D01*
X94850367Y-58176596D01*
X95056189Y-58097158D01*
X95104534Y-58071316D01*
X95137811Y-57859416D01*
X94993647Y-57715252D01*
X95035937Y-57701493D01*
X95145048Y-57640331D01*
X95216695Y-57579090D01*
X95317416Y-57679811D01*
X95529316Y-57646534D01*
X95618683Y-57444824D01*
X95666981Y-57229555D01*
X95672355Y-57008999D01*
X95641205Y-56829677D01*
X95760000Y-56830072D01*
X95884482Y-56817812D01*
X96004180Y-56781502D01*
X96114494Y-56722537D01*
X96211185Y-56643185D01*
X96290537Y-56546494D01*
X96349502Y-56436180D01*
X96385812Y-56316482D01*
X96398072Y-56192000D01*
X139821928Y-56192000D01*
X139834188Y-56316482D01*
X139870498Y-56436180D01*
X139929463Y-56546494D01*
X140008815Y-56643185D01*
X140105506Y-56722537D01*
X140215820Y-56781502D01*
X140335518Y-56817812D01*
X140460000Y-56830072D01*
X140581014Y-56829670D01*
X140553019Y-56954445D01*
X140547645Y-57175001D01*
X140585404Y-57392367D01*
X140664842Y-57598189D01*
X140690684Y-57646534D01*
X140902584Y-57679811D01*
X141003305Y-57579090D01*
X141074952Y-57640331D01*
X141184063Y-57701493D01*
X141226353Y-57715252D01*
X141082189Y-57859416D01*
X141115466Y-58071316D01*
X141317176Y-58160683D01*
X141532445Y-58208981D01*
X141753001Y-58214355D01*
X141970367Y-58176596D01*
X142176189Y-58097158D01*
X142224534Y-58071316D01*
X142257811Y-57859416D01*
X142113647Y-57715252D01*
X142155937Y-57701493D01*
X142265048Y-57640331D01*
X142336695Y-57579090D01*
X142437416Y-57679811D01*
X142649316Y-57646534D01*
X142738683Y-57444824D01*
X142786981Y-57229555D01*
X142792355Y-57008999D01*
X142761205Y-56829677D01*
X142880000Y-56830072D01*
X143004482Y-56817812D01*
X143124180Y-56781502D01*
X143234494Y-56722537D01*
X143331185Y-56643185D01*
X143410537Y-56546494D01*
X143469502Y-56436180D01*
X143505812Y-56316482D01*
X143518072Y-56192000D01*
X148581928Y-56192000D01*
X148594188Y-56316482D01*
X148630498Y-56436180D01*
X148689463Y-56546494D01*
X148768815Y-56643185D01*
X148865506Y-56722537D01*
X148975820Y-56781502D01*
X149095518Y-56817812D01*
X149220000Y-56830072D01*
X149341014Y-56829670D01*
X149313019Y-56954445D01*
X149307645Y-57175001D01*
X149345404Y-57392367D01*
X149424842Y-57598189D01*
X149450684Y-57646534D01*
X149662584Y-57679811D01*
X149763305Y-57579090D01*
X149834952Y-57640331D01*
X149944063Y-57701493D01*
X149986353Y-57715252D01*
X149842189Y-57859416D01*
X149875466Y-58071316D01*
X150077176Y-58160683D01*
X150292445Y-58208981D01*
X150513001Y-58214355D01*
X150730367Y-58176596D01*
X150936189Y-58097158D01*
X150984534Y-58071316D01*
X151017811Y-57859416D01*
X150873647Y-57715252D01*
X150915937Y-57701493D01*
X151025048Y-57640331D01*
X151096695Y-57579090D01*
X151197416Y-57679811D01*
X151409316Y-57646534D01*
X151498683Y-57444824D01*
X151546981Y-57229555D01*
X151552355Y-57008999D01*
X151521205Y-56829677D01*
X151640000Y-56830072D01*
X151764482Y-56817812D01*
X151884180Y-56781502D01*
X151994494Y-56722537D01*
X152091185Y-56643185D01*
X152170537Y-56546494D01*
X152229502Y-56436180D01*
X152265812Y-56316482D01*
X152278072Y-56192000D01*
X152275000Y-53937750D01*
X152116250Y-53779000D01*
X150557000Y-53779000D01*
X150557000Y-53799000D01*
X150303000Y-53799000D01*
X150303000Y-53779000D01*
X148743750Y-53779000D01*
X148585000Y-53937750D01*
X148581928Y-56192000D01*
X143518072Y-56192000D01*
X143515000Y-53937750D01*
X143356250Y-53779000D01*
X141797000Y-53779000D01*
X141797000Y-53799000D01*
X141543000Y-53799000D01*
X141543000Y-53779000D01*
X139983750Y-53779000D01*
X139825000Y-53937750D01*
X139821928Y-56192000D01*
X96398072Y-56192000D01*
X96395000Y-53937750D01*
X96236250Y-53779000D01*
X94677000Y-53779000D01*
X94677000Y-53799000D01*
X94423000Y-53799000D01*
X94423000Y-53779000D01*
X92863750Y-53779000D01*
X92705000Y-53937750D01*
X92701928Y-56192000D01*
X87638072Y-56192000D01*
X87635000Y-53937750D01*
X87476250Y-53779000D01*
X85917000Y-53779000D01*
X85917000Y-53799000D01*
X85663000Y-53799000D01*
X85663000Y-53779000D01*
X84103750Y-53779000D01*
X83945000Y-53937750D01*
X83941928Y-56192000D01*
X80670000Y-56192000D01*
X80670000Y-51460000D01*
X83942402Y-51460000D01*
X83945000Y-53366250D01*
M02*
