M48
; DRILL file {KiCad (5.1.5-0)} date Monday, April 27, 2020 at 12:04:10 AM
; FORMAT={-:-/ absolute / inch / decimal}
; #@! TF.CreationDate,2020-04-27T00:04:10-07:00
; #@! TF.GenerationSoftware,Kicad,Pcbnew,(5.1.5-0)
FMAT,2
INCH
T1C0.0157
T2C0.0181
T3C0.0295
T4C0.0315
T5C0.0354
T6C0.0394
T7C0.0472
T8C0.0512
T9C0.0394
%
G90
G05
T1
X3.92Y-2.715
X3.965Y-2.7875
X4.2975Y-2.875
X4.2975Y-3.5175
X4.3325Y-2.9035
X4.3325Y-3.8175
X4.415Y-3.18
X4.4175Y-2.52
X4.425Y-4.3025
X4.455Y-2.6225
X4.455Y-2.9525
X4.5275Y-3.735
X4.5875Y-2.6175
X4.6625Y-4.225
X4.665Y-3.23
X4.697Y-3.0405
X4.7295Y-3.073
X4.7761Y-3.0389
X4.8075Y-4.2725
X4.8475Y-2.73
X4.8475Y-2.815
X4.8475Y-2.8575
X4.8506Y-3.2669
X4.8825Y-3.907
X4.9163Y-3.5292
X4.94Y-4.095
X4.9675Y-3.1425
X4.98Y-3.545
X5.005Y-3.2275
X5.0127Y-3.2661
X5.025Y-3.3375
X5.0375Y-2.78
X5.27Y-3.145
X5.3435Y-3.591
X5.465Y-4.2
X5.4773Y-3.7535
X5.4934Y-4.4716
X5.5825Y-4.055
X5.5825Y-4.12
X5.66Y-3.94
X5.6765Y-4.09
X5.7025Y-4.13
X5.7225Y-3.3375
X5.7475Y-4.105
X5.8335Y-3.94
X5.835Y-3.49
X5.86Y-3.9725
X5.91Y-3.615
X5.9525Y-3.715
X5.97Y-3.4525
X5.9975Y-3.3
X6.0125Y-3.42
X6.025Y-3.6825
X6.025Y-3.8
X6.2675Y-3.5475
X6.2925Y-3.255
X6.3031Y-3.6025
X6.375Y-4.205
X6.4625Y-3.6775
X6.6425Y-2.8
X6.6475Y-3.0975
X6.65Y-3.3525
X6.6575Y-3.5025
X6.66Y-3.4025
X6.665Y-3.4525
X6.6875Y-3.9875
X6.7075Y-3.155
X6.745Y-3.3525
X6.75Y-3.4025
X6.751Y-3.9875
X6.7525Y-3.45
X6.7575Y-3.5
X6.84Y-3.99
X6.84Y-4.2375
X6.955Y-3.17
X6.955Y-3.5525
X6.955Y-3.9725
X6.955Y-4.43
X6.9575Y-3.76
X6.9575Y-3.855
X6.9835Y-3.282
X6.9835Y-3.516
X6.988Y-3.118
X6.9881Y-3.2429
X7.062Y-3.366
X7.182Y-2.43
X7.182Y-3.586
X7.206Y-3.648
T2
X3.7357Y-1.6036
X3.7357Y-1.9484
T3
X4.235Y-2.5225
X4.235Y-2.5725
X4.235Y-2.6225
T4
X3.8575Y-3.025
X3.885Y-2.4475
X4.025Y-4.2275
X4.4775Y-3.6375
X4.5725Y-2.1775
X4.915Y-2.0575
X4.94Y-2.555
X5.0975Y-2.555
X5.1Y-2.4575
X5.1525Y-2.755
X5.1525Y-2.9225
X5.17Y-2.0725
X5.17Y-2.2725
X5.21Y-2.8525
X5.21Y-3.005
X5.295Y-2.1825
X5.3575Y-2.65
X5.56Y-2.79
X5.615Y-2.4975
X5.97Y-2.8575
X6.17Y-3.02
X6.1975Y-2.8525
X6.2325Y-2.6475
X6.2375Y-2.9025
X6.295Y-3.0575
X6.2975Y-2.38
X6.335Y-2.91
X6.3425Y-3.6725
X6.3925Y-2.505
X6.4Y-2.63
X6.4075Y-2.3875
X6.455Y-2.79
X6.545Y-2.4475
X6.545Y-3.25
X6.59Y-2.8075
X6.64Y-2.525
X6.7345Y-2.58
X6.76Y-3.2525
X6.78Y-2.1025
X6.78Y-2.8364
X6.7825Y-2.175
X6.785Y-2.7636
X6.8325Y-2.52
X6.87Y-4.5275
X6.894Y-2.108
X6.9025Y-2.39
X6.9025Y-3.1975
X6.934Y-2.228
X6.9825Y-2.01
X4.6766Y-1.9699
X4.6766Y-2.2699
X4.7947Y-1.9699
X4.7947Y-2.2699
T5
X4.042Y-4.99
X6.158Y-4.998
X5.392Y-4.994
X5.392Y-4.782
X6.55Y-5.21
X6.55Y-4.786
X5.58Y-4.998
X3.652Y-5.2
X5.0Y-4.782
X5.962Y-4.784
X5.0Y-5.206
X5.962Y-5.208
X4.042Y-5.202
X3.848Y-4.778
X3.652Y-4.776
X4.804Y-5.204
X5.0Y-4.994
X4.042Y-4.778
X7.296Y-5.212
X6.928Y-5.212
X5.58Y-4.786
X7.106Y-4.79
X3.848Y-4.99
X3.848Y-5.202
X6.352Y-4.998
X7.106Y-5.214
X6.158Y-5.21
X5.77Y-4.996
X7.106Y-5.002
X5.392Y-5.206
X7.296Y-5.0
X6.55Y-4.998
X6.738Y-4.79
X4.428Y-5.206
X5.58Y-5.21
X5.194Y-4.782
X6.738Y-5.002
X5.194Y-4.994
X4.24Y-4.778
X6.352Y-5.21
X4.618Y-4.78
X4.428Y-4.994
X4.618Y-4.992
X6.158Y-4.786
X4.804Y-4.78
X4.24Y-4.99
X4.804Y-4.992
X5.962Y-4.996
X5.77Y-4.784
X6.352Y-4.786
X4.618Y-5.204
X5.77Y-5.208
X6.928Y-5.0
X4.428Y-4.782
X5.194Y-5.206
X6.928Y-4.788
X6.738Y-5.214
X4.24Y-5.202
X3.652Y-4.988
X7.296Y-4.788
T6
X6.45Y-2.295
X6.65Y-2.295
X7.06Y-4.2375
X7.08Y-2.106
X7.072Y-2.906
X3.585Y-2.18
X3.585Y-2.28
X6.025Y-2.2994
X6.025Y-2.4994
X6.6225Y-3.885
X6.7225Y-3.885
X7.068Y-3.978
X5.464Y-2.2896
X5.664Y-2.2896
X7.288Y-4.238
X3.8Y-2.1675
X3.8Y-2.2675
X7.286Y-4.474
X7.282Y-3.988
X7.288Y-2.6225
X3.56Y-3.0025
X3.56Y-3.1025
X3.56Y-3.2025
X3.56Y-3.3025
X3.56Y-3.4025
X3.56Y-3.5025
X3.56Y-3.6025
X3.56Y-3.7025
X3.56Y-3.8025
X3.56Y-3.9025
X3.56Y-4.0025
X3.56Y-4.1025
X3.56Y-4.2025
X3.56Y-4.3025
X3.56Y-4.4025
X4.16Y-3.0025
X4.16Y-3.1025
X4.16Y-3.2025
X4.16Y-3.3025
X4.16Y-3.4025
X4.16Y-3.5025
X4.16Y-3.6025
X4.16Y-3.7025
X4.16Y-3.8025
X4.16Y-3.9025
X4.16Y-4.0025
X4.16Y-4.1025
X4.16Y-4.2025
X4.16Y-4.3025
X4.16Y-4.4025
X4.69Y-1.83
X4.79Y-1.83
X7.068Y-3.176
X7.072Y-2.624
X7.288Y-3.458
X7.286Y-3.178
X7.296Y-2.106
X7.068Y-3.736
X7.292Y-2.34
X3.7975Y-2.5375
X3.7975Y-2.6375
X5.464Y-2.7325
X5.664Y-2.7325
X7.28Y-3.736
X7.06Y-4.474
X7.078Y-2.352
X7.062Y-3.458
X7.292Y-2.902
T7
X6.5383Y-4.3694
X6.5639Y-4.0741
X6.7411Y-4.0741
X6.7667Y-4.3694
X4.058Y-1.609
X4.058Y-2.2389
X4.4517Y-1.609
X4.4517Y-2.2389
T8
X5.4739Y-1.7975
X5.6943Y-1.7975
X6.1333Y-1.7975
X6.1333Y-2.018
X6.6156Y-1.7975
X6.8361Y-1.7975
T9
X6.5541Y-4.2316
X6.7509Y-4.2316
T0
M30
